<svg xmlns="http://www.w3.org/2000/svg" width="32" height="32"><g fill="none" fill-rule="evenodd"><g><path fill="#FFF" d="M6.778 24.105a1.261 1.261 0 110 2.522 1.261 1.261 0 010-2.522"/><path fill="#FF4597" d="M26.543 25.445a1.243 1.243 0 10-2.486 0 1.243 1.243 0 002.486 0m1.989 0c0 .259-.03.507-.09.746a3.228 3.228 0 01-6.284 0 3.23 3.23 0 116.374-.746"/><path fill="#FFF" d="M25.222 24.105a1.26 1.26 0 110 2.522 1.26 1.26 0 01-.001-2.522"/><path fill="#FF4597" d="M7.942 25.445a1.243 1.243 0 10-2.486 0 1.243 1.243 0 002.486 0m1.989 0c0 .259-.03.507-.09.746a3.228 3.228 0 01-6.284 0 3.231 3.231 0 116.374-.746"/><path fill="#0B9ED9" d="M23.015 19.061H11.98V15.16c.331-.026.667-.04 1.003-.04 5.518 0 10.032 3.941 10.032 3.941M11.98 15.125v3.936l-5.517-2.5c1.52-.67 3.427-1.287 5.517-1.44v.004z"/><path fill="#021859" d="M25.25 21.681c-2.068 0-3.75 1.675-3.75 3.734 0 .084.003.167.009.25H10.49c.005-.083.009-.166.009-.25 0-2.06-1.682-3.734-3.75-3.734a3.745 3.745 0 00-3.739 3.984h-.343L1 24.419v-5.23h2.001c.01 0 .02 0 .03-.002h.006a.218.218 0 00.043-.005h.004l.044-.01h.003l.044-.015h.003c.014-.006.029-.012.042-.019l.003-.001.04-.023.004-.002.037-.025.004-.003c.023-.018 1.258-.963 3.196-1.849l5.29 2.408h.001l.047.019.004.001c.015.005.03.01.046.013l.006.001.043.007.009.001c.013.002.027.002.04.002h10.967l5.47.538a2.483 2.483 0 012.074 2.453v.496H30.5a.5.5 0 100 .996h.5v1.494h-2.01c.006-.082.01-.165.01-.249 0-2.06-1.682-3.734-3.75-3.734zm0 6.473a2.748 2.748 0 01-2.75-2.739c0-1.51 1.234-2.738 2.75-2.738S28 23.905 28 25.415s-1.234 2.739-2.75 2.739zm-18.5 0A2.748 2.748 0 014 25.415c0-1.51 1.234-2.738 2.75-2.738s2.75 1.228 2.75 2.738-1.234 2.739-2.75 2.739zm1.011-11.44a15.935 15.935 0 013.741-.924v2.625l-3.74-1.702zm13.762 1.978h-9.021v-2.98c.164-.006.33-.01.496-.01 3.647 0 6.881 1.852 8.525 2.99zm9.977 4.483v-.498a3.476 3.476 0 00-2.893-3.432l-.02-.004-.006-.001-.012-.002c-.007 0-.013-.002-.02-.003l-5.34-.524c-.782-.656-5.026-4.004-10.211-4.004-5.134 0-9.341 2.884-10.164 3.486H.5a.5.5 0 00-.5.498v5.985l.002.034.002.016c0 .01.003.021.004.031l.004.019.007.027.006.02.01.025.007.02.012.024.01.02.013.022.013.019.015.02.015.019.015.016.02.02.013.012.026.022.006.005 2.002 1.493.004.003a.39.39 0 00.065.04l.005.003c.021.01.044.02.067.028l.005.002a.496.496 0 00.069.016l.015.003a.509.509 0 00.069.005h.714a3.753 3.753 0 007.07 0h11.43a3.753 3.753 0 007.07 0H31.5c.277 0 .5-.223.5-.498v-2.49a.498.498 0 00-.5-.497z"/><path fill="#021859" d="M6.778 26.11a.744.744 0 11.002-1.488.744.744 0 01-.002 1.488m0-2.477c-.956 0-1.734.777-1.734 1.734 0 .956.778 1.733 1.734 1.733s1.734-.777 1.734-1.733c0-.957-.778-1.734-1.734-1.734m18.444 2.477a.744.744 0 11.002-1.488.744.744 0 01-.002 1.488m0-2.477c-.956 0-1.734.777-1.734 1.734 0 .956.778 1.733 1.734 1.733s1.734-.777 1.734-1.733c0-.957-.778-1.734-1.734-1.734M31.5 29.15H.5c-.276 0-.5-.247-.5-.552 0-.305.224-.552.5-.552h31c.276 0 .5.247.5.552 0 .305-.224.552-.5.552"/></g><path fill="#FF4597" d="M16 3.14a4.493 4.493 0 110 8.985 4.493 4.493 0 010-8.985"/><path fill="#021859" d="M16 3.66c-2.19 0-3.972 1.782-3.972 3.972S13.81 11.605 16 11.605s3.972-1.783 3.972-3.973S18.19 3.66 16 3.66m0 8.938c-2.738 0-4.966-2.228-4.966-4.966S13.262 2.667 16 2.667s4.966 2.227 4.966 4.965-2.228 4.966-4.966 4.966"/><path fill="#021859" d="M18.854 6.129a.502.502 0 00-.672 0l-2.676 2.448-1.354-1.24a.502.502 0 00-.672 0 .442.442 0 000 .655l1.69 1.548a.502.502 0 00.672-.002l3.012-2.754a.44.44 0 000-.655"/></g></svg>