<svg xmlns="http://www.w3.org/2000/svg" width="48" height="48"><g fill="none" fill-rule="evenodd"><path fill="#FFF" d="M34.81 39.62c.157-.053.298-.142.414-.26l4.5-4.55c.202-.204.315-.481.315-.77V9.228c0-.5-.401-.907-.896-.907h-3.014V6.048H30.21V4.415a3.3 3.3 0 00-.183-1.088h12.377c.99 0 1.793.812 1.793 1.814V42.86a1.803 1.803 0 01-1.793 1.813H17.109c1.7-1.185 3.425-2.819 4.52-4.994h12.835c.118 0 .235-.02.347-.059"/><path fill="#0B9ED9" d="M39.92 8.986v24.82c0 .16-.035.319-.102.465l-.112-.037h-3.224c-.99 0-1.794.811-1.795 1.813v3.34a1.05 1.05 0 01-.347.059H21.492a10.92 10.92 0 001.161-4.972V26.55l-.071-.03a52.501 52.501 0 01-8.8-4.88V8.985c0-.5.402-.907.897-.907h3.017v2.078h18.31V8.08h3.017c.496 0 .898.406.898.907z"/><path fill="#0433BF" d="M39.806 34.218l.115.037c-.054.115-.127.22-.217.31l-4.59 4.617c-.118.12-.262.21-.42.264v-3.388a1.832 1.832 0 011.827-1.84h3.285z"/><path fill="#FF4597" d="M36.119 7.952V9.98H17.584V5.732h5.997V4.14c0-.362.063-.722.186-1.063h.001c.602-1.66 2.47-2.529 4.174-1.943a3.231 3.231 0 011.994 1.943c.124.341.187.7.187 1.063v1.593h5.996v2.22z"/><path fill="#FFF" d="M11.309 3.327h12.453c-.122.346-.185.71-.184 1.077v1.617h-5.955v2.25h-3.032a.9.9 0 00-.902.898v12.523a52.73 52.73 0 01-1.967-1.4 54.407 54.407 0 01-2.217 1.57V5.121a1.8 1.8 0 011.804-1.795z"/><path fill="#FF4597" d="M13.856 21.837a53.228 53.228 0 008.884 4.838l.072.03v7.858a10.667 10.667 0 01-1.173 4.928c-1.106 2.158-2.85 3.778-4.568 4.954a20.455 20.455 0 01-5.38 2.605S.951 43.933.951 34.563v-7.857l.072-.03a53.212 53.212 0 0010.858-6.24c.648.482 1.307.95 1.975 1.401"/><path fill="#021859" d="M22.018 40.36c-.66 1.17-1.537 2.268-2.613 3.272h23.046a.95.95 0 00.945-.951V4.868a.952.952 0 00-.945-.952H31.013c.004.075.006.15.006.224v.77h5.104c.476 0 .863.388.863.867v1.412h2.175c.974 0 1.766.798 1.767 1.776v24.874c0 .522-.2 1.013-.567 1.383l-4.54 4.564c-.123.123-.26.227-.41.312a.851.851 0 01-.76.25 2.011 2.011 0 01-.205.011H22.018zm-.208-13.224a54.036 54.036 0 01-10.043-5.828c-.575.423-1.16.836-1.74 1.229-.992.67-2.02 1.316-3.057 1.92a54.24 54.24 0 01-5.245 2.679v7.374c0 3.636 1.684 6.72 5.005 9.163a18.824 18.824 0 004.853 2.549 19.912 19.912 0 004.874-2.438c1.947-1.35 3.386-2.926 4.277-4.685a10.112 10.112 0 001.076-4.587v-7.376zm.975-22.996c0-.074.002-.149.006-.224H11.353a.952.952 0 00-.945.952v15.288c.29-.21.571-.417.841-.621a.864.864 0 011.036 0c.192.145.39.291.59.438V8.965a1.776 1.776 0 011.767-1.776h2.176V5.777c0-.479.387-.868.863-.868h5.104V4.14zm14.2 5.999a.867.867 0 01-.863.868H17.681a.867.867 0 01-.863-.868V8.924h-2.176a.04.04 0 00-.041.041v12.218a52.187 52.187 0 008.34 4.556l.07.03c.319.137.524.45.524.798v7.943a11.81 11.81 0 01-.717 4.115h11.113v-2.538a2.684 2.684 0 012.67-2.685h2.601V8.965a.04.04 0 00-.041-.041h-2.176v1.215zm-1.328 25.948v1.411l2.348-2.361h-1.403a.95.95 0 00-.945.95zM30.156 6.644a.866.866 0 01-.863-.867V4.14a2.43 2.43 0 00-.125-.77l-.013-.035A2.384 2.384 0 0027.7 1.873a2.392 2.392 0 00-3.053 1.465l-.012.032a2.421 2.421 0 00-.125.77v1.637a.866.866 0 01-.862.867h-5.105v2.628H35.26V6.644h-5.103zM42.45 2.181a2.684 2.684 0 012.67 2.686v37.815a2.685 2.685 0 01-2.67 2.685H17.21a20.962 20.962 0 01-5.389 2.598.85.85 0 01-.485 0 19.985 19.985 0 01-5.625-2.891C1.975 42.324 0 38.67 0 34.51v-7.943c0-.348.206-.661.524-.798l.072-.03a52.644 52.644 0 005.51-2.783c.855-.5 1.722-1.039 2.577-1.606V4.868a2.685 2.685 0 012.67-2.687h11.922c.19-.356.43-.68.715-.967A4.081 4.081 0 0126.901 0h.002c1.099 0 2.133.43 2.91 1.212.285.288.525.613.715.97h11.923zm-6.906 13.027h.672c.47 0 .852.426.852.95s-.382.95-.852.95h-.672c-.47 0-.852-.426-.852-.95s.382-.95.852-.95zm-11.379 1.9c-.485 0-.879-.426-.879-.95s.394-.95.879-.95h9.173c.485 0 .879.426.879.95s-.394.95-.879.95h-9.173zm-6.673 0c-.474 0-.86-.426-.86-.95s.386-.95.86-.95h3.509c.474 0 .86.426.86.95s-.386.95-.86.95h-3.509zm18.673 2.852c.498 0 .903.427.903.95 0 .525-.405.951-.903.951H34.17c-.498 0-.904-.426-.904-.95s.406-.95.904-.95h1.995zm-3.374.95c0 .525-.383.951-.854.951h-2.57c-.47 0-.853-.426-.853-.95s.383-.95.854-.95h2.57c.47 0 .853.426.853.95zm-4.752 0c0 .525-.39.951-.87.951h-9.667c-.48 0-.87-.426-.87-.95s.39-.95.87-.95h9.667c.48 0 .87.426.87.95zm8.177 4.278c.47 0 .852.426.852.95 0 .525-.382.951-.852.951h-3.998c-.47 0-.853-.426-.853-.95 0-.525.383-.95.853-.95h3.998zm-11.564 0H30c.491 0 .891.426.891.95 0 .525-.4.951-.891.951h-5.347c-.49 0-.89-.426-.89-.95 0-.525.4-.95.89-.95zm11.543 4.753c.482 0 .873.426.873.95s-.391.95-.873.95h-11.56c-.482 0-.874-.426-.874-.95s.392-.95.874-.95h11.56zM7.649 32.407l2.623 2.995 5.43-5.236.017-.015a.814.814 0 011.156.065.923.923 0 01-.027 1.257l-6.056 5.839a.816.816 0 01-1.191-.053l-3.204-3.657a.915.915 0 01-.218-.64.903.903 0 01.277-.616.818.818 0 01.608-.23.825.825 0 01.585.291z"/></g></svg>