<svg xmlns="http://www.w3.org/2000/svg" width="48" height="48"><g fill="none" fill-rule="evenodd"><path fill="#FFF" d="M46.728 6.96l-4.143 4.177h-2.64l-2.578-2.673v-2.64l4.082-4.145a8.405 8.405 0 00-2.682-.438c-5.75 0-9.79 5.658-7.962 11.086l-7.929 7.934-.006-.007-2.64 2.641.006.006-7.902 7.905c-5.417-1.825-11.082 2.2-11.082 7.964 0 .939.154 1.841.438 2.683l4.142-4.177h2.64l2.672 2.673v2.641l-4.175 4.144a8.377 8.377 0 002.682.438c5.76 0 9.786-5.667 7.961-11.086l18.472-18.479a8.399 8.399 0 0011.081-7.963c0-.939-.154-1.842-.437-2.684"/><path fill="#021859" d="M32.348 14.483c-.576 0-1.044.462-1.044 1.034a1.04 1.04 0 001.044 1.035c.577 0 1.043-.463 1.043-1.035 0-.572-.466-1.034-1.043-1.034M15.652 31.448c-.577 0-1.043.464-1.043 1.035 0 .572.466 1.034 1.043 1.034.576 0 1.044-.462 1.044-1.034a1.04 1.04 0 00-1.044-1.035"/><path fill="#021859" d="M38.792 17.096a7.674 7.674 0 01-2.434-.394.797.797 0 00-.816.19l-5.445 5.398-13.058 12.946a.78.78 0 00-.192.809c.792 2.33.413 4.816-1.039 6.82-1.448 2-3.702 3.146-6.183 3.146-.274 0-.553-.015-.83-.045l-.293-.03 3.179-3.127a.786.786 0 00.235-.56v-2.621a.78.78 0 00-.233-.557l-2.676-2.654a.796.796 0 00-.562-.23H5.8a.804.804 0 00-.564.233l-3.153 3.15-.032-.29a7.483 7.483 0 01-.045-.823c0-2.46 1.157-4.693 3.173-6.13a7.6 7.6 0 016.88-1.03c.288.097.6.024.816-.189L31.342 12.8l.037-.036a.776.776 0 00.19-.809c-.791-2.33-.413-4.815 1.038-6.818a7.557 7.557 0 016.185-3.148c.283 0 .571.016.855.047l.287.032-3.11 3.13a.775.775 0 00-.229.552v2.622c0 .205.08.4.223.547l2.583 2.653c.149.153.357.24.572.24h2.644c.21 0 .416-.084.564-.232l3.153-3.15.032.29c.03.27.045.547.045.823 0 4.164-3.418 7.553-7.619 7.553M47.52 6.627a.795.795 0 00-.573-.515.804.804 0 00-.744.212l-3.917 3.914H40.31l-2.126-2.184v-1.98l3.86-3.885A.785.785 0 0041.732.89a9.247 9.247 0 00-2.94-.476c-3 0-5.724 1.386-7.476 3.804-1.624 2.242-2.142 5.045-1.42 7.69l.02.077L12.09 29.66l-.079-.021a9.222 9.222 0 00-7.76 1.41C1.815 32.785.417 35.485.417 38.459c0 .997.162 1.978.48 2.914a.796.796 0 001.318.304l3.916-3.913h1.985l2.21 2.191v1.968L6.38 45.805a.776.776 0 00-.214.737.79.79 0 00.52.568 9.252 9.252 0 002.94.476c2.999 0 5.723-1.385 7.474-3.801 1.626-2.244 2.144-5.048 1.423-7.693l-.021-.077L36.328 18.34l.078.02c.775.206 1.578.31 2.386.31 5.077 0 9.208-4.095 9.208-9.128 0-.998-.162-1.979-.48-2.916"/><path fill="#021859" d="M29.267 17.655L17.39 29.428a.936.936 0 000 1.33.954.954 0 001.342 0L30.61 18.986a.936.936 0 000-1.33.954.954 0 00-1.342 0"/><path fill="#0433BF" d="M40.937 42.642a2.067 2.067 0 01-2.076-2.058c0-1.136.93-2.058 2.076-2.058 1.147 0 2.076.922 2.076 2.058 0 1.137-.93 2.058-2.076 2.058m0-8.232a6.24 6.24 0 00-2.408.479L18.752 15.31l-3.309 3.28L35.21 38.158a6.116 6.116 0 00-.5 2.426c0 3.41 2.789 6.175 6.228 6.175 3.44 0 6.228-2.765 6.228-6.175 0-3.41-2.788-6.174-6.228-6.174"/><path fill="#0B9ED9" d="M1.806 10.028a3.268 3.268 0 000 4.65l10.655 10.563 1.905-1.888-1.668-2.765 8.07-8 2.788 1.654 1.905-1.889L14.806 1.791a3.336 3.336 0 00-4.691 0l-8.309 8.237z"/><path fill="#FFF" d="M14.49 1.798a3.362 3.362 0 00-4.726 0l-8.368 8.296a3.293 3.293 0 000 4.685l.536.531L15.026 2.33l-.536-.532z"/><path fill="#FF4597" d="M12.522 9.931a2.494 2.494 0 012.504 2.483c0 1.37-1.121 2.483-2.504 2.483s-2.505-1.112-2.505-2.483S11.14 9.93 12.522 9.93"/><path fill="#021859" d="M11.274 11.59a1.77 1.77 0 011.248-.51c.452 0 .903.17 1.247.51a1.74 1.74 0 010 2.474 1.777 1.777 0 01-2.495 0 1.741 1.741 0 010-2.473m3.61 3.578a3.296 3.296 0 000-4.683 3.363 3.363 0 00-4.724 0 3.294 3.294 0 000 4.683 3.34 3.34 0 002.362.969c.855 0 1.71-.323 2.362-.969m26.953 26.308c-.25.247-.58.383-.933.383-.353 0-.684-.136-.933-.383a1.3 1.3 0 010-1.85c.249-.247.58-.383.933-.383.352 0 .684.136.933.383.514.51.514 1.34 0 1.85m-.933-3.822c-.78 0-1.515.301-2.067.848a2.882 2.882 0 000 4.097 2.917 2.917 0 002.067.848c.78 0 1.514-.301 2.066-.848a2.865 2.865 0 00.856-2.048c0-.774-.304-1.501-.856-2.048a2.913 2.913 0 00-2.066-.849"/><path fill="#021859" d="M44.763 44.443a5.447 5.447 0 01-3.859 1.584 5.446 5.446 0 01-3.858-1.584 5.384 5.384 0 01-.94-6.401L16.202 18.314l2.204-2.186 2.954 2.929c.03.046.065.09.106.13L38.3 35.865a5.496 5.496 0 012.605-.655c1.398 0 2.795.527 3.859 1.582a5.382 5.382 0 010 7.65zM12.141 20.134a.777.777 0 00-.12.952l1.36 2.254-.923.915-8.968-8.892L15.348 3.446l9.05 8.972-.923.915-2.273-1.348a.793.793 0 00-.96.118l-8.101 8.031zm-9.823-5.932a2.499 2.499 0 01-.745-1.784c0-.674.264-1.307.745-1.784l8.341-8.27a2.54 2.54 0 011.8-.738c.669 0 1.299.255 1.777.718L2.378 14.261l-.06-.06zM45.875 35.69c-1.946-1.93-4.757-2.487-7.205-1.678L23.063 18.565a.88.88 0 00-.103-.127l-3.443-3.412 1.403-1.39 2.274 1.347a.79.79 0 00.96-.118l1.912-1.896a.772.772 0 000-1.102L15.37 1.262A4.114 4.114 0 0012.458.067c-1.1 0-2.133.424-2.91 1.195l-8.342 8.27C.428 10.302 0 11.328 0 12.418s.428 2.115 1.206 2.886l10.696 10.604a.789.789 0 001.112 0l1.913-1.896a.774.774 0 00.119-.951l-1.36-2.254 1.403-1.39 19.153 18.985a6.931 6.931 0 001.692 7.143 7.014 7.014 0 004.97 2.041 7.02 7.02 0 004.971-2.04 6.936 6.936 0 000-9.856z"/></g></svg>