<svg xmlns="http://www.w3.org/2000/svg" width="32" height="32">
	<g fill="none" fill-rule="evenodd">
		<path fill="#021859" d="M1.601 17.223v5.75c.016.185.165.33.35.34h1.561a.443.443 0 01.413.256c.602 1.287 1.614 2.452 2.946 3.396a.45.45 0 01.178.383v3.395c0 .173.179.316.35.316h3.114c.172 0 .272-.143.272-.316v-.742a2.098 2.098 0 012.063-2.072h4.496c1.116 0 2.003.95 2.003 2.072v.742c.01.178.156.316.332.316h3.126a.298.298 0 00.278-.316v-3.918a.482.482 0 01.18-.361c1.882-1.568 2.936-3.586 2.954-5.688-.041-4.785-3.91-8.643-8.67-8.649-1.363-.007-3.465-.013-3.674 0a.47.47 0 01-.445-.257 4.882 4.882 0 00-.918-1.245 4.935 4.935 0 00-2.86-1.423 5.768 5.768 0 01-.232 3.763.464.464 0 01-.25.25c-1.938.815-3.511 2.02-4.55 3.491a.458.458 0 01-.38.191H1.95c-.172 0-.35.153-.35.326zm.35 7.029a1.307 1.307 0 01-1.284-1.28v-5.75c0-.69.598-1.263 1.284-1.263H4c1.104-1.487 2.695-2.69 4.625-3.535a4.814 4.814 0 00.029-3.274l-.107-.305a.469.469 0 01.44-.627 6.012 6.012 0 015.133 2.957 406.18 406.18 0 013.43-.003c5.137 0 9.346 4.082 9.59 9.168h.323a1.49 1.49 0 011.458 1.479v.482c0 .28.207.543.485.543h1.422a.47.47 0 010 .939h-1.422c-.793 0-1.42-.685-1.42-1.482v-.482a.551.551 0 00-.523-.54h-.335c-.17 2.19-1.243 4.168-3.11 5.764v3.71a1.236 1.236 0 01-1.225 1.245h-3.114a1.27 1.27 0 01-1.266-1.255v-.742c0-.604-.468-1.133-1.068-1.133h-4.498a1.16 1.16 0 00-1.129 1.133v.742c0 .69-.52 1.255-1.206 1.255H7.4c-.687 0-1.285-.564-1.285-1.255v-3.155c-1.245-.946-2.244-2.084-2.893-3.336h-1.27zm5.713-4.174a1.795 1.795 0 01-1.79-1.8.468.468 0 11.934.001c0 .475.383.86.856.86s.856-.385.856-.86c0-.26.209-.47.467-.47s.467.21.467.47a1.798 1.798 0 01-1.79 1.8zm7.558-4.902a.469.469 0 010-.939h4.152c.258 0 .467.21.467.47 0 .259-.209.47-.467.47h-4.152z" />
		<path fill="#FF4597" d="M17.827.667a4.492 4.492 0 11.001 8.985 4.492 4.492 0 01-.002-8.985" />
		<path fill="#021859" d="M17.557 1.017c2.321 0 4.203 1.892 4.203 4.225 0 2.333-1.882 4.225-4.203 4.225-2.321 0-4.203-1.892-4.203-4.225.003-2.332 1.883-4.222 4.203-4.225m0 9.389c2.837 0 5.137-2.312 5.137-5.164S20.394.078 17.557.078c-2.837 0-5.137 2.312-5.137 5.164.003 2.85 2.301 5.16 5.137 5.164" />
		<path fill="#021859" d="M19.686 6.28c.048 0 .089.016.124.048a.137.137 0 01.044.12 1.49 1.49 0 01-.272.784c-.171.25-.423.455-.756.612-.334.157-.738.236-1.212.236-.683 0-1.208-.177-1.576-.532-.368-.355-.576-.844-.624-1.468h-.52a.179.179 0 01-.184-.184V5.64a.179.179 0 01.184-.184h.512v-.504h-.512a.179.179 0 01-.184-.184v-.264a.179.179 0 01.184-.184h.52c.053-.624.264-1.113.632-1.468s.89-.532 1.568-.532c.474 0 .878.079 1.212.236.333.157.585.36.756.608.17.248.261.51.272.788v.016a.137.137 0 01-.052.108.174.174 0 01-.116.044h-.408c-.054 0-.095-.013-.124-.04a.319.319 0 01-.076-.144c-.091-.341-.259-.587-.504-.736-.246-.15-.566-.224-.96-.224-.864 0-1.339.448-1.424 1.344h1.6a.179.179 0 01.184.184v.264a.179.179 0 01-.184.184h-1.616v.504h1.616c.058 0 .104.016.136.048.032.032.048.077.048.136v.256c0 .053-.016.097-.048.132s-.078.052-.136.052h-1.6c.085.89.56 1.336 1.424 1.336.394 0 .714-.075.96-.224.245-.15.413-.392.504-.728a.313.313 0 01.076-.144c.029-.027.07-.04.124-.04h.408z" />
	</g>
</svg>


