<svg xmlns="http://www.w3.org/2000/svg" width="32" height="32"><g fill="none" transform="translate(0 4.667)"><path fill="#0433BF" d="M5.027 2.685A1.315 1.315 0 015.011.903a1.309 1.309 0 011.778-.15l10.912 8.75c.482.388.538 1.101.122 1.559l-1.469 1.615a1.072 1.072 0 01-1.561.026L5.027 2.685z"/><path fill="#0B9ED9" d="M15.27 9.176a.213.213 0 00.026-.35L6.185 1.517a.341.341 0 00-.204-.069h-.018a.332.332 0 00-.231.11.34.34 0 000 .452l8.07 8.279a.213.213 0 00.33-.03c.293-.44.683-.813 1.138-1.084z"/><path fill="#BB3F75" d="M14.519 16.553v-4.346c0-1.407 1.144-2.55 2.55-2.55s2.55 1.143 2.55 2.55v4.346h-5.1z"/><path fill="#FF4597" d="M9.263 15.305l-.044-.102a2.359 2.359 0 00-2.209-1.53H4.42c-.983 0-1.863.61-2.208 1.53l-.044.102H.908a.45.45 0 00-.45.45v2.92a.794.794 0 00.793.83h28.762c.824 0 1.492-.668 1.492-1.492v-2.708H9.263z"/><path fill="#FF4597" d="M30.013 19.505c.824 0 1.53-.668 1.53-1.492V9.962c0-.302-.12-.592-.331-.807l-3.27-3.31a1.147 1.147 0 00-.816-.34h-5.888a1.07 1.07 0 00-1.07 1.07v12.93h9.845z"/><path fill="#BB3F75" d="M31.212 9.155l-3.27-3.31a1.147 1.147 0 00-.816-.34h-2.763c.307 0 .6.122.817.34l3.269 3.31c.212.215.331.505.331.807v8.05c0 .825-.705 1.493-1.53 1.493h2.763c.824 0 1.53-.668 1.53-1.492V9.962c0-.302-.12-.592-.331-.807z"/><path fill="#0B9ED9" d="M22.152 12.262v-4.35c0-.262.212-.475.474-.475h3.943c.127 0 .248.051.337.141l2.516 2.547a.476.476 0 01.136.333v1.804a.474.474 0 01-.474.474h-6.458a.474.474 0 01-.474-.474z"/><circle cx="26.154" cy="19.165" r="3.111" fill="#0433BF"/><circle cx="5.685" cy="19.165" r="3.111" fill="#0433BF"/><path fill="#021859" fill-opacity=".7" d="M5.685 22.276a3.111 3.111 0 002.201-5.311l-4.401 4.4a3.1 3.1 0 002.2.911z"/><circle cx="5.685" cy="19.165" r="1.434" fill="#E1EFFB"/><circle cx="17.069" cy="12.153" r="1" fill="#FF4597"/><path fill="#021859" fill-opacity=".7" d="M26.155 22.276a3.11 3.11 0 002.2-5.311l-4.4 4.4a3.1 3.1 0 002.2.911z"/><circle cx="26.154" cy="19.165" r="1.434" fill="#E1EFFB"/><path fill="#BB3F75" d="M18.655 18.346H10.18a.456.456 0 01-.455-.456v-.846c0-.251.204-.455.456-.455h8.474c.252 0 .456.204.456.455v.846a.456.456 0 01-.456.456z"/><path fill="#021859" d="M27.231 7.257l2.516 2.547a.924.924 0 01.268.654v1.804a.93.93 0 01-.93.93h-6.46a.93.93 0 01-.93-.93v-4.35c0-.514.417-.932.93-.932h3.944c.247 0 .488.101.662.277zm1.87 5.005v-1.804a.017.017 0 00-.005-.012l-2.515-2.547a.018.018 0 00-.012-.005h-3.943a.017.017 0 00-.017.017v4.35c0 .01.007.018.017.018h6.458c.01 0 .017-.008.017-.017zm-5.785 1.487a.458.458 0 010 .915h-1.164a.457.457 0 110-.915h1.164zm-6.247-3.005c.777 0 1.409.632 1.409 1.409s-.632 1.409-1.41 1.409c-.776 0-1.408-.632-1.408-1.409s.632-1.409 1.409-1.409zm0 1.904a.495.495 0 10-.001-.991.495.495 0 00.001.991zm14.468-3.814c.299.302.463.703.463 1.128v8.05c0 .522-.211 1.014-.595 1.385a1.999 1.999 0 01-1.392.565h-.38a3.575 3.575 0 01-3.478 2.771 3.574 3.574 0 01-3.478-2.77H9.162a3.573 3.573 0 01-3.477 2.77 3.573 3.573 0 01-3.477-2.77h-.956c-.618 0-1.15-.461-1.238-1.072l-.001-.01A1.572 1.572 0 010 18.675v-2.92c0-.5.407-.907.907-.907h.959a2.83 2.83 0 012.554-1.633h2.59a2.83 2.83 0 012.555 1.633h4.497v-2.641A3.01 3.01 0 0117.069 9.2a3.01 3.01 0 012.641 1.57V6.576a1.53 1.53 0 011.528-1.528h5.887c.427 0 .843.174 1.142.477l3.27 3.31zm-16.561 3.373v2.64h4.186v-2.64c0-1.154-.94-2.093-2.093-2.093a2.095 2.095 0 00-2.093 2.093zm-6.653 7.247a2.657 2.657 0 00-2.638-2.944 2.657 2.657 0 00-2.638 2.945 2.658 2.658 0 002.638 2.364 2.657 2.657 0 002.638-2.365zm11.387-.406v-3.286H9.263a.459.459 0 01-.42-.275l-.044-.102-.008-.021a1.91 1.91 0 00-1.78-1.234H4.42c-.789 0-1.504.496-1.78 1.234l-.01.021-.043.102a.459.459 0 01-.42.275H.914v2.914c0 .03.002.059.005.088a.34.34 0 00.333.284h.866l.002-.031.005-.094.007-.086.01-.092.01-.085.015-.09.015-.085.018-.088.02-.083.022-.087.023-.082.027-.084.027-.081.03-.082.032-.08.033-.079.036-.078.037-.077.04-.077c.012-.025.026-.05.04-.075.013-.025.028-.05.042-.074l.044-.072a1.13 1.13 0 01.047-.073l.046-.07.05-.07.05-.067.054-.068.052-.065.057-.065.055-.062.06-.063.058-.059.063-.06.06-.056.067-.057.063-.053c.022-.019.046-.037.069-.055l.065-.05.072-.05.067-.047.075-.048c.023-.015.046-.03.069-.043.025-.016.051-.03.077-.045L4 16.02l.08-.04c.025-.013.048-.026.073-.037l.083-.038.074-.032.085-.034.075-.03.089-.03c.025-.008.05-.017.076-.024.03-.01.06-.018.09-.026l.077-.022.095-.022.076-.017c.033-.007.067-.012.1-.018l.074-.013.106-.013.07-.01.12-.008.06-.005a3.63 3.63 0 01.363 0l.06.005.12.009.07.008.106.014.074.013c.033.006.067.011.1.018l.075.017.096.022.075.021.093.027c.025.007.05.016.074.024l.09.03.074.029c.029.011.058.022.087.035l.072.031c.028.013.057.025.085.039l.07.035.083.042.068.039.08.046c.023.013.045.028.067.042.026.016.052.032.077.05l.065.044.074.053.063.048.072.056.06.05.069.06.057.054c.023.02.045.042.066.063l.055.056.063.066.053.059.06.068.05.062.055.07.048.065.052.073.045.067.048.076.042.069.045.078.038.071.041.08.036.074.037.082.032.075.033.084c.01.026.02.052.028.078l.03.085.024.08c.01.029.017.057.025.087l.021.081c.008.03.014.059.02.088l.018.084.016.09.014.085.011.09.01.087.007.091.005.089.001.033h10.46zm9.083.408a2.656 2.656 0 00-2.638-2.945 2.656 2.656 0 00-2.639 2.943 2.659 2.659 0 002.639 2.365 2.658 2.658 0 002.638-2.363zm2.293-1.443V9.962a.684.684 0 00-.2-.486l-3.269-3.31a.697.697 0 00-.491-.205h-5.888a.615.615 0 00-.614.614v12.473h1.964l.002-.033.005-.089.007-.091.01-.087.011-.09.013-.086.016-.09.018-.083.02-.088.021-.081.025-.087.025-.08.03-.085c.008-.026.018-.052.028-.078l.033-.084c.01-.025.02-.05.032-.075l.037-.082.035-.074.041-.08.039-.071.045-.078.041-.069.049-.076.044-.066.053-.074.047-.064.056-.071.05-.062.06-.068.052-.06.063-.065.055-.056.066-.063.058-.053.069-.06.06-.05c.023-.02.048-.038.072-.057l.062-.048.075-.053.064-.045.078-.05.066-.041.08-.046.069-.039.082-.042.07-.035.085-.039.072-.031.088-.035c.024-.01.048-.02.073-.028l.09-.03a.807.807 0 01.074-.025c.03-.01.062-.018.093-.027l.075-.02c.032-.009.064-.016.096-.023l.075-.017c.033-.007.067-.012.1-.018.025-.004.05-.01.074-.013l.107-.014.07-.008.12-.01c.02 0 .04-.003.06-.004a3.603 3.603 0 01.362 0l.06.005.12.009.07.008.106.014.074.013c.033.006.067.011.1.018l.075.017.096.022.075.021.093.027c.025.007.05.016.074.024l.09.03.073.029c.03.011.059.022.088.035l.072.031c.028.013.057.025.085.039l.07.035.082.042.07.039.079.046.067.042.077.05.065.044.074.053.063.048.071.056.06.05.07.06.057.054.066.063.055.056.063.066.053.059.059.068.05.062.056.07.047.065.053.073.044.067.049.076.042.069.045.078.038.071.041.08.035.074.038.082.032.075.033.084c.01.026.02.052.028.078l.03.085.024.08.025.087.021.081.02.088.018.084.016.09c.005.028.01.056.013.085l.012.09.01.087.006.091.005.089.002.033h.292c.582 0 1.073-.474 1.073-1.035zm-4.931-.74a1.892 1.892 0 11-1.892 1.892c0-1.043.849-1.891 1.892-1.891zm0 2.869a.979.979 0 00.977-.977.977.977 0 10-.977.977zM4.348 17.828a1.892 1.892 0 012.674 2.674c-.368.369-.853.553-1.337.553s-.969-.184-1.337-.553a1.892 1.892 0 010-2.674zm2.028 2.028a.98.98 0 000-1.382.974.974 0 00-1.381 0 .977.977 0 001.38 1.382zm12.28-3.724c.502 0 .912.409.912.912v.846c0 .503-.41.913-.913.913h-4.191a.457.457 0 110-.914h4.191l-.002-.845-8.472.002.001.844 1.208-.001a.457.457 0 110 .914h-1.21a.914.914 0 01-.912-.913v-.846c0-.503.41-.912.913-.912h8.474zm-1.869-7.946a.455.455 0 01.07.642.455.455 0 01-.642.07L6.503 1.11a.849.849 0 00-1.154.1.856.856 0 00.008 1.159l8.434 8.652a.457.457 0 11-.654.638L6.142 4.484v3.759a.921.921 0 01-.698.9 1.004 1.004 0 00-.761 1.04c.03.494.442.906.937.937a1.002 1.002 0 001.069-1.002.457.457 0 11.914 0c0 .527-.22 1.036-.605 1.398-.36.338-.821.52-1.311.52-.041 0-.082-.002-.124-.004a1.917 1.917 0 01-1.792-1.793 1.917 1.917 0 011.455-1.984c-.001 0 .002-.005.002-.012V3.546L4.7 3.004 4.696 3A1.775 1.775 0 014.672.595 1.768 1.768 0 017.071.393l9.716 7.793z"/></g></svg>