<svg xmlns="http://www.w3.org/2000/svg" xmlns:xlink="http://www.w3.org/1999/xlink" viewBox="0 0 200 200"><defs><style>.cls-1{fill:url(#Degradado_sin_nombre_5);}.cls-2{fill:#343434;}.cls-3{fill:url(#Degradado_sin_nombre_2);}.cls-4{fill:url(#Degradado_sin_nombre_3);}.cls-5{fill:#010101;}.cls-6{fill:url(#Degradado_sin_nombre_6);}.cls-7{fill:url(#Degradado_sin_nombre_6-2);}.cls-8{fill:url(#Degradado_sin_nombre_6-3);}.cls-9{fill:url(#Degradado_sin_nombre_11);}.cls-10{fill:url(#Degradado_sin_nombre_8);}.cls-11{fill:url(#Degradado_sin_nombre_10);}.cls-12{fill:url(#Degradado_sin_nombre_10-2);}.cls-13{fill:url(#Degradado_sin_nombre_11-2);}.cls-14{fill:url(#Degradado_sin_nombre_17);}.cls-15{fill:#c3d8e8;}.cls-16{fill:url(#Degradado_sin_nombre_17-2);}.cls-17{fill:#13404f;}.cls-18{fill:url(#Degradado_sin_nombre_14);}.cls-19{fill:url(#Degradado_sin_nombre_15);}.cls-20{fill:url(#Degradado_sin_nombre_16);}.cls-21{fill:url(#Degradado_sin_nombre_17-3);}.cls-22{fill:none;}</style><linearGradient id="Degradado_sin_nombre_5" x1="35.71" y1="164.13" x2="154.71" y2="49.14" gradientTransform="matrix(1, 0, 0, -1, 0, 202)" gradientUnits="userSpaceOnUse"><stop offset="0" stop-color="#e0f2fd"/><stop offset="0.1" stop-color="#d7ebf6"/><stop offset="0.27" stop-color="#bfd0d9"/><stop offset="0.49" stop-color="#98a5ad"/><stop offset="0.75" stop-color="#656c6f"/><stop offset="1" stop-color="#2b2c2c"/></linearGradient><radialGradient id="Degradado_sin_nombre_2" cx="43.22" cy="154.37" r="79.68" gradientTransform="matrix(1, 0, 0, -1, 0, 202)" gradientUnits="userSpaceOnUse"><stop offset="0" stop-color="#fff"/><stop offset="0.31" stop-color="#a8a8a8"/><stop offset="0.65" stop-color="#50504f"/><stop offset="0.89" stop-color="#161617"/><stop offset="1" stop-color="#010101"/></radialGradient><linearGradient id="Degradado_sin_nombre_3" x1="792.03" y1="-829.74" x2="867.82" y2="-902.97" gradientTransform="matrix(-1, 0, 0, 1, 932.98, 969.31)" gradientUnits="userSpaceOnUse"><stop offset="0" stop-color="#e0f2fd"/><stop offset="0.09" stop-color="#d7ebf6"/><stop offset="0.23" stop-color="#bed0d9"/><stop offset="0.42" stop-color="#96a4ac"/><stop offset="0.65" stop-color="#60696e"/><stop offset="0.91" stop-color="#1b1e1f"/><stop offset="1" stop-color="#010101"/></linearGradient><radialGradient id="Degradado_sin_nombre_6" cx="28.91" cy="162.49" r="191.46" gradientTransform="matrix(1, 0, 0, -1, 0, 202)" gradientUnits="userSpaceOnUse"><stop offset="0" stop-color="#fff"/><stop offset="0.31" stop-color="#fefefe"/><stop offset="0.45" stop-color="#f6f6f6"/><stop offset="0.56" stop-color="#e9e9e9"/><stop offset="0.65" stop-color="#d7d8d8"/><stop offset="0.72" stop-color="#bfbebf"/><stop offset="0.79" stop-color="#a2a2a1"/><stop offset="0.86" stop-color="#808181"/><stop offset="0.92" stop-color="#585858"/><stop offset="0.97" stop-color="#2b2c2c"/><stop offset="1" stop-color="#141414"/></radialGradient><radialGradient id="Degradado_sin_nombre_6-2" cx="28.9" cy="162.49" r="191.48" xlink:href="#Degradado_sin_nombre_6"/><radialGradient id="Degradado_sin_nombre_6-3" cx="28.89" cy="162.54" r="191.62" xlink:href="#Degradado_sin_nombre_6"/><radialGradient id="Degradado_sin_nombre_11" cx="63.2" cy="135.94" r="51.64" gradientTransform="matrix(1, 0, 0, -1, 0, 202)" gradientUnits="userSpaceOnUse"><stop offset="0" stop-color="#e7e6e6"/><stop offset="0.1" stop-color="#d6d7d7"/><stop offset="0.31" stop-color="#aeadad"/><stop offset="0.59" stop-color="#6d6d6d"/><stop offset="0.93" stop-color="#121212"/><stop offset="1" stop-color="#010101"/></radialGradient><radialGradient id="Degradado_sin_nombre_8" cx="77.32" cy="129" r="75.1" gradientTransform="matrix(1, 0, 0, -1, 0, 202)" gradientUnits="userSpaceOnUse"><stop offset="0" stop-color="#fff"/><stop offset="0.34" stop-color="#fefefe"/><stop offset="0.48" stop-color="#f6f6f6"/><stop offset="0.58" stop-color="#eaeaea"/><stop offset="0.67" stop-color="#d8d8d8"/><stop offset="0.74" stop-color="#c3c2c2"/><stop offset="0.8" stop-color="#a6a6a6"/><stop offset="0.86" stop-color="#858585"/><stop offset="0.91" stop-color="#60605f"/><stop offset="0.95" stop-color="#404040"/><stop offset="0.96" stop-color="#404040"/><stop offset="1" stop-color="#404040"/><stop offset="1" stop-color="#010101"/></radialGradient><radialGradient id="Degradado_sin_nombre_10" cx="55.27" cy="157.47" r="133.01" gradientTransform="matrix(1, 0, 0, -1, 0, 202)" gradientUnits="userSpaceOnUse"><stop offset="0.17" stop-color="#fff"/><stop offset="0.2" stop-color="#e0eff7"/><stop offset="0.24" stop-color="#b3d9eb"/><stop offset="0.29" stop-color="#8cc5e2"/><stop offset="0.34" stop-color="#6cb5da"/><stop offset="0.38" stop-color="#53aad5"/><stop offset="0.44" stop-color="#43a0d0"/><stop offset="0.49" stop-color="#389bcd"/><stop offset="0.56" stop-color="#39c"/><stop offset="0.61" stop-color="#3496c8"/><stop offset="0.66" stop-color="#338fbc"/><stop offset="0.7" stop-color="#3480a9"/><stop offset="0.75" stop-color="#316e8d"/><stop offset="0.8" stop-color="#2e5569"/><stop offset="0.85" stop-color="#2a373d"/><stop offset="0.87" stop-color="#2a292a"/></radialGradient><radialGradient id="Degradado_sin_nombre_10-2" cx="55.27" cy="157.47" r="133.01" xlink:href="#Degradado_sin_nombre_10"/><radialGradient id="Degradado_sin_nombre_11-2" cx="63.9" cy="135.29" r="50.65" xlink:href="#Degradado_sin_nombre_11"/><linearGradient id="Degradado_sin_nombre_17" x1="93.36" y1="147.94" x2="142.76" y2="100.21" gradientTransform="matrix(1, 0, 0, -1, 0, 202)" gradientUnits="userSpaceOnUse"><stop offset="0" stop-color="#f0f3fb"/><stop offset="0.11" stop-color="#ebeffa"/><stop offset="0.25" stop-color="#dcdfea"/><stop offset="0.4" stop-color="#c4c8d0"/><stop offset="0.57" stop-color="#a3a4ac"/><stop offset="0.75" stop-color="#76777c"/><stop offset="0.93" stop-color="#424343"/><stop offset="1" stop-color="#2b2c2c"/></linearGradient><linearGradient id="Degradado_sin_nombre_17-2" x1="53.26" y1="107.64" x2="102.66" y2="59.91" xlink:href="#Degradado_sin_nombre_17"/><linearGradient id="Degradado_sin_nombre_14" x1="77.16" y1="124.66" x2="102.78" y2="99.91" gradientTransform="matrix(1, 0, 0, -1, 0, 202)" gradientUnits="userSpaceOnUse"><stop offset="0" stop-color="#c3d8e8"/><stop offset="0.13" stop-color="#bbcfe0"/><stop offset="0.34" stop-color="#a5bacd"/><stop offset="0.6" stop-color="#8098ac"/><stop offset="0.89" stop-color="#4f6a80"/><stop offset="1" stop-color="#3b576e"/></linearGradient><linearGradient id="Degradado_sin_nombre_15" x1="64.33" y1="118.6" x2="113.23" y2="71.34" gradientTransform="matrix(1, 0, 0, -1, 0, 202)" gradientUnits="userSpaceOnUse"><stop offset="0" stop-color="#f0f3fb"/><stop offset="0.1" stop-color="#e8ebf7"/><stop offset="0.26" stop-color="#d1d4dd"/><stop offset="0.46" stop-color="#acafb6"/><stop offset="0.7" stop-color="#78797d"/><stop offset="0.96" stop-color="#363637"/><stop offset="1" stop-color="#2b2c2c"/></linearGradient><linearGradient id="Degradado_sin_nombre_16" x1="100.38" y1="101.07" x2="117.53" y2="84.49" gradientTransform="matrix(1, 0, 0, -1, 0, 202)" gradientUnits="userSpaceOnUse"><stop offset="0" stop-color="#d9def0"/><stop offset="0.12" stop-color="#d5daed"/><stop offset="0.26" stop-color="#c8cfe2"/><stop offset="0.41" stop-color="#b0bcd1"/><stop offset="0.57" stop-color="#91a1b8"/><stop offset="0.72" stop-color="#678099"/><stop offset="0.88" stop-color="#355775"/><stop offset="0.97" stop-color="#173d5d"/></linearGradient><linearGradient id="Degradado_sin_nombre_17-3" x1="82.83" y1="136.53" x2="131.68" y2="89.33" xlink:href="#Degradado_sin_nombre_17"/></defs><g id="Capa_2" data-name="Capa 2"><g id="Rectangle"><path class="cls-1" d="M100,43.92A56.08,56.08,0,1,0,156.08,100,56.08,56.08,0,0,0,100,43.92Zm0,109.36A53.28,53.28,0,1,1,153.28,100,53.27,53.27,0,0,1,100,153.28Z"/><path class="cls-2" d="M153.68,100A53.68,53.68,0,1,1,100,46.32,53.68,53.68,0,0,1,153.68,100Z"/><path class="cls-3" d="M153.28,100A53.28,53.28,0,1,1,100,46.72,53.27,53.27,0,0,1,153.28,100Z"/><path class="cls-4" d="M135.72,100A35.72,35.72,0,1,1,100,64.28,35.72,35.72,0,0,1,135.72,100Z"/><polygon class="cls-5" points="101.43 63.31 105.14 53.48 105.14 63.31 107.96 63.31 107.96 49.23 103.72 49.23 99.87 59.31 99.91 59.31 96.06 49.23 91.82 49.23 91.82 63.31 94.64 63.31 94.64 53.48 98.35 63.31 101.43 63.31"/><polygon class="cls-5" points="140.11 69.63 135.29 76.65 142.85 72.93 144.91 75.39 133 81.37 130.6 78.46 135.21 71.5 135.18 71.47 127.51 74.75 125.08 71.86 133.1 61.23 135.15 63.69 130.13 70.46 137.91 66.99 140.11 69.63"/><path class="cls-2" d="M75.06,66.94a3.6,3.6,0,0,0-4.53-.41,3.22,3.22,0,0,0,0-2.11A5,5,0,0,0,69,62.48c-1.89-1.59-3.88-.23-5.31,1.46l-6.87,8.19L67.64,81.2l7.24-8.64c1.66-2,1.92-3.93.18-5.62Zm-14,4L65.21,66a1.67,1.67,0,0,1,2.25,0,1.47,1.47,0,0,1,.25,2.16L63.63,73Zm11.39.82-4.31,5.13-2.69-2.27,4.34-5.17a1.77,1.77,0,0,1,2.66,2.31Z"/><polygon class="cls-6" points="101.46 62.77 105.17 52.94 105.17 62.77 107.99 62.77 107.99 48.69 103.75 48.69 99.9 58.77 99.94 58.77 96.09 48.69 91.85 48.69 91.85 62.77 94.67 62.77 94.67 52.94 98.38 62.77 101.46 62.77"/><polygon class="cls-7" points="140.13 68.69 135.32 75.71 142.88 71.98 144.93 74.45 133.03 80.42 130.63 77.51 135.24 70.55 135.21 70.52 127.54 73.81 125.11 70.91 133.13 60.28 135.18 62.75 130.16 69.51 137.93 66.05 140.13 68.69"/><path class="cls-8" d="M74.55,66.66A3.59,3.59,0,0,0,70,66.25a3.06,3.06,0,0,0,0-2.1,4.9,4.9,0,0,0-1.54-2c-1.89-1.58-3.88-.23-5.3,1.47l-6.87,8.19,10.8,9.06,7.25-8.64c1.65-2,1.91-3.93.17-5.62Zm-14,4,4.13-4.92a1.69,1.69,0,0,1,2.26,0,1.49,1.49,0,0,1,.25,2.16l-4.08,4.87Zm11.4.82-4.31,5.13L65,74.29l4.34-5.17A1.77,1.77,0,0,1,72,71.43Z"/><path class="cls-9" d="M65.47,100A34.53,34.53,0,1,1,100,134.53,34.53,34.53,0,0,1,65.47,100Z"/><path class="cls-10" d="M66.46,100A33.54,33.54,0,1,1,100,133.54,33.54,33.54,0,0,1,66.46,100Z"/><path class="cls-11" d="M66.41,100H100V66.41A33.59,33.59,0,0,0,66.41,100Z"/><path class="cls-12" d="M100,100v33.59A33.59,33.59,0,0,0,133.59,100Z"/><polygon class="cls-13" points="133.87 99.4 100.6 99.4 100.6 66.13 99.4 66.13 99.4 99.4 66.13 99.4 66.13 100.59 99.4 100.59 99.4 133.87 100.6 133.87 100.6 100.59 133.87 100.59 133.87 99.4"/><path class="cls-14" d="M100.6,67.07A32.94,32.94,0,0,1,132.93,99.4h.59A33.52,33.52,0,0,0,100.6,66.48v.59Z"/><path class="cls-15" d="M67,99.4A33,33,0,0,1,99.39,67v-.59a33.56,33.56,0,0,0-33,33Z"/><path class="cls-16" d="M99.4,132.93a32.94,32.94,0,0,1-32.33-32.34h-.59A33.52,33.52,0,0,0,99.4,133.52v-.59Z"/><path class="cls-17" d="M132.93,100.59a32.94,32.94,0,0,1-32.33,32.34v.59a33.52,33.52,0,0,0,32.92-32.93Z"/><polygon class="cls-18" points="98.77 66.43 98.77 98.75 66.45 98.75 66.45 99.39 98.77 99.39 99.4 99.39 99.4 98.75 99.4 66.43 98.77 66.43"/><polygon class="cls-19" points="98.71 133.21 98.71 101.28 66.71 101.28 66.71 100.65 98.71 100.65 99.34 100.65 99.34 101.28 99.34 133.21 98.71 133.21"/><polygon class="cls-20" points="101.28 133.21 101.28 101.28 133.21 101.28 133.21 100.65 101.28 100.65 100.65 100.65 100.65 101.28 100.65 133.21 101.28 133.21"/><polygon class="cls-21" points="101.28 66.71 101.28 98.65 133.21 98.65 133.21 99.28 101.28 99.28 100.65 99.28 100.65 98.65 100.65 66.71 101.28 66.71"/><rect class="cls-22" width="200" height="200"/></g></g></svg>