<?xml version="1.0" encoding="utf-8"?>
<!-- Generator: Adobe Illustrator 24.1.0, SVG Export Plug-In . SVG Version: 6.00 Build 0)  -->
<svg version="1.1" id="Capa_1" xmlns="http://www.w3.org/2000/svg" xmlns:xlink="http://www.w3.org/1999/xlink" x="0px" y="0px"
	 viewBox="0 0 512 512" style="enable-background:new 0 0 512 512;" xml:space="preserve">
<path d="M461.7,58.2h-219c-1.5-0.1-3,0.4-4.2,1.3L46.8,224.8c-1.4,1.1-2.3,2.9-2.3,4.7v52.3c0.1,3.6,3,6.4,6.6,6.4h410.6
	c3.6,0,6.5-2.8,6.7-6.4V64.1C468.4,60.6,465.2,58.2,461.7,58.2z M455.7,275.5H57.2v-43.1L245,71h210.6V275.5z"/>
<path d="M430.2,224.2c3.5,0,6.4-2.8,6.4-6.4V110c0-3.5-2.8-6.4-6.4-6.4c-3.5,0-6.4,2.8-6.4,6.4v107.8
	C423.9,221.4,426.7,224.2,430.2,224.2z"/>
<path d="M430.2,96.6c3.5,0,6.4-2.8,6.4-6.4V85c0-3.5-2.8-6.4-6.4-6.4c-3.5,0-6.4,2.8-6.4,6.4v5.2C423.9,93.7,426.7,96.6,430.2,96.6z
	"/>
<path d="M473.9,12.7H240.2c-8.9,0.1-17.5,3.3-24.2,9.2L12.7,198.5C4.6,205.6,0,215.7,0,226.4v88.2l23.6,144.2
	C27.4,481.5,47,498.1,70,498h393.7c25.9,0,47-21.4,47-47.3V49.8C510.8,29.4,494.3,12.8,473.9,12.7z M498,450.7
	c0,19-15.3,34.5-34.3,34.6H70c-16.8,0-31.1-12.1-33.8-28.7L12.7,313.8v-87.4c0-7,3-13.7,8.3-18.2L224.4,31.5c4.4-3.9,10-6,15.8-6.1
	h233.6c13.4,0.2,24.2,11.1,24.2,24.5V450.7z"/>
<path d="M443.3,306.2h-75.5c-12,0-21.7,9.7-21.7,21.7s9.7,21.7,21.7,21.7h75.5c12,0,21.7-9.7,21.7-21.7S455.3,306.2,443.3,306.2z
	 M443.3,336.9h-75.5c-5,0-9-4-9-9s4-9,9-9h75.5c5,0,9,4,9,9S448.3,336.9,443.3,336.9z"/>
</svg>
