<svg xmlns="http://www.w3.org/2000/svg" xmlns:xlink="http://www.w3.org/1999/xlink" viewBox="0 0 32 29.33"><defs><style>.cls-1{fill:none;}.cls-2{clip-path:url(#clip-path);}</style><clipPath id="clip-path" transform="translate(0 -1.33)"><rect class="cls-1" width="32" height="32"/></clipPath></defs><g id="Capa_2" data-name="Capa 2"><g id="Capa_1-2" data-name="Capa 1"><g class="cls-2"><path d="M27.84,1.33A4.16,4.16,0,0,1,32,5.49V28a2.68,2.68,0,0,1-2.67,2.67H6.73a5.62,5.62,0,0,1-4-1.66,5.72,5.72,0,0,1-1.62-3.28L0,17.13a8.69,8.69,0,0,1,2.18-5.85l6.26-7a8.69,8.69,0,0,1,6.48-2.91Zm0,1.34H14.93A7.3,7.3,0,0,0,9.45,5.13l-6.26,7A7.29,7.29,0,0,0,1.33,17l1.11,8.52a4.4,4.4,0,0,0,1.23,2.51,4.34,4.34,0,0,0,3.07,1.26H29.33A1.33,1.33,0,0,0,30.67,28V5.49a2.88,2.88,0,0,0-.3-1.26A2.81,2.81,0,0,0,27.84,2.67ZM28.67,24a.66.66,0,0,1,.66.67.65.65,0,0,1-.66.66h-24A.66.66,0,0,1,4,24.67.67.67,0,0,1,4.67,24Zm0-4a.66.66,0,0,1,.66.67.65.65,0,0,1-.66.66h-4a.66.66,0,0,1-.67-.66.67.67,0,0,1,.67-.67ZM27.84,4a1.51,1.51,0,0,1,1.34.82,1.56,1.56,0,0,1,.15.67V16.67a.65.65,0,0,1-.66.66H3.33a.65.65,0,0,1-.66-.66,5.12,5.12,0,0,1,1.51-3.61l6.26-7a6,6,0,0,1,4.49-2Zm0,1.33H14.93A4.64,4.64,0,0,0,11.44,6.9l-6.26,7A4.18,4.18,0,0,0,4.05,16H28V5.49C28,5.36,27.9,5.33,27.84,5.33ZM16.2,6.86a.66.66,0,1,1,.94.94l-4,4a.66.66,0,0,1-.94-.94Zm-2.67,0a.66.66,0,0,1,.94.94L13.14,9.14a.66.66,0,0,1-.94-.94Z" transform="translate(0 -1.33)"/></g></g></g></svg>