<svg xmlns="http://www.w3.org/2000/svg" data-name="Layer 1" viewBox="0 0 64 64"><path fill="#8b8e98" d="M4,43H6a3,3,0,0,1,3,3v3a0,0,0,0,1,0,0H1a0,0,0,0,1,0,0V46A3,3,0,0,1,4,43Z" transform="rotate(180 5 46)"></path><path fill="#8b8e98" d="M58,55h2a3,3,0,0,1,3,3v3a0,0,0,0,1,0,0H55a0,0,0,0,1,0,0V58A3,3,0,0,1,58,55Z" transform="rotate(180 59 58)"></path><path fill="#8b8e98" d="M22,55h2a3,3,0,0,1,3,3v3a0,0,0,0,1,0,0H19a0,0,0,0,1,0,0V58A3,3,0,0,1,22,55Z" transform="rotate(180 23 58)"></path><path fill="#72caaf" d="M56,33h3a3,3,0,0,0,3-3V18.67a8,8,0,0,0-1.6-4.8l-1.13-1.5a4,4,0,0,1-.46-.78L56.06,5.38A4,4,0,0,0,52.4,3H31.6a4,4,0,0,0-3.66,2.38L25,12l-3,4"></path><path fill="#bbdef9" d="M25,12l2.94-6.62A4,4,0,0,1,31.6,3H52.4a4,4,0,0,1,3.66,2.38l2.76,6.21a4,4,0,0,0,.46.78L55,15H22Z"></path><path fill="#8b8e98" d="M57,27h2a3,3,0,0,1,3,3v3a0,0,0,0,1,0,0H54a0,0,0,0,1,0,0V30A3,3,0,0,1,57,27Z" transform="rotate(180 58 30)"></path><path fill="#f9e3ae" d="M45,43V32l-3.47-5.2a8,8,0,0,1-.86-1.7L38,17.63A4,4,0,0,0,34.2,15H11.8A4,4,0,0,0,8,17.63L5.33,25.1a8,8,0,0,1-.86,1.7L2.34,30A8,8,0,0,0,1,34.42V43Z"></path><path fill="#f6d397" d="M1 38H45V43H1z"></path><path fill="#bbdef9" d="M5,26l2.94-8.62A4,4,0,0,1,11.6,15H33.4a4,4,0,0,1,3.66,2.38l3.76,8.21a4,4,0,0,0,.46.78L37,29H8.33Z"></path><path fill="#f283a5" d="M63,55V44l-3.47-5.2a8,8,0,0,1-.86-1.7L56,29.63A4,4,0,0,0,52.2,27H29.8A4,4,0,0,0,26,29.63L23.33,37.1a8,8,0,0,1-.86,1.7L20.34,42A8,8,0,0,0,19,46.42V55Z"></path><path fill="#bbdef9" d="M23,38l3.94-8.62A4,4,0,0,1,30.6,27H51.4a4,4,0,0,1,3.66,2.38l3.76,8.21a4,4,0,0,0,.46.78L55,41H26.33Z"></path><path fill="#def0ff" d="M44 41H55l4.27-2.64a4 4 0 0 1-.46-.78l-3.58-7.82zM46.74 27l-14 14H39.3L53 27.33A4 4 0 0 0 51.4 27zM38 27L25.11 39.9 26.33 41 28 41 42 27 38 27z"></path><path fill="#ed7899" d="M19 49H63V55H19z"></path><path fill="#ffefb8" d="M30 51H24a1 1 0 0 1-1-1V48.13a1 1 0 0 1 1.12-1l6 .75a1 1 0 0 1 .88 1V50A1 1 0 0 1 30 51zM58 51H52a1 1 0 0 1-1-1V48.88a1 1 0 0 1 .88-1l6-.75a1 1 0 0 1 1.12 1V50A1 1 0 0 1 58 51z"></path><path fill="#8d6c9f" d="M32 6a1 1 0 0 0-1 1V9a1 1 0 0 0 2 0V7A1 1 0 0 0 32 6zM37 10a1 1 0 0 0 1-1V7a1 1 0 0 0-2 0V9A1 1 0 0 0 37 10zM42 10a1 1 0 0 0 1-1V7a1 1 0 0 0-2 0V9A1 1 0 0 0 42 10zM47 10a1 1 0 0 0 1-1V7a1 1 0 0 0-2 0V9A1 1 0 0 0 47 10zM52 10a1 1 0 0 0 1-1V7a1 1 0 0 0-2 0V9A1 1 0 0 0 52 10z"></path><path fill="#8d6c9f" d="M62.49,41.43l-2.12-3.19a7,7,0,0,1-.75-1.49l-1-2.75H59a4,4,0,0,0,4-4V18.67a9.06,9.06,0,0,0-1.8-5.4l-1.13-1.51a3,3,0,0,1-.34-.58L57,5A5,5,0,0,0,52.4,2H31.6A5,5,0,0,0,27,5l-2.9,6.52L22.25,14H11.8a5,5,0,0,0-4.7,3.29L4.39,24.76a7,7,0,0,1-.75,1.49L1.51,29.43a9,9,0,0,0-1.51,5V46a4,4,0,0,0,4,4H6a4,4,0,0,0,4-4V44h8.34A9,9,0,0,0,18,46.42V58a4,4,0,0,0,4,4h2a4,4,0,0,0,4-4V56H54v2a4,4,0,0,0,4,4h2a4,4,0,0,0,4-4V46.42A9,9,0,0,0,62.49,41.43ZM53.9,40a5,5,0,0,0-9.8,0H28.32a5,5,0,0,1-2.22-.52l-2.24-1.11a9,9,0,0,0,.4-.94L27,30a3,3,0,0,1,2.82-2H52.2A3,3,0,0,1,55,30l2.71,7.46a9,9,0,0,0,.43,1L56,39.49A5,5,0,0,1,53.9,40Zm-2.08,0H46.18a3,3,0,0,1,5.63,0Zm-26-27.4a1.06,1.06,0,0,0,.11-.19l2.94-6.62A3,3,0,0,1,31.6,4H52.4a3,3,0,0,1,2.74,1.78L57.9,12c.07.15.15.3.23.44L56,13.49a5,5,0,0,1-2.2.51H41a1,1,0,0,0,0,2H53.78a7,7,0,0,0,3.08-.71l2.46-1.2.29.38a7,7,0,0,1,1.4,4.2V30a2,2,0,0,1-2,2H57.88l-1-2.71A5,5,0,0,0,52.2,26h-10a6.94,6.94,0,0,1-.61-1.25L41,23h8.19a1,1,0,0,0,0-2H40.25L38.9,17.29A5,5,0,0,0,34.2,14H24.75ZM8,46a2,2,0,0,1-2,2H4a2,2,0,0,1-2-2V44H8ZM2,42V34.42a7,7,0,0,1,1.18-3.88l1.64-2.45,2.4,1.19a7,7,0,0,0,3.1.73H22a1,1,0,0,0,0-2H10.32a5,5,0,0,1-2.22-.52L5.86,26.37a9,9,0,0,0,.4-.94L9,18a3,3,0,0,1,2.82-2H34.2A3,3,0,0,1,37,18l2.71,7.46c.07.19.16.38.24.56H29.8a5,5,0,0,0-4.7,3.29l-2.72,7.46c0,.09-.08.18-.11.27l-.11,0H12.92a1,1,0,0,0,0,2h8.21l-1.62,2.43c-.12.18-.21.38-.32.57Zm18,4.42a7,7,0,0,1,1.18-3.88l1.64-2.45,2.4,1.19a7,7,0,0,0,3.1.73H53.78a7,7,0,0,0,3.08-.71l2.36-1.16,1.61,2.41A7,7,0,0,1,62,46.42V54H20ZM26,58a2,2,0,0,1-2,2H22a2,2,0,0,1-2-2V56h6Zm36,0a2,2,0,0,1-2,2H58a2,2,0,0,1-2-2V56h6Z"></path><path fill="#8d6c9f" d="M47.17 48H34.92a1 1 0 0 0 0 2H47.17a1 1 0 0 0 0-2zM52.92 23h4.25a1 1 0 0 0 0-2H52.92a1 1 0 0 0 0 2zM9.17 37H4.92a1 1 0 0 0 0 2H9.17a1 1 0 1 0 0-2zM26.17 19a1 1 0 0 0-1-1H20.92a1 1 0 0 0 0 2h4.25A1 1 0 0 0 26.17 19zM43.17 30H38.92a1 1 0 0 0 0 2h4.25a1 1 0 0 0 0-2zM30.25 46.9l-6-.75a2 2 0 0 0-2.25 2V50a2 2 0 0 0 2 2h6a2 2 0 0 0 2-2V48.88A2 2 0 0 0 30.25 46.9zM24 50V48.13l6 .75V50zM57.75 46.15l-6 .75a2 2 0 0 0-1.75 2V50a2 2 0 0 0 2 2h6a2 2 0 0 0 2-2V48.13a2 2 0 0 0-2.25-2zM52 50V48.88l6-.75V50z"></path></svg>