<?xml version="1.0" encoding="utf-8"?>
<!-- Generator: Adobe Illustrator 24.1.0, SVG Export Plug-In . SVG Version: 6.00 Build 0)  -->
<svg version="1.1" id="Capa_1" xmlns="http://www.w3.org/2000/svg" xmlns:xlink="http://www.w3.org/1999/xlink" x="0px" y="0px"
	 viewBox="0 0 512 512" style="enable-background:new 0 0 512 512;" xml:space="preserve">
<path d="M272,96.6V64h64V32c0-17.7-14.3-32-32-32h-96c-17.7,0-32,14.3-32,32v32h64v32.6C132.6,104.8,48,194.5,48,304
	c0,114.9,93.1,208,208,208s208-93.1,208-208C464,194.5,379.4,104.8,272,96.6z M369.1,417.1C338.9,447.4,298.7,464,256,464
	s-82.9-16.6-113.1-46.9S96,346.7,96,304s16.6-82.9,46.9-113.1c29-29,67.2-45.5,108.1-46.8l-10.8,157c-0.9,13.1,6.2,18.9,15.9,18.9
	s16.8-5.8,15.9-18.9l-10.8-157c40.8,1.3,79,17.8,108.1,46.8C399.4,221.1,416,261.3,416,304S399.4,386.9,369.1,417.1z"/>
</svg>
