<svg xmlns="http://www.w3.org/2000/svg" viewBox="0 0 64 64"><path fill="#efd8be" d="M44,31l-1-20c0-2.209-1.791-4-4-4h0c-2.209,0-4,1.791-4,4v5"></path><path fill="#faefde" d="M24,14c0,0-4.14-5.483-4.828-6.172C18.483,7.14,18,6.105,18,5c0-2.209,1.791-4,4-4 c1.332,0,2.512,0.651,3.239,1.652L36,14l11,22l-10-4l-8-16L24,14z"></path><path fill="#faefde" d="M21.812,24.438L21,23L9.259,18.484c-1.725-0.664-3.047-2.193-3.235-4.032 C6.008,14.299,6,14.148,6,14c0-2.209,1.791-4,4-4c3,0,18.152,5.446,18.152,5.446c1.168,0.35,2.112,1.214,2.565,2.346L33,24 L21.812,24.438"></path><path fill="#faefde" d="M57,37v22.658c0,1.48-1.545,2.44-2.878,1.797C51.083,59.986,46.042,58,41,58c-8,0-10,3-14,3 s-10.172-2.586-13-4c-2-1-4-3-7-8l-2-4c0,0,2-4,5-4c6,0,7,7,10,7h5l3-8l-3-6h-6l-8.377,5.365c-1.996,1.452-4.626,1.331-6.06-0.678 l0,0c-1.351-1.892-0.473-4.949,1.313-6.438l7.012-6.323C13.606,25.328,14.512,25,15.448,25l14.474-1.031 c1.337,0,2.586,0.668,3.328,1.781L37,32"></path><path fill="#8d6c9f" d="M55.002,62.658c-0.446,0-0.896-0.1-1.314-0.303C50.521,60.824,45.748,59,41,59 c-4.497,0-6.956,0.963-9.126,1.813C30.317,61.424,28.846,62,27,62c-4.133,0-10.397-2.581-13.447-4.105 c-2.417-1.209-4.564-3.637-7.41-8.38l-2.037-4.067c-0.141-0.282-0.141-0.613,0-0.895c0.061-0.121,1.019-2.003,2.662-3.309 C5.556,41,4.488,40.304,3.749,39.269c-1.729-2.419-0.604-6.045,1.485-7.787l6.983-6.297C13.145,24.412,14.281,24,15.448,24 l14.402-1.029c0.003,0,0.006,0,0.008,0c1.743,0,3.295,0.832,4.224,2.224l3.775,6.29c0.284,0.474,0.131,1.088-0.343,1.372 c-0.475,0.284-1.088,0.13-1.372-0.343l-3.75-6.25c-0.532-0.796-1.466-1.296-2.471-1.296L15.52,25.998 c-0.771,0.002-1.453,0.25-1.991,0.698l-6.983,6.297c-1.414,1.179-2.213,3.652-1.169,5.113c0.47,0.658,1.123,1.071,1.89,1.196 c0.903,0.149,1.916-0.125,2.77-0.745l8.426-5.399C18.622,33.055,18.809,33,19,33h6c0.379,0,0.725,0.214,0.895,0.553l3,6 c0.124,0.249,0.14,0.538,0.042,0.798l-3,8C25.79,48.741,25.417,49,25,49h-5c-1.743,0-2.838-1.461-3.996-3.009 C14.534,44.029,13.015,42,10,42c-1.823,0-3.308,2.112-3.867,3.03l1.762,3.522c2.597,4.321,4.505,6.529,6.553,7.553 C17.142,57.453,23.231,60,27,60c1.468,0,2.649-0.463,4.145-1.049C33.363,58.082,36.125,57,41,57 c5.127,0,10.202,1.933,13.558,3.554c0.321,0.155,0.679,0.137,0.977-0.052C55.83,60.316,56,60.009,56,59.658V37 c0-0.552,0.447-1,1-1s1,0.448,1,1v22.658c0,1.039-0.524,1.987-1.402,2.539C56.109,62.503,55.557,62.658,55.002,62.658z M11.32,40.106c3.168,0.526,4.945,2.898,6.284,4.687C18.491,45.977,19.258,47,20,47h4.307l2.604-6.943L24.382,35h-5.089 L11.32,40.106z"></path><path fill="#8d6c9f" d="M43.999 31c-.528 0-.97-.414-.998-.947l-1-19C42 9.346 40.654 8 39 8s-3 1.346-3 3v1c0 .552-.447 1-1 1s-1-.448-1-1v-1c0-2.757 2.243-5 5-5s5 2.243 5 5l.999 18.947c.028.552-.395 1.022-.946 1.051C44.035 31 44.017 31 43.999 31zM35.312 29.688c-.39 0-.761-.23-.922-.612L29.795 18.18c-.349-.871-1.05-1.512-1.93-1.776C21.789 14.222 12.073 11 10 11c-1.654 0-3 1.346-3 3 0 .115.006.232.019.351.143 1.391 1.163 2.647 2.6 3.2l11.741 4.516c.216.083.397.24.511.441l.812 1.438c.272.481.103 1.091-.378 1.363-.479.271-1.091.103-1.362-.378l-.637-1.125L8.899 19.418c-2.133-.82-3.652-2.729-3.871-4.863C5.01 14.366 5 14.181 5 14c0-2.757 2.243-5 5-5 3.085 0 16.923 4.941 18.49 5.505 1.417.423 2.585 1.492 3.155 2.915l4.589 10.879c.214.509-.024 1.095-.533 1.31C35.574 29.663 35.442 29.688 35.312 29.688z"></path><path fill="#8d6c9f" d="M57,38c-0.104,0-0.211-0.017-0.316-0.052l-12-4c-0.259-0.086-0.471-0.274-0.587-0.521 l-8.932-18.856L24.513,3.34c-0.03-0.032-0.058-0.065-0.084-0.101C23.866,2.463,22.958,2,22,2c-1.654,0-3,1.346-3,3 c0,0.778,0.328,1.571,0.879,2.122c0.716,0.716,4.491,5.709,4.919,6.276c0.333,0.44,0.245,1.068-0.195,1.4 c-0.441,0.333-1.068,0.245-1.4-0.195c-1.585-2.099-4.272-5.602-4.737-6.067C17.548,7.619,17,6.297,17,5c0-2.757,2.243-5,5-5 c1.573,0,3.065,0.75,4.007,2.009l10.719,11.303c0.073,0.077,0.133,0.165,0.178,0.26l8.817,18.614l11.596,3.865 c0.523,0.175,0.807,0.741,0.632,1.265C57.809,37.735,57.419,38,57,38z"></path><path fill="#8d6c9f" d="M24.001,15c-0.303,0-0.603-0.137-0.799-0.397c-1.585-2.099-4.272-5.602-4.737-6.067 C17.548,7.619,17,6.297,17,5c0-0.552,0.447-1,1-1s1,0.448,1,1c0,0.778,0.328,1.571,0.879,2.122 c0.716,0.716,4.491,5.709,4.919,6.276c0.333,0.44,0.245,1.068-0.195,1.4C24.422,14.934,24.211,15,24.001,15z"></path><g><path fill="#8d6c9f" d="M53,41h-2c-0.553,0-1-0.448-1-1s0.447-1,1-1h2c0.553,0,1,0.448,1,1S53.553,41,53,41z"></path></g><g><path fill="#8d6c9f" d="M53,46h-2c-0.553,0-1-0.448-1-1s0.447-1,1-1h2c0.553,0,1,0.448,1,1S53.553,46,53,46z"></path></g><g><path fill="#8d6c9f" d="M53,51h-2c-0.553,0-1-0.448-1-1s0.447-1,1-1h2c0.553,0,1,0.448,1,1S53.553,51,53,51z"></path></g><g><path fill="#8d6c9f" d="M53,56h-2c-0.553,0-1-0.448-1-1s0.447-1,1-1h2c0.553,0,1,0.448,1,1S53.553,56,53,56z"></path></g></svg>