<svg xmlns="http://www.w3.org/2000/svg" viewBox="0 0 200 200"><defs><style>.cls-1{fill:#010101;}.cls-2{fill:none;}</style></defs><g id="Capa_2" data-name="Capa 2"><g id="Rectangle"><g id="_000000ff" data-name="#000000ff"><path class="cls-1" d="M39.61,53.51C59.43,60.4,79.13,67.61,99,74.36a2.73,2.73,0,0,0,2.1,0c19.83-6.78,39.52-13.93,59.3-20.85Q149.86,70.3,139.12,86.93c-3.32-1.43-6.73-2.61-10.07-4,1.94-3.4,4-6.73,6-10.12C128.64,76,122.14,79,115.8,82.34c4.43,1.68,8.87,3.34,13.27,5.12,2.45,1,5.08,2.93,5.25,5.81.39,3.19-1.79,5.8-3.33,8.36-9.56,15-19.06,29.94-28.66,44.86,0-3.94-.4-7.91.07-11.82,3.77-12,7.5-24,10.94-36.07.68-1.8-1.33-2.76-2.62-3.39-3.65-1.61-7.06-3.74-10.79-5.12-3.78,1.63-7.41,3.62-11.12,5.41C87.66,96,86,97.08,86.7,98.58c3.41,12.09,7.18,24.08,10.93,36.07.42,3.92,0,7.9,0,11.84Q83.5,124.3,69.36,102.09c-1.65-2.72-4-5.5-3.62-8.9.22-2.86,2.84-4.75,5.29-5.75,4.36-1.77,8.78-3.4,13.18-5.11C77.88,79,71.41,76,65,72.83c2,3.4,4,6.72,6,10.13-3.36,1.34-6.76,2.58-10.11,4Q50.17,70.26,39.61,53.51Z"/></g></g><g id="Capa_2-2" data-name="Capa 2"><rect class="cls-2" width="200" height="200"/></g></g></svg>