<svg xmlns="http://www.w3.org/2000/svg" width="64" height="64" viewBox="0 0 64 64">
	<path fill="#ACE3FF" d="M51.7,26.3H9c-1,0-1.8-0.8-1.8-1.7V10.4C7.2,9.5,8,8.7,9,8.7h25.3c0.5,0,0.9,0.2,1.3,0.5l17.5,14	c0.4,0.3,0.5,0.8,0.5,1.2l2.4,1.4C56,26.7,52.7,26.3,51.7,26.3z">
	</path>
	<path fill="#E3F2FF" d="M27,26.3H17L32.6,8.9l3.8,0.3l3.8,2.2L27,26.3z M13.4,26.3h-2.7L26.3,8.8l2.8,0L13.4,26.3z M53.6,26.3H37.9	l9.3-9.9l6,6.9L53.6,26.3z">
	</path>
	<polygon fill="#FFF" points="39.7,18.1 38.5,15.8 37.3,18.1 35,19.3 37.3,20.5 38.5,22.8 39.7,20.5 42,19.3">
	</polygon>
	<polygon fill="#FFF" points="20.3,15.8 19.5,17.3 17.9,18.2 19.5,19 20.3,20.6 21.2,19 22.7,18.2 21.2,17.3">
	</polygon>
	<path fill="#8D6C9F" d="M16.5,14h-4c-0.6,0-1-0.4-1-1s0.4-1,1-1h4c0.6,0,1,0.4,1,1S17.1,14,16.5,14z M34.5,14h-14c-0.6,0-1-0.4-1-1	s0.4-1,1-1h14c0.6,0,1,0.4,1,1S35.1,14,34.5,14z">
	</path>
	<path fill="#8D6C9F" d="M56.5,27.2H7c-0.6,0-1-0.4-1-1V11c0-1.7,1.3-3,3-3h27c0.7,0,1.4,0.3,2,0.7l19.2,16.7 c0.3,0.3,0.4,0.7,0.3,1.1C57.3,26.9,57,27.2,56.5,27.2z M8,25.2h45.9L36.7,10.2C36.5,10.1,36.2,10,36,10H9c-0.6,0-1,0.4-1,1V25.2z">
	</path>
	<polygon fill="#FFF" points="29.5,20.6 29,21.6 27.9,22.2 29,22.8 29.5,23.9 30.2,22.8 31.2,22.2 30.2,21.6">
	</polygon>
	<path fill="#EFD8BE" d="M6.5,54.3h51c1.1,0,2-0.9,2-2v-24c0-1.1-0.9-2-2-2h-51c-1.1,0-2,0.9-2,2v24C4.5,53.4,5.4,54.3,6.5,54.3z">
	</path>
	<path fill="#FAEFDE" d="M59.5,52.8V27.5c0-0.9-0.7-1.5-1.7-1.5h-3.5c-1,0-1.7,0.7-1.7,1.5v25.3c0,0.9,0.7,1.5,1.7,1.5h3.5	C58.8,54.3,59.5,53.6,59.5,52.8z">
	</path>
	<path fill="#E2E9F7" d="M32.1,36.8h-8.8c-0.3,0-0.7,0.2-0.8,0.5s-0.5,0.5-0.8,0.5h-9.8c-0.2,0-0.4,0.1-0.5,0.2l-0.6,0.6	c-0.1,0.1-0.2,0.3-0.2,0.5v1.4c0,0.2,0.1,0.4,0.2,0.5l0.6,0.6c0.1,0.1,0.2,0.3,0.2,0.5v0.7c0,0.6,0.5,1,1,1h15.8c0.4,0,3.7,0,3.7,0	L32.1,36.8C32.1,36.8,32.1,36.8,32.1,36.8z">
	</path>
	<path fill="#8D6C9F" d="M15.3,32H9.7c-0.6,0-1-0.4-1-1s0.4-1,1-1h5.6c0.6,0,1,0.4,1,1S15.9,32,15.3,32z">
	</path>
	<path fill="#8D6C9F" d="M50.5,30c0-0.6,0.4-1,1-1h2c0.6,0,1,0.4,1,1s-0.4,1-1,1h-2C50.9,31,50.5,30.6,50.5,30z M50.5,35	c0-0.6,0.4-1,1-1h2c0.6,0,1,0.4,1,1s-0.4,1-1,1h-2C50.9,36,50.5,35.6,50.5,35z M50.5,40c0-0.6,0.4-1,1-1h2c0.6,0,1,0.4,1,1	s-0.4,1-1,1h-2C50.9,41,50.5,40.6,50.5,40z M50.5,45c0-0.6,0.4-1,1-1h2c0.6,0,1,0.4,1,1s-0.4,1-1,1h-2C50.9,46,50.5,45.6,50.5,45z M50.5,50c0-0.6,0.4-1,1-1h2c0.6,0,1,0.4,1,1s-0.4,1-1,1h-2C50.9,51,50.5,50.6,50.5,50z">
	</path>
	<path fill="#B5C4E0" d="M44.4,31.6c-0.5-0.9-2-0.8-3.7-0.3c-2.3,0.7-6.5,1.6-8.6,2.4c-0.5,0.2-0.9,0.9-1,1.4	c-0.1,0.3-0.2,0.9-0.2,1.2v7.9c0,0.5,0.1,0.9,0.2,1.3c0.1,0.6,0.5,1.2,1,1.4c2.1,0.8,6.4,1.8,8.6,2.4c0.8,0.2,1.6,0.5,2.2,0.5	c0.7,0,1.3-0.3,1.5-0.8c1.3-2.6,1.3-5.6,1.3-8.7C45.7,37.2,45.6,34.2,44.4,31.6z M41.2,44.9L38,44.3v-7.9l3.2-0.6	C41.8,38.6,41.7,41.7,41.2,44.9z">
	</path>
	<path fill="#ACB7D0" d="M31.5,45.3h-0.7V34.7h0.7c1.7,0,3,1.4,3,3v4.6C34.5,44,33.1,45.3,31.5,45.3z">
	</path>
	<path fill="#C2CDE7" d="M45.1,48.4L45.1,48.4V32.5l0,0c-1.7,0-3.1,1.4-3.1,3.1v9.7C42,47,43.4,48.4,45.1,48.4z">
	</path>
	<path fill="#8D6C9F" d="M31,40.8c-0.6,0-1-0.4-1-1v-3.2c0-0.6,0.4-1,1-1s1,0.4,1,1v3.2C32,40.3,31.6,40.8,31,40.8z">
	</path>
	<path fill="#8D6C9F" d="M42.8,50.8c-0.6,0-1.2-0.2-1.7-0.3c-0.2-0.1-0.4-0.1-0.6-0.2c-1.4-0.3-6.3-1.6-8.7-2.4 c-1-0.4-1.5-1.4-1.7-2.2c0-0.2,0-0.4,0-0.7H12.6c-1.1,0-2.1-1-2.1-2.1v-0.6L10,41.8c-0.3-0.3-0.5-0.8-0.5-1.2v-1.4 c0-0.5,0.2-0.9,0.5-1.2l0.6-0.6C11,37,11.4,37,11.8,37h9.8c0.2-0.6,0.9-1,1.6-1h6.6c0-0.4,0.1-0.9,0.1-1.1c0.3-1.1,0.9-1.9,1.6-2.2 c1.3-0.4,3.2-0.9,5.1-1.4c1.4-0.3,2.6-0.7,3.6-1c0.9-0.3,1.8-0.4,2.5-0.4c1.5,0,2.2,0.7,2.4,1.3c1.3,2.7,1.4,5.6,1.4,9.2 s-0.1,6.5-1.4,9.1c-0.4,0.8-1.2,1.3-2.3,1.3L42.8,50.8z M11.5,40.5L12,41c0.3,0.3,0.5,0.8,0.5,1.2V43h17.4c1,0,1.8,0.7,2,1.6 c0,0.3,0.1,0.6,0.1,0.7c0.1,0.4,0.3,0.6,0.4,0.7c2.3,0.8,7.1,2,8.5,2.3c0.2,0.1,0.5,0.1,0.7,0.2c0.4,0.1,0.9,0.2,1.2,0.2l0.1,0 c0.4,0,0.6-0.1,0.6-0.2c1.1-2.3,1.2-5,1.2-8.3s-0.1-6-1.2-8.3c0-0.1-0.2-0.1-0.6-0.1c-0.5,0-1.1,0.1-1.9,0.3c-1,0.3-2.3,0.6-3.7,1 c-1.8,0.5-3.7,1-4.9,1.4c-0.1,0-0.2,0.3-0.4,0.7c0,0.2-0.1,1-0.1,1.3l0,0.2c0,0.2-0.1,0.4-0.3,0.6c-0.2,0.2-0.4,0.3-0.7,0.3h-7.5 c-0.3,0.6-1,1-1.7,1H12l-0.4,0.4L11.5,40.5C11.5,40.5,11.5,40.5,11.5,40.5z">
	</path>
	<path fill="#8D6C9F" d="M58,25.2c-0.6-0.1-1.3-0.2-2-0.2H15v-2c0-0.6-0.4-1-1-1s-1,0.4-1,1v2H8l-2,0.2c-1.2,0.4-2,1.5-2,2.8v24	c0,1.7,1.3,3,3,3h50c1.7,0,3-1.3,3-3V28C60,26.7,59.2,25.6,58,25.2z M58,52c0,0.6-0.4,1-1,1H7c-0.6,0-1-0.4-1-1V28c0-0.6,0.4-1,1-1	h50.5c0.6,0,0.5,0.4,0.5,1V52z">
	</path>
	<path fill="#8D6C9F" d="M41.2,45.9c-0.1,0-0.1,0-0.2,0l-3.2-0.6c-0.5-0.1-0.8-0.5-0.8-1v-7.9c0-0.5,0.4-0.9,0.8-1l3.2-0.6	c0.5-0.1,1.1,0.3,1.2,0.8c0.5,2.7,0.5,5.8,0,9.3c0,0.3-0.2,0.5-0.4,0.7C41.7,45.8,41.4,45.9,41.2,45.9z M39,43.5l1.4,0.2	c0.3-2.5,0.3-4.7,0-6.7L39,37.2V43.5z">
	</path>
</svg>
