<?xml version="1.0" encoding="utf-8"?>
<!-- Generator: Adobe Illustrator 24.1.0, SVG Export Plug-In . SVG Version: 6.00 Build 0)  -->
<svg version="1.1" id="Capa_1" xmlns="http://www.w3.org/2000/svg" xmlns:xlink="http://www.w3.org/1999/xlink" x="0px" y="0px"
	 viewBox="0 0 512 512" style="enable-background:new 0 0 512 512;" xml:space="preserve">
<style type="text/css">
	.st0{fill:#0C8BC2;}
	.st1{fill:#7DCC49;}
	.st2{fill:#FFFFFF;}
	.st3{fill:#C3CDE0;}
	.st4{opacity:0.5;}
	.st5{opacity:0.5;fill:#FFFFFF;}
	.st6{fill:#021859;}
</style>
<g>
	<g>
		<path class="st0" d="M258.2,4.9C397.8,4.9,511,118.1,511,257.7S397.8,510.5,258.2,510.5V4.9z"/>
		<path class="st1" d="M258.2,4.9C118.6,4.9,5.5,118.1,5.5,257.7s113.2,252.8,252.8,252.8V4.9z"/>
	</g>
	<path class="st2" d="M166.1,46.2h184.3v36.5H166.1V46.2z M284.6,92.5h125.9v126H284.6V92.5z M284.6,237.8h148.7v114H284.6V237.8z"
		/>
	<path class="st3" d="M161.4,368.4h193.7v96H161.4V368.4z"/>
	<path class="st2" d="M94.8,92.4h52.8V352H94.8V92.4z"/>
	<g class="st4">
		<path class="st5" d="M1.6,1"/>
	</g>
	<path class="st2" d="M1.6,1"/>
	<path class="st2" d="M1.6,1"/>
	<path class="st6" d="M101.1,335.5h40.2v-1.2h-40.2V335.5z M101.1,332h40.2v-1.2h-40.2V332z M101.1,329.6h40.2v-2.3h-40.2V329.6
		L101.1,329.6z M101.1,326.1h40.2v-2.3h-40.2V326.1L101.1,326.1z M101.1,322.6h40.2v-1.2h-40.2V322.6z M101.1,320.3h40.2V318h-40.2
		V320.3z M101.1,316.8h40.2v-1.2h-40.2V316.8z M101.1,313.3h40.2v-1.2h-40.2V313.3z M101.1,311h40.2v-1.2h-40.2V311z M101.1,308.6
		h40.2v-2.3h-40.2V308.6L101.1,308.6z M101.1,305.1h40.2V304h-40.2V305.1z M101.1,302.8h40.2v-2.3h-40.2V302.8L101.1,302.8z
		 M101.1,298.1h40.2v-2.3h-40.2V298.1z M101.1,294.6h40.2v-1.2h-40.2V294.6z M101.1,292.3h40.2v-1.2h-40.2V292.3z M101.1,289.9h40.2
		v-2.3h-40.2V289.9L101.1,289.9z M101.1,286.4h40.2v-2.3h-40.2V286.4z M101.1,282.9h40.2v-1.2h-40.2V282.9z M101.1,280.6h40.2v-1.2
		h-40.2V280.6L101.1,280.6z M101.1,277.1h40.2v-1.2h-40.2V277.1z M101.1,274.8h40.2v-2.3h-40.2V274.8L101.1,274.8z M101.1,271.3
		h40.2v-1.2h-40.2V271.3z M101.1,268.9h40.2v-2.3h-40.2V268.9L101.1,268.9z M101.1,264.3h40.2v-1.2h-40.2V264.3z M101.1,261.9h40.2
		v-1.2h-40.2V261.9L101.1,261.9z M101.1,259.6h40.2v-1.2h-40.2V259.6z M101.1,256.1h40.2v-1.2h-40.2V256.1L101.1,256.1z
		 M101.1,253.7h40.2v-1.2h-40.2V253.7L101.1,253.7z M101.1,251.4h40.2v-2.3h-40.2V251.4z M101.1,247.9h40.2v-2.3h-40.2V247.9
		L101.1,247.9z M101.1,244.4h40.2v-1.2h-40.2V244.4z M101.1,242.1h40.2v-1.2h-40.2V242.1L101.1,242.1z M101.1,238.6h40.2v-2.3h-40.2
		V238.6L101.1,238.6z M101.1,235.1h40.2v-2.3h-40.2V235.1z M101.1,231.5h40.2v-1.2h-40.2V231.5z M101.1,229.2h40.2V228h-40.2V229.2z
		 M101.1,226.9h40.2v-1.2h-40.2V226.9z M101.1,223.4h40.2V221h-40.2V223.4z M101.1,219.9h40.2v-2.3h-40.2V219.9z M101.1,216.4h40.2
		v-1.2h-40.2V216.4z M101.1,214h40.2v-1.2h-40.2V214z M101.1,211.7h40.2v-1.2h-40.2V211.7z M101.1,208.2h40.2v-2.3h-40.2V208.2z
		 M101.1,204.7h40.2v-2.3h-40.2V204.7L101.1,204.7z M101.1,201.2h40.2V200h-40.2V201.2z M101.1,198.8h40.2v-1.2h-40.2V198.8
		L101.1,198.8z M101.1,196.5h40.2v-1.2h-40.2V196.5z M101.1,193h40.2v-2.3h-40.2V193L101.1,193z M101.1,189.5h40.2v-2.3h-40.2V189.5
		z M101.1,186h40.2v-1.2h-40.2V186z M101.1,183.7h40.2v-1.2h-40.2V183.7L101.1,183.7z M101.1,181.3h40.2v-1.2h-40.2V181.3z
		 M101.1,177.8h40.2v-2.3h-40.2V177.8L101.1,177.8z M101.1,174.3h40.2V172h-40.2V174.3z M101.1,170.8h40.2v-1.2h-40.2V170.8z
		 M101.1,168.5h40.2v-1.2h-40.2V168.5z M101.1,166.1h40.2V165h-40.2V166.1z M101.1,162.6h40.2v-2.3h-40.2V162.6z M101.1,159.1h40.2
		v-2.3h-40.2V159.1L101.1,159.1z M101.1,155.6h40.2v-1.2h-40.2V155.6z M101.1,153.3h40.2v-1.2h-40.2V153.3z M101.1,151h40.2v-1.2
		h-40.2V151z M101.1,147.5h40.2v-2.3h-40.2V147.5z M101.1,143.9h40.2v-2.3h-40.2V143.9L101.1,143.9z M101.1,140.5h40.2v-1.2h-40.2
		V140.5z M101.1,138.1h40.2v-1.2h-40.2V138.1L101.1,138.1z M101.1,135.8h40.2v-1.2h-40.2V135.8z M101.1,132.3h40.2v-2.3h-40.2V132.3
		L101.1,132.3z M101.1,128.8h40.2v-2.3h-40.2V128.8z M101.1,125.3h40.2v-1.2h-40.2V125.3L101.1,125.3z M101.1,122.9h40.2v-1.2h-40.2
		V122.9L101.1,122.9z M101.1,119.4h40.2v-1.2h-40.2V119.4z M101.1,117.1h40.2v-2.3h-40.2V117.1L101.1,117.1z M101.1,113.6h40.2v-2.3
		h-40.2V113.6z M101.1,110.1h40.2v-1.2h-40.2V110.1z M295.7,103.7v22h22v-22L295.7,103.7L295.7,103.7z M320.8,103.7v12.6h3.1v3.1
		h-3.1v6.3h3.1v-3.1h3.1v9.4h3.1v-3.1h3.1v-3.1h-3.1v-12.6h-3.1V110H324v-6.3H320.8z M333.4,125.7h3.1v-3.1h-3.1V125.7z
		 M336.5,122.5h3.1v-3.1h6.3v6.3h-3.1v-3.1h-3.1v6.3h3.1v9.4h3.1v-3.1h6.3v3.1h-3.1v9.4h-3.1v-6.3h-6.3v6.3h-3.1v-3.1h-3.1v3.1h-3.1
		v6.3h3.1v-3.1h9.4v12.6h-3.1v3.1h9.4v3.1h-9.4v3.1h3.1v6.3h3.1v-3.1h3.1v3.1h-3.1v3.1h-3.1v3.1h-3.1v3.1h9.4v-6.3h3.1V179h3.1v-9.4
		h-3.1v-3.1h3.1v3.1h3.1v-6.3h-6.3v-3.1h-3.1v3.1h-3.1v-3.1h3.1v-3.1h-3.1v-6.3h3.1v6.3h3.1v-3.1h3.1v-22h-3.1v-6.3h-3.1v-3.1h3.1
		v-3.1h-3.1v-6.3h-3.1v3.1h-3.1v-3.1h-6.3V110h3.1v-3.1h12.6v3.1h-3.1v3.1h3.1v3.1h3.1V110h3.1v6.3h3.1v-3.1h3.1V110h-3.1v-3.1h-6.3
		v-3.1h-18.9v3.1h-6.3v3.1h3.1v9.4h3.1L336.5,122.5L336.5,122.5z M352.2,122.5v3.1h3.1v-3.1H352.2z M355.4,122.5h3.1v3.1h-3.1v3.1
		h3.1v3.1h6.3v-6.3h-3.1v-6.3h-6.3V122.5z M355.4,153.9v3.1h3.1v-3.1H355.4z M358.5,153.9h3.1v3.1h3.1v-22h-6.3v3.1h3.1v3.1h-3.1
		v3.1h3.1v6.3h-3.1C358.5,150.8,358.5,153.9,358.5,153.9z M355.4,157.1h-3.1v3.1h3.1V157.1z M358.5,163.3h3.1v-3.1h-3.1V163.3z
		 M361.6,163.3v9.4h-3.1v3.1h3.1v3.1h-3.1v3.1h6.3v-18.8C364.8,163.3,361.6,163.3,361.6,163.3z M352.2,182.2v3.1h3.1v-3.1H352.2z
		 M349.1,188.5v6.3h-3.1v-3.1h-3.1v3.1h-3.1v9.4h6.3v-6.3h3.1v9.4h3.1v-3.1h6.3v3.1h6.3v-22h-3.1v3.1h-3.1v3.1h-3.1v3.1h6.3v3.1
		h-3.1v3.1h-6.3v-3.1h3.1v-3.1h-3.1v-6.3C352.2,188.5,349.1,188.5,349.1,188.5z M339.7,185.3v-3.1h-3.1v3.1H339.7z M336.5,182.2V179
		h-3.1v3.1H336.5z M333.4,179v-3.1h3.1v-6.3h-3.1v3.1h-3.1v-3.1h3.1v-3.1h-3.1v-3.1h-3.1v9.4H324v-3.1h-3.1v3.1h-6.3v3.1h3.1v3.1
		h6.3v-3.1h3.1v3.1C327.1,179,333.4,179,333.4,179z M317.7,179h-3.1v3.1h3.1V179z M320.8,169.6v-3.1h3.1v-6.3h6.3v-3.1h-3.1v-3.1
		H324v-3.1h-3.1v3.1h-6.3v3.1h3.1v3.1h3.1v3.1h-3.1v3.1h-3.1v3.1H320.8z M317.7,163.3v-3.1h-3.1v-3.1h-3.1v-3.1h-3.1v3.1h-3.1v3.1
		h6.3v3.1H317.7z M311.4,163.3h-6.3v-3.1H302v-3.1h-3.1v9.4h6.3v6.3H302v3.1h6.3v-9.4h3.1C311.4,166.5,311.4,163.3,311.4,163.3z
		 M302,157.1h3.1v-9.4H302v3.1h-3.1v3.1h3.1V157.1L302,157.1z M305.1,147.6h3.1v3.1h3.1v3.1h3.1v-3.1h6.3v-3.1h3.1v3.1h3.1v-3.1h3.1
		v-3.1h-12.6v3.1h-6.3v-3.1h-3.1v-3.1h-3.1V147.6z M317.7,144.5v-3.1h-3.1v3.1H317.7z M330.2,144.5h3.1v-3.1h-3.1V144.5z
		 M333.4,141.4h3.1v-3.1h-3.1V141.4z M333.4,166.5h3.1v-3.1h-3.1V166.5z M336.5,163.3h3.1v-6.3h-3.1V163.3z M336.5,157.1v-3.1h-3.1
		v3.1L336.5,157.1L336.5,157.1z M333.4,128.8v3.1h3.1v-3.1H333.4z M367.9,103.7v3.1h-3.1v6.3h6.3V110h-3.1v-3.1h3.1v-3.1
		L367.9,103.7L367.9,103.7z M377.3,103.7v22h22v-22L377.3,103.7L377.3,103.7z M298.8,106.8h15.7v15.7h-15.7L298.8,106.8L298.8,106.8
		z M380.5,106.8h15.7v15.7h-15.7V106.8L380.5,106.8z M302,110v9.4h9.4V110H302z M383.6,110v9.4h9.4V110H383.6z M367.9,116.2v3.1h3.1
		v-3.1H367.9z M371.1,119.4v6.3h3.1v-6.3H371.1z M364.8,122.5v3.1h3.1v-3.1H364.8z M295.7,128.8v3.1h3.1v3.1h3.1v-6.3
		C302,128.8,295.7,128.8,295.7,128.8z M308.3,128.8v3.1h-3.1v3.1h6.3v-3.1h6.3v-3.1C317.7,128.8,308.3,128.8,308.3,128.8z
		 M311.4,135.1v3.1h9.4v-3.1H311.4z M345.9,128.8h3.1v3.1h-3.1V128.8z M364.8,128.8v3.1h3.1v6.3h-3.1v3.1h12.6v-9.4h-3.1v3.1h-3.1
		v-3.1h-3.1v-3.1C367.9,128.8,364.8,128.8,364.8,128.8z M377.3,141.4v3.1h3.1v-3.1H377.3z M380.5,128.8v9.4h3.1v-9.4H380.5z
		 M386.8,128.8v3.1h12.6v-3.1H386.8z M324,135.1v6.3h3.1v-3.1h3.1v-3.1H324z M386.8,135.1v6.3h3.1v-3.1h3.1v-3.1
		C393,135.1,386.8,135.1,386.8,135.1z M386.8,141.4h-3.1v3.1h3.1V141.4z M386.8,144.5v3.1h3.1v-3.1H386.8z M389.9,147.6v3.1h6.3
		v-3.1H389.9z M389.9,150.8h-3.1v-3.1h-6.3v3.1h3.1v3.1h-3.1v-3.1h-6.3v-3.1h-3.1v-3.1h-3.1v6.3h3.1v6.3h3.1v3.1h-3.1v-3.1h-3.1
		v-3.1h-3.1v6.3h3.1v3.1h-3.1v6.3h3.1v3.1h-3.1v3.1h9.4v3.1h-3.1v3.1h-3.1V179h-3.1v3.1h3.1v3.1h-3.1v3.1h3.1v-3.1h3.1v9.4h6.3v3.1
		h-6.3v3.1h-6.3v3.1h6.3v3.1h3.1V201h6.3v-6.3h3.1v6.3h3.1v-3.1h3.1v3.1h6.3v-3.1h3.1v-6.3h-3.1v3.1h-6.3v-3.1h-3.1v-6.3h3.1v3.1
		h6.3V179H393v3.1h-3.1V179h-3.1v-6.3h-3.1v-3.1h-3.1v6.3h3.1v3.1h-6.3v-9.4h-3.1v3.1h-3.1v-3.1h-3.1v-3.1h3.1v3.1h3.1v-3.1h3.1v3.1
		h3.1v-9.4h-3.1v-3.1h3.1v3.1h3.1v-3.1h3.1v-3.1h3.1C389.9,153.9,389.9,150.8,389.9,150.8z M386.8,157.1v3.1h3.1v-3.1H386.8z
		 M389.9,160.2v3.1h6.3v-3.1H389.9z M383.6,169.6h3.1v3.1h3.1v3.1h6.3v-3.1H393v-3.1h-3.1v-3.1h-3.1v-3.1h-3.1L383.6,169.6
		L383.6,169.6z M389.9,201h-3.1v3.1h3.1V201z M386.8,204.2h-3.1V201h-3.1v6.3h6.3C386.8,207.3,386.8,204.2,386.8,204.2z
		 M371.1,197.9v-3.1h-3.1v-3.1h-3.1v3.1h3.1v3.1L371.1,197.9L371.1,197.9z M298.8,141.4v3.1h3.1v-3.1H298.8z M393,141.4v3.1h6.3
		v-3.1H393z M396.2,153.9v3.1h3.1v-3.1H396.2z M396.2,166.5v3.1h3.1v-3.1H396.2z M298.8,179v3.1h3.1V179H298.8z M305.1,179v3.1h3.1
		V179H305.1z M320.8,182.2v3.1h6.3v3.1h-6.3v6.3h12.6v3.1h3.1v-9.4h-3.1v3.1h-3.1v-9.4C330.2,182.2,320.8,182.2,320.8,182.2z
		 M333.4,197.9h-6.3v3.1h3.1v6.3h6.3V201h-3.1C333.4,201,333.4,197.9,333.4,197.9z M327.1,201h-6.3v6.3h3.1v-3.1h3.1V201z
		 M374.2,182.2h9.4v9.4h-9.4V182.2z M295.7,185.3v22h22v-22H295.7z M377.3,185.3v3.1h3.1v-3.1H377.3z M298.8,188.5h15.7v15.7h-15.7
		L298.8,188.5L298.8,188.5z M302,191.6v9.4h9.4v-9.4H302z M396.2,204.2v3.1h3.1v-3.1H396.2z M1.6,1"/>
	<g>
		<path class="st6" d="M1.6,1"/>
	</g>
	<path class="st6" d="M1.6,1"/>
</g>
</svg>
