<svg xmlns="http://www.w3.org/2000/svg" viewBox="0 0 64 64"><path fill="#efd8be" d="M54,43l-2-28c0-1.105-0.895-2-2-2H6c-1.105,0-2,0.895-2,2v28c0,1.105,0.895,2,2,2h46 C53.105,45,54,44.105,54,43z"></path><path fill="#faefde" d="M43.667,53H12c-1.105,0-2-0.895-2-2V21c0-1.105,0.895-2,2-2h46c1.105,0,2,0.895,2,2v15.583"></path><path fill="#efd8be" d="M44,53H12c-1.105,0-2-0.895-2-2v-3h32L44,53z"></path><path fill="#f9f9f9" d="M60,20.551v-1.375C60,19.079,57.105,19,56,19H12c-1.105,0-2,0.079-2,0.176v2.647 C10,21.921,10.895,22,12,22h29.667H60v-1"></path><path fill="#8d6c9f" d="M43.667,54H12c-1.654,0-3-1.346-3-3V21c0-1.654,1.346-3,3-3h46c1.654,0,3,1.346,3,3v19h-2V21 c0-0.551-0.449-1-1-1H12c-0.551,0-1,0.449-1,1v30c0,0.551,0.449,1,1,1h31.667V54z"></path><path fill="#8d6c9f" d="M10,46H6c-1.654,0-3-1.346-3-3V15c0-1.654,1.346-3,3-3h44c1.654,0,3,1.346,3,3v3.917h-2V15 c0-0.551-0.449-1-1-1H6c-0.551,0-1,0.449-1,1v28c0,0.551,0.449,1,1,1h4V46z"></path><path fill="#8d6c9f" d="M34.01 39.551c-.608 0-1.221-.184-1.744-.554L9.422 22.816l1.156-1.632 22.844 16.181c.346.245.811.245 1.156 0l24.876-16.203 1.092 1.676L35.702 39.019C35.203 39.373 34.609 39.551 34.01 39.551zM10.001 46.549c-.312 0-.62-.146-.815-.42-.32-.45-.216-1.074.234-1.395l12-8.549c.449-.321 1.074-.215 1.395.234.32.45.216 1.074-.234 1.395l-12 8.549C10.404 46.489 10.202 46.549 10.001 46.549z"></path><path fill="#72caaf" d="M51 36A12 12 0 1 0 51 60A12 12 0 1 0 51 36Z"></path><path fill="#8d6c9f" d="M51 61c-7.168 0-13-5.832-13-13s5.832-13 13-13 13 5.832 13 13S58.168 61 51 61zM51 37c-6.065 0-11 4.935-11 11s4.935 11 11 11 11-4.935 11-11S57.065 37 51 37zM14 50c-.552 0-1-.448-1-1v-2c0-.552.448-1 1-1s1 .448 1 1v2C15 49.552 14.552 50 14 50zM19 50c-.552 0-1-.448-1-1v-2c0-.552.448-1 1-1s1 .448 1 1v2C20 49.552 19.552 50 19 50zM24 50c-.552 0-1-.448-1-1v-2c0-.552.448-1 1-1s1 .448 1 1v2C25 49.552 24.552 50 24 50zM29 50c-.552 0-1-.448-1-1v-2c0-.552.448-1 1-1s1 .448 1 1v2C30 49.552 29.552 50 29 50zM34 50c-.552 0-1-.448-1-1v-2c0-.552.448-1 1-1s1 .448 1 1v2C35 49.552 34.552 50 34 50z"></path><path fill="#faefde" d="M56.923,48.382c0.101-0.245,0.101-0.52,0-0.764c-0.051-0.122-0.124-0.233-0.216-0.325l-5-5 c-0.391-0.391-1.023-0.391-1.414,0s-0.391,1.023,0,1.414L53.586,47H44c-0.552,0-1,0.448-1,1s0.448,1,1,1h9.586l-3.293,3.293 c-0.391,0.391-0.391,1.023,0,1.414C50.488,53.902,50.744,54,51,54s0.512-0.098,0.707-0.293l5-5 C56.799,48.615,56.872,48.505,56.923,48.382z"></path></svg>