<svg xmlns="http://www.w3.org/2000/svg" xmlns:xlink="http://www.w3.org/1999/xlink" viewBox="0 0 26.67 32"><defs><style>.cls-1{fill:none;}.cls-2{clip-path:url(#clip-path);}</style><clipPath id="clip-path" transform="translate(-2.67 0)"><rect class="cls-1" width="32" height="32"/></clipPath></defs><g id="Capa_2" data-name="Capa 2"><g id="Capa_1-2" data-name="Capa 1"><g class="cls-2"><path d="M4.26,16.67l0-.15,0-.15a.17.17,0,0,0,0-.07l.09-.62,2-13.88L16.8,5.93l.09,0,3.3,1.33,0,0a11.75,11.75,0,0,1,7.53,9.38l0,.17v.06a11.73,11.73,0,0,1-5.24,11.13l-1.23-2.12L24,16.05A.29.29,0,0,0,24,16a.73.73,0,0,0-.53-.83.75.75,0,0,0-.91.52l-2.29,8.5-2.73-4.68,1.86-6.86s0,0,0-.08A.73.73,0,0,0,18,12.21L16.5,17.68,14.36,14l1.11-4.12s0-.06,0-.09a.74.74,0,0,0-1.44-.31l-.74,2.73-2-3.49a.75.75,0,0,0-1-.27A.71.71,0,0,0,9.91,9a.72.72,0,0,0,.09.49l2,3.47L9.28,12.2a.74.74,0,0,0-.9.52s0,.06,0,.09a.72.72,0,0,0,.53.82l4.18,1.11,2.13,3.67L9.72,17a.74.74,0,0,0-.91.51s0,.06,0,.09a.72.72,0,0,0,.53.83l6.93,1.84L19,24.88,10.42,22.6a.74.74,0,0,0-.9.52s0,.06,0,.09A.74.74,0,0,0,10,24l10,2.65,1.23,2.11A11.92,11.92,0,0,1,5.72,24.17,11.69,11.69,0,0,1,4.25,16.7v0Zm25.07,1.75h0a13,13,0,0,0-1.78-6.75,13.23,13.23,0,0,0-6.78-5.72l-.07,0L12,2.44l-.14-.07L6.1.05a.75.75,0,0,0-.53,0,.77.77,0,0,0-.19.08A.71.71,0,0,0,5,.65l-.85,6.1a.59.59,0,0,0,0,.23l-.8,5.57a.5.5,0,0,0,0,.13L3,15.39l-.11.76v.08a13.07,13.07,0,0,0,1.61,8.69A13.4,13.4,0,0,0,22,30.09l.46.76.46.79a.73.73,0,0,0,.63.36.69.69,0,0,0,.37-.1.72.72,0,0,0,.36-.53.71.71,0,0,0-.09-.49l-.43-.75-.45-.8.78-.54a11.92,11.92,0,0,0,1.37-1.19l0-.05a13.18,13.18,0,0,0,3.86-9.13" transform="translate(-2.67 0)"/></g></g></g></svg>