<?xml version="1.0" encoding="utf-8"?>
<!-- Generator: Adobe Illustrator 24.1.0, SVG Export Plug-In . SVG Version: 6.00 Build 0)  -->
<svg version="1.1" id="Capa_1" xmlns="http://www.w3.org/2000/svg" xmlns:xlink="http://www.w3.org/1999/xlink" x="0px" y="0px"
	 viewBox="0 0 512 512" style="enable-background:new 0 0 512 512;" xml:space="preserve">
<g>
	<path d="M300.7,507.7c-1.5,0-3,0-4.5-0.1c-46.5-1.3-90-23-125.6-62.8C9.5,264.7-0.9,13.1-1,10.6c-0.1-2,0.7-4,2.1-5.4
		c1.4-1.5,3.4-2.3,5.4-2.1c2.5,0.1,254.1,10.5,434.2,171.7c39.8,35.6,61.5,79,62.8,125.6c1.4,50.8-21.4,103.6-62.5,144.7
		C401.1,485,350.2,507.7,300.7,507.7L300.7,507.7z M430.7,434.7L430.7,434.7c38.3-38.3,59.6-87.2,58.3-134
		c-1.2-43-20.7-81.8-58-115.1C272.9,44.2,58.1,21.4,14.1,18.2c3.3,44,26,258.7,167.5,416.9c33.3,37.3,72.1,56.8,115.1,58
		C343.6,494.2,392.3,473.1,430.7,434.7L430.7,434.7z"/>
	<path d="M503.7,515.1c-1.9,0-3.8-0.8-5.2-2.1L174.2,188.6c-2.7-2.8-2.7-7.3,0-10.2c2.8-2.9,7.4-3,10.3-0.2l324.3,324.3
		c1.4,1.4,2.1,3.2,2.1,5.2C511,511.8,507.7,515.1,503.7,515.1L503.7,515.1z"/>
	<path d="M166.5,245.1c0-4,3.3-7.3,7.3-7.3h67.3c4,0,7.3,3.3,7.3,7.3s-3.3,7.3-7.3,7.3h-67.3C169.7,252.4,166.5,249.1,166.5,245.1z"
		/>
	<path d="M218.4,312.5c0-4,3.3-7.3,7.3-7.3h82.6c4,0,7.3,3.3,7.3,7.3s-3.3,7.3-7.3,7.3h-82.6C221.7,319.8,218.4,316.5,218.4,312.5z"
		/>
	<path d="M262.3,387.1c0-4,3.3-7.3,7.3-7.3H383c4,0,7.3,3.3,7.3,7.3s-3.3,7.3-7.3,7.3H269.6C265.6,394.4,262.3,391.1,262.3,387.1z"
		/>
	<path d="M204.4,215.9v-67.3c0-4,3.3-7.3,7.3-7.3c4,0,7.3,3.3,7.3,7.3v67.2c0,4-3.3,7.3-7.3,7.3
		C207.7,223.2,204.5,219.9,204.4,215.9z"/>
	<path d="M271.8,283.2v-82.6c0-4,3.3-7.3,7.3-7.3s7.3,3.3,7.3,7.3v82.6c0,4-3.3,7.3-7.3,7.3C275.1,290.5,271.8,287.2,271.8,283.2z"
		/>
	<path d="M346.4,357.8V244.4c0-4,3.3-7.3,7.3-7.3c4,0,7.3,3.3,7.3,7.3v113.4c0,4-3.3,7.3-7.3,7.3S346.4,361.9,346.4,357.8z"/>
</g>
</svg>
