<svg xmlns="http://www.w3.org/2000/svg" viewBox="0 0 64 64"><path fill="#ed7899" d="M32 2A11 11 0 1 0 32 24A11 11 0 1 0 32 2Z"></path><path fill="#fff7f0" d="M36,15h-8c-0.552,0-1-0.448-1-1v-2c0-0.552,0.448-1,1-1h8c0.552,0,1,0.448,1,1v2 C37,14.552,36.552,15,36,15z"></path><path fill="#f7cc8f" d="M61,25v16c0,1.1-0.9,2-2,2H5c-1.1,0-2-0.9-2-2V25c0-1.1,0.9-2,2-2h54C60.1,23,61,23.9,61,25z"></path><path fill="#fff7f0" d="M16 43l-.5 3-2.36 14.16c-.08.49-.5.84-.99.84h-2.09c-.58 0-1.03-.48-1-1.06L9.83 46 10 43H16zM54.94 59.94c.03.58-.42 1.06-1 1.06h-2.09c-.49 0-.91-.35-.99-.84L48.5 46 48 43h6l.17 3L54.94 59.94zM12.464 23.292L3.684 23.113 3.147 37.984z"></path><path fill="#fff7f0" d="M23 23L11 43 21 43 33 23zM43 23L31 43 41 43 53 23zM61 26.33V41c0 1.1-.9 2-2 2h-8L61 26.33z"></path><path fill="#efd8be" d="M16 43L15.5 46 9.83 46 10 43zM54.17 46L48.5 46 48 43 54 43z"></path><path fill="#8d6c9f" d="M38,14v-2c0-1.103-0.897-2-2-2h-8c-1.103,0-2,0.897-2,2v2c0,1.103,0.897,2,2,2h8 C37.103,16,38,15.103,38,14z M28,14v-2h8l0.001,2H28z"></path><path fill="#8d6c9f" d="M59,22H39.92c2.5-2.2,4.08-5.42,4.08-9c0-6.62-5.38-12-12-12S20,6.38,20,13c0,3.58,1.58,6.8,4.08,9 H5c-1.65,0-3,1.35-3,3v16c0,1.65,1.35,3,3,3h3.943L8.061,59.888c-0.031,0.546,0.167,1.088,0.543,1.486S9.51,62,10.057,62h2.097 c0.98,0,1.81-0.702,1.973-1.671L16.847,44h30.305l2.721,16.331C50.037,61.298,50.866,62,51.847,62h2.097 c0.547,0,1.077-0.228,1.453-0.626s0.574-0.939,0.543-1.485L55.057,44H59c1.65,0,3-1.35,3-3V25C62,23.35,60.65,22,59,22z M22,13 c0-5.51,4.49-10,10-10s10,4.49,10,10c0,3.95-2.31,7.38-5.65,9h-8.7C24.31,20.38,22,16.95,22,13z M5,24h6.234L4,36.056V25 C4,24.45,4.45,24,5,24z M5,42c-0.55,0-1-0.45-1-1v-1.056L13.566,24h7.668l-10.8,18h-1.38H5z M12.152,60h-2.096l0.89-16h3.873 L12.152,60z M12.766,42l10.8-18H27.2h4.034L22.52,38.524c-0.284,0.474-0.131,1.088,0.343,1.372 c0.161,0.097,0.339,0.143,0.514,0.143c0.34,0,0.671-0.173,0.858-0.485L33.566,24H36.8h4.434l-10.8,18H17.181H12.766z M42.766,42 l5.602-9.337c0.284-0.474,0.131-1.088-0.343-1.372c-0.475-0.284-1.088-0.13-1.372,0.343L40.434,42h-7.668l10.8-18H59 c0.55,0,1,0.45,1,1v1.056L50.434,42h-3.614H42.766z M53.943,60h-2.087h-0.01l-2.666-16h3.873L53.943,60z M59,42h-4.054h-2.18 L60,29.944V41C60,41.55,59.55,42,59,42z"></path><path fill="#8d6c9f" d="M27 54c-.553 0-1 .448-1 1v2c0 .552.447 1 1 1s1-.448 1-1v-2C28 54.448 27.553 54 27 54zM32 54c-.553 0-1 .448-1 1v2c0 .552.447 1 1 1s1-.448 1-1v-2C33 54.448 32.553 54 32 54zM37 54c-.553 0-1 .448-1 1v2c0 .552.447 1 1 1s1-.448 1-1v-2C38 54.448 37.553 54 37 54zM42 54c-.553 0-1 .448-1 1v2c0 .552.447 1 1 1s1-.448 1-1v-2C43 54.448 42.553 54 42 54zM47 54c-.553 0-1 .448-1 1v2c0 .552.447 1 1 1s1-.448 1-1v-2C48 54.448 47.553 54 47 54zM22 54c-.553 0-1 .448-1 1v2c0 .552.447 1 1 1s1-.448 1-1v-2C23 54.448 22.553 54 22 54zM17 54c-.553 0-1 .448-1 1v2c0 .552.447 1 1 1s1-.448 1-1v-2C18 54.448 17.553 54 17 54zM50.501 29.109l1.356-2.261c.284-.474.131-1.088-.343-1.372-.475-.284-1.088-.13-1.372.343l-1.356 2.261c-.284.474-.131 1.088.343 1.372.161.097.339.143.514.143C49.982 29.594 50.313 29.421 50.501 29.109z"></path></svg>