<svg xmlns="http://www.w3.org/2000/svg" viewBox="0 0 200 200"><defs><style>.cls-1{fill:none;}.cls-2{fill:#010101;}</style></defs><g id="Capa_2" data-name="Capa 2"><g id="Capa_2-2" data-name="Capa 2"><rect class="cls-1" width="200" height="200"/><path class="cls-2" d="M71.47,50.21H84.38v90H71.47Zm55.35,0V61.07h10v79.14h12.51V61.07h9.84V50.21Zm-86.5,90H52.83V99.38H63.49V88.67H52.83V61.07h13.9V50.21H40.32Zm88.16-5.9v5.9h-11.7q0-5.11,0-10.27c0-3.43,0-6.87-.07-10.3-.07-6.84-.23-13.66-.59-20.26H102.34v40.83H91.11v-90h26.4a68.22,68.22,0,0,1,4,9.62,93.12,93.12,0,0,1,2.82,10.42c.77,3.58,1.38,7.27,1.87,11s.86,7.61,1.15,11.49.5,7.82.64,11.77.25,7.94.31,11.91.09,8,.11,11.93C128.47,130.36,128.47,132.34,128.48,134.31ZM115.31,88.67c-1-10.29-2.73-19.82-5.72-27.6h-7.25v27.6Z"/></g></g></svg>