<svg xmlns="http://www.w3.org/2000/svg" viewBox="0 0 200 200"><defs><style>.cls-1{fill:none;}.cls-2{fill:#1f3a6e;}.cls-3{fill:#fff;}</style></defs><g id="Capa_2" data-name="Capa 2"><g id="Capa_2-2" data-name="Capa 2"><rect class="cls-1" width="200" height="200"/><g id="layer1"><path id="path737" class="cls-2" d="M100,67.63c-43.71,0-78.76,13.11-78.76,29.54S56.57,126.7,100,126.7s78.76-13.25,78.76-29.53S143.43,67.63,100,67.63"/><path id="path741" class="cls-3" d="M131,103.42c0,.14.2.27.37.33s.1.06,0,.2a16,16,0,0,1-1.56,2.57,9.35,9.35,0,0,1-2,2.14c-1.16,1-2.78,2-4.11,1.31a2,2,0,0,1-.84-1.81,9.5,9.5,0,0,1,2.42-5.74c1.89-2.33,4-3.54,5.36-2.88s1,2.32.33,3.61a.38.38,0,0,0,0,.27m15.25-14.73c.1-.18,0-.31-.24-.31h-4c-.29,0-.44,0-.58.31-.46.88-6,9.21-7.06,10.83-.17.25-.38.22-.41-.07a3.46,3.46,0,0,0-2.24-2.59,5.71,5.71,0,0,0-3-.35,10.64,10.64,0,0,0-4.89,2.3c-2.16,1.65-4,3.77-6.43,5.35-1.31.85-3.11,1.6-4.31.48s-1-3.25.7-5c.17-.18.39,0,.35.13a2.23,2.23,0,0,0,.63,2.11,2.37,2.37,0,0,0,2.66.29,3.48,3.48,0,0,0,1.85-2.66,3,3,0,0,0-2.79-3.46,5.57,5.57,0,0,0-4,1.45A7.63,7.63,0,0,0,111,99.26c-.14.19-.35.21-.34-.08.06-2.26-.88-3.54-2.75-3.58a6.91,6.91,0,0,0-4.22,1.72,38.4,38.4,0,0,0-3.73,3.8c-.16.17-.29.16-.33-.16a7.69,7.69,0,0,0-1.11-4,.93.93,0,0,0-1.2-.3,8.75,8.75,0,0,0-1.41.84.8.8,0,0,0-.24.9,10.47,10.47,0,0,1-.39,6.94,7.66,7.66,0,0,1-4.36,4.36,2.9,2.9,0,0,1-3.38-.91c-1.11-1.54-.66-4.22,1-6.44a12.41,12.41,0,0,1,5.68-4,.32.32,0,0,0,.23-.46c-.11-.35-.3-.82-.37-1-.2-.51-.74-.6-1.4-.53a12,12,0,0,0-4.28,1.44c-3.57,1.91-5.36,5.62-6.15,7.6a7.64,7.64,0,0,1-1.12,2.07,19.89,19.89,0,0,1-2.56,2.49.45.45,0,0,0-.11.52,5.37,5.37,0,0,0,1,1.31.56.56,0,0,0,.55-.11,13.4,13.4,0,0,0,2.52-2.24c.18-.23.37-.14.47.21a5.6,5.6,0,0,0,3.58,3.81c3.28,1.1,6.68-.5,9.25-3.28a36.42,36.42,0,0,0,2.84-3.69,34.29,34.29,0,0,1,5.64-6.13c.91-.7,2-1.23,2.53-.87s.58.93-.12,2.21c-2.54,4.63-6.27,10.07-7,11.4-.12.22,0,.4.23.4h3.85a.46.46,0,0,0,.39-.24c2-3,3.78-5.95,5.74-8.95.11-.18.22,0,.22,0a5,5,0,0,0,.62,2.28,3.44,3.44,0,0,0,3,1.66,5.59,5.59,0,0,0,2.4-.51,8.54,8.54,0,0,0,2-1.06c.29-.2.34.14.33.19-.45,2.42.11,5.29,2.52,6.48,2.87,1.42,6-.58,7.85-2.38.18-.17.37-.15.39.22a3.33,3.33,0,0,0,.92,2.08c1.53,1.53,4.6.92,7.69-1.47a38.6,38.6,0,0,0,5.93-6,.28.28,0,0,0,0-.38c-.29-.29-.7-.64-1-.9a.36.36,0,0,0-.43,0,49.87,49.87,0,0,1-6.15,5.64c-.84.59-2.19,1.06-2.79.24a1.35,1.35,0,0,1,0-1.33c.73-1.81,12.27-19.38,12.86-20.41"/><path id="path745" class="cls-3" d="M92,90.81c0,.26.15.31.27.29a2.82,2.82,0,0,0,1.61-1.16c.35-.51.51-1.24.16-1.53a.9.9,0,0,0-1.17.13A2.61,2.61,0,0,0,92,90.81M62.6,113.42c-4.3,0-8.09-2.63-8.52-7.23A9.25,9.25,0,0,1,56,99.5a9.51,9.51,0,0,1,5.28-3.4,2,2,0,0,1,1.73.36A.93.93,0,0,1,62.86,98a9,9,0,0,0-3.92,3.61,4.44,4.44,0,0,0,.22,4.57c1.73,2.61,6.54,2.68,11-1.48a40.23,40.23,0,0,0,3.11-3.15,71.64,71.64,0,0,0,5.25-6.71.17.17,0,0,0,0-.13s-.06,0-.14-.06a8,8,0,0,0-4.76,1.68.93.93,0,0,1-1.31-.15,1,1,0,0,1,.41-1.4c2.39-1.66,5-2,7.65-2.41a.46.46,0,0,0,.34-.2c1.09-1.4,1.92-2.66,3.08-4.08a30.53,30.53,0,0,1,3.85-3.75,16.94,16.94,0,0,1,3.7-2.43c.28-.15,0-.32-.12-.32-5.88-1.1-12-2.53-17.83-.37-4,1.51-5.82,4.71-5,6.86.61,1.52,2.61,1.77,4.48.85a10.09,10.09,0,0,0,4-3.57c.57-.88,1.77-.24,1.12,1.28-1.71,4-5,7.2-9,7.34a5.22,5.22,0,0,1-5.56-5.46c0-6.05,6.76-10.05,13.85-10.64,8.53-.71,16.62,1.57,25.09,2.59a54.5,54.5,0,0,0,19.25-.69,1,1,0,0,1,1.27,1.1C123,82,122.1,83.08,120,84.26A15.84,15.84,0,0,1,112.27,86c-6.46,0-12.47-2.47-18.7-3.82,0,.27.08.6-.15.77-3.45,2.54-6.57,5.13-8.65,8.75-.07.09,0,.17.09.16,1.81-.1,3.44-.14,5.13-.28.3,0,.31-.1.28-.31a4.22,4.22,0,0,1,1.32-3.66,2.46,2.46,0,1,1,3.86,3,4.19,4.19,0,0,1-2.51,2s-.2,0-.17.22,1.32,1,1.43,1.18a.6.6,0,0,1-.15.67.79.79,0,0,1-.62.3,1.39,1.39,0,0,1-.63-.23A6,6,0,0,1,91,93.42c-.16-.2-.24-.2-.65-.18-1.83.1-4.69.38-6.62.62-.47.06-.54.15-.64.31-3.08,5.09-6.37,10.57-10,14.25-3.88,3.93-7.1,5-10.53,5"/><path id="path749" class="cls-3" d="M100,72.46c-40.22,0-72.82,11.12-72.82,24.71s32.6,24.72,72.82,24.72,72.81-11.12,72.81-24.72S140.21,72.46,100,72.46m0,51.67c-41.68,0-75.47-12.07-75.47-27S58.32,70.22,100,70.22s75.46,12.07,75.46,27-33.79,27-75.46,27"/></g></g></g></svg>