<svg xmlns="http://www.w3.org/2000/svg" viewBox="0 0 32 32"><g id="Capa_2" data-name="Capa 2"><g id="Capa_1-2" data-name="Capa 1"><path d="M17.45,0a3.6,3.6,0,0,1,3.64,3.64v6.54h1.46a3.6,3.6,0,0,1,3.63,3.64V25.45a2.19,2.19,0,1,0,4.37,0V12.22a2.26,2.26,0,0,1-.73.14,2.14,2.14,0,0,1-2.18-2.18,2.35,2.35,0,0,1,1.31-2L27.13,6.33a.72.72,0,0,1,1-1L31.78,9a.63.63,0,0,1,.22.5v16a3.64,3.64,0,1,1-7.27,0V13.82a2.14,2.14,0,0,0-2.18-2.18H21.09v16h.13A2.18,2.18,0,0,1,21.09,32H2.18a2.18,2.18,0,0,1,0-4.36v-24A3.6,3.6,0,0,1,5.82,0Zm0,1.45H5.82A2.14,2.14,0,0,0,3.64,3.64V28.36a.69.69,0,0,1-.73.73H2.18a.73.73,0,1,0,0,1.46H21.09a.73.73,0,0,0,0-1.46H5.82a.73.73,0,1,1,0-1.45H19.64v-24a2.15,2.15,0,0,0-2.19-2.19Zm0,1.46a.69.69,0,0,1,.73.73v7.27a.69.69,0,0,1-.73.73H5.82a.69.69,0,0,1-.73-.73V3.64a.69.69,0,0,1,.73-.73ZM29.82,9.45a.73.73,0,1,0,.73.73.69.69,0,0,0-.73-.73ZM16.73,4.36H6.55v5.82H16.73Z"/></g></g></svg>