<svg xmlns="http://www.w3.org/2000/svg" xmlns:xlink="http://www.w3.org/1999/xlink" viewBox="0 0 32 28"><defs><style>.cls-1{fill:none;}.cls-2{clip-path:url(#clip-path);}</style><clipPath id="clip-path" transform="translate(0 -2)"><rect class="cls-1" width="32" height="32"/></clipPath></defs><g id="Capa_2" data-name="Capa 2"><g id="Capa_1-2" data-name="Capa 1"><g class="cls-2"><path d="M28.39,2A3.58,3.58,0,0,1,32,5.55,3.56,3.56,0,0,1,29.26,9v7a.86.86,0,0,1-.87.86H16.87V23a3.61,3.61,0,1,1-1.74,0V16.85H4.48V23a3.54,3.54,0,0,1-.87,7,3.54,3.54,0,0,1-.87-7V9A3.56,3.56,0,0,1,0,5.55,3.58,3.58,0,0,1,3.61,2,3.59,3.59,0,0,1,7.23,5.55,3.56,3.56,0,0,1,4.49,9v6.15H15.13V9a3.56,3.56,0,0,1-2.74-3.44,3.61,3.61,0,0,1,7.22,0A3.56,3.56,0,0,1,16.87,9v6.15H27.51V9a3.56,3.56,0,0,1-2.74-3.44A3.59,3.59,0,0,1,28.39,2Zm0,19.84a2.52,2.52,0,0,1,2.43,2.47,2.39,2.39,0,0,1-1.21,2.12l1.63,2.71H29.33l-1.42-2.35H26.79v2.35H25.07v-7.3ZM16,24.62a1.84,1.84,0,1,0,1.87,1.83A1.85,1.85,0,0,0,16,24.62Zm-12.39,0a1.84,1.84,0,1,0,1.87,1.83A1.85,1.85,0,0,0,3.61,24.62ZM28.39,3.71a1.84,1.84,0,1,0,1.86,1.84A1.86,1.86,0,0,0,28.39,3.71ZM16,3.71a1.84,1.84,0,1,0,1.87,1.84A1.86,1.86,0,0,0,16,3.71Zm-12.39,0A1.84,1.84,0,1,0,5.48,5.55,1.86,1.86,0,0,0,3.61,3.71Z" transform="translate(0 -2)"/></g></g></g></svg>