<svg xmlns="http://www.w3.org/2000/svg" width="100" height="100" data-name="Layer 1" viewBox="0 0 100 100"><circle cx="50" cy="50" r="37" fill="#cee1f4"></circle><circle cx="48" cy="40" r="12.5" fill="#f2df5e"></circle><path fill="#472b29" d="M48,27.9A12.1,12.1,0,1,1,35.9,40,12.114,12.114,0,0,1,48,27.9m0-1.4A13.5,13.5,0,1,0,61.5,40,13.5,13.5,0,0,0,48,26.5Z"></path><line x1="48" x2="48" y1="52" y2="28" fill="none" stroke="#472b29" stroke-linecap="round" stroke-miterlimit="10" stroke-width=".5"></line><line x1="52.592" x2="43.408" y1="51.087" y2="28.913" fill="none" stroke="#472b29" stroke-linecap="round" stroke-miterlimit="10" stroke-width=".5"></line><line x1="56.485" x2="39.515" y1="48.485" y2="31.515" fill="none" stroke="#472b29" stroke-linecap="round" stroke-miterlimit="10" stroke-width=".5"></line><line x1="59.087" x2="36.913" y1="44.592" y2="35.408" fill="none" stroke="#472b29" stroke-linecap="round" stroke-miterlimit="10" stroke-width=".5"></line><line x1="60" x2="36" y1="40" y2="40" fill="none" stroke="#472b29" stroke-linecap="round" stroke-miterlimit="10" stroke-width=".5"></line><line x1="59.087" x2="36.913" y1="35.408" y2="44.592" fill="none" stroke="#472b29" stroke-linecap="round" stroke-miterlimit="10" stroke-width=".5"></line><line x1="56.485" x2="39.515" y1="31.515" y2="48.485" fill="none" stroke="#472b29" stroke-linecap="round" stroke-miterlimit="10" stroke-width=".5"></line><line x1="52.592" x2="43.408" y1="28.913" y2="51.087" fill="none" stroke="#472b29" stroke-linecap="round" stroke-miterlimit="10" stroke-width=".5"></line><circle cx="48" cy="40" r="7" fill="#84a7d7"></circle><path fill="none" stroke="#472b29" stroke-linecap="round" stroke-miterlimit="10" d="M48.5,46.965q-.247.018-.5.018a6.983,6.983,0,1,1,1.407-13.824"></path><path fill="none" stroke="#472b29" stroke-linecap="round" stroke-miterlimit="10" d="M54.983,40a6.969,6.969,0,0,1-2.541,5.388"></path><path fill="none" stroke="#472b29" stroke-linecap="round" stroke-miterlimit="10" d="M52.442,34.612a6.93,6.93,0,0,1,.836.816,7.019,7.019,0,0,1,.715.986"></path><path fill="#6673a7" d="M46,43l.88-3.51a1.341,1.341,0,0,1-.38-.99,1.5,1.5,0,0,1,3,0,1.453,1.453,0,0,1-.38.99L50,43Z"></path><path fill="none" stroke="#472b29" stroke-linecap="round" stroke-linejoin="round" stroke-width=".5" d="M46,43l.88-3.51a1.341,1.341,0,0,1-.38-.99,1.5,1.5,0,0,1,3,0,1.453,1.453,0,0,1-.38.99L50,43Z"></path><polygon fill="#fbcd59" points="28 62 30 61 46 61 47 60 50 60 50 67 47 67 46 66 38 66 37 65 36 66 34 66 33 65 32 66 30 66 28 65 28 62"></polygon><polygon fill="#eab436" points="49 60 47 60 46 61 30 61 28 62 28 63 49 63 49 60"></polygon><path fill="#472b29" d="M49.6,60.4v6.2H47.589l-.567-.579a1.4,1.4,0,0,0-1-.421H38.593l-.614-.6a1.4,1.4,0,0,0-1.928-.03l-.683.63h-.875l-.421-.5a1.4,1.4,0,0,0-1.011-.5H33a1.4,1.4,0,0,0-.99.41l-.59.59H30.414L28.4,64.252v-1.5L30.414,61.4H46.021a1.4,1.4,0,0,0,1-.421l.567-.579H49.6M51,59H47l-.979,1H29.989L27,62v3l2.989,2H32l1-1,.84,1h2.075L37,66l1.021,1h8L47,68h4V59Z"></path><path fill="#a2b3cb" d="M66,57H65v2.158h1a4.147,4.147,0,0,1,0,8.288H65V70h1c3.866,0,6-3,6-7S69.866,57,66,57Z"></path><path fill="#78a0cf" d="M72,63H69.99a4.063,4.063,0,0,0-3.92-3.84c-.05-.27-.1-.55-.16-.82l-.06-.28A3.016,3.016,0,0,0,65.41,57H66C69.87,57,72,58.99,72,63Z"></path><path fill="#472b29" d="M66.4,57.464a5.608,5.608,0,0,1,5.2,5.586v.5a5.606,5.606,0,0,1-5.2,5.585V57.464M66,56.05H65v14.5h1a7,7,0,0,0,7-7v-.5a7,7,0,0,0-7-7Z"></path><path fill="#472b29" d="M66.4,60.589a2.6,2.6,0,0,1,2.2,2.569v.288a2.6,2.6,0,0,1-2.2,2.569V60.589M66,59.158H65v8.288h1a4,4,0,0,0,4-4v-.288a4,4,0,0,0-4-4Z"></path><line x1="27.25" x2="34.75" y1="63" y2="63" fill="none" stroke="#472b29" stroke-linecap="round" stroke-miterlimit="10" stroke-width=".5"></line><line x1="37.25" x2="40" y1="63" y2="63" fill="none" stroke="#472b29" stroke-linecap="round" stroke-miterlimit="10" stroke-width=".5"></line><line x1="42.5" x2="43.5" y1="63" y2="63" fill="none" stroke="#472b29" stroke-linecap="round" stroke-miterlimit="10" stroke-width=".5"></line><path fill="#a2b3cb" d="M62.93,71a2.881,2.881,0,0,1-.52-.047l-10.445-1.91a3.082,3.082,0,0,1-2.443-2.574,19.526,19.526,0,0,1-.014-6.244,3.116,3.116,0,0,1,2.457-2.664l10.445-1.91a2.881,2.881,0,0,1,.52-.047,3.054,3.054,0,0,1,2.923,2.455l.061.286a23.84,23.84,0,0,1,0,9.916l-.061.281A3.053,3.053,0,0,1,62.93,71Z"></path><path fill="#78a0cf" d="M66.43,63H49.27a19.931,19.931,0,0,1,.24-2.78,3.1,3.1,0,0,1,2.45-2.66l10.45-1.91a3.052,3.052,0,0,1,.52-.05A2.966,2.966,0,0,1,65.41,57a3.016,3.016,0,0,1,.44,1.06l.06.28c.06.27.11.55.16.82A22.582,22.582,0,0,1,66.43,63Z"></path><path fill="#472b29" d="M62.93,56h0a2.65,2.65,0,0,1,2.531,2.139l.061.284a23.386,23.386,0,0,1,0,9.75l-.061.284A2.651,2.651,0,0,1,62.93,70.6a2.506,2.506,0,0,1-.448-.041L52.037,68.65a2.683,2.683,0,0,1-2.12-2.245l-.014-.09a18.922,18.922,0,0,1,0-6.027l.014-.089a2.68,2.68,0,0,1,2.12-2.245l10.445-1.909A2.506,2.506,0,0,1,62.93,56m0-1.4a3.978,3.978,0,0,0-.7.063l-10.445,1.91a4.076,4.076,0,0,0-3.25,3.4l-.014.09a20.365,20.365,0,0,0,0,6.472l.014.089a4.076,4.076,0,0,0,3.25,3.4L62.23,71.936a3.887,3.887,0,0,0,.7.064,4.034,4.034,0,0,0,3.9-3.246l.061-.283a24.641,24.641,0,0,0,0-10.338l-.061-.284a4.033,4.033,0,0,0-3.9-3.245Z"></path><polygon fill="#78a0cf" points="54 60.194 57 59.811 57 66.803 54 66.41 54 60.194"></polygon><polygon fill="#78a0cf" points="62 59.158 62 67.446 59 67.062 59 59.552 62 59.158"></polygon><polyline fill="none" stroke="#472b29" stroke-linecap="round" stroke-linejoin="round" stroke-width=".5" points="57 66.803 54 66.41 54 60.194 57 59.811 57 63"></polyline><line x1="57" x2="57" y1="64.58" y2="65.745" fill="none" stroke="#472b29" stroke-linecap="round" stroke-linejoin="round" stroke-width=".5"></line><polyline fill="none" stroke="#472b29" stroke-linecap="round" stroke-linejoin="round" stroke-width=".5" points="62 66.008 62 67.446 59 67.062 59 59.552 62 59.158 62 63"></polyline><circle cx="77" cy="13" r="1" fill="#f1bc19"></circle><circle cx="83" cy="15" r="4" fill="#f1bc19"></circle><circle cx="87" cy="24" r="2" fill="#8889b9"></circle><circle cx="81" cy="76" r="2" fill="#fbcd59"></circle><circle cx="15" cy="63" r="4" fill="#fbcd59"></circle><circle cx="25" cy="87" r="2" fill="#8889b9"></circle><circle cx="18.5" cy="51.5" r="2.5" fill="#fff"></circle><circle cx="79.5" cy="33.5" r="1.5" fill="#fff"></circle></svg>