<svg xmlns="http://www.w3.org/2000/svg" viewBox="0 0 200 200"><defs><style>.cls-1{fill:none;}.cls-2{fill:#151f2a;}</style></defs><g id="Capa_2" data-name="Capa 2"><g id="Capa_2-2" data-name="Capa 2"><rect class="cls-1" width="200" height="200"/><g id="svg_1" data-name="svg 1"><path id="svg_2" data-name="svg 2" class="cls-2" d="M111.53,105.41c0,.27.09.43.24.43a.72.72,0,0,0,.35-.14L157,76.6a4.34,4.34,0,0,1,2.59-.78h9.85a2.39,2.39,0,0,1,2.53,2.52V97.15c0,2.28-.5,3.6-2.51,4.81l-12,7.19a.84.84,0,0,1-.4.14c-.14,0-.29-.11-.29-.53v-22c0-.26-.07-.43-.24-.43a.64.64,0,0,0-.35.14l-32.77,21.29a4.38,4.38,0,0,1-2.52.77H99.17A2.39,2.39,0,0,1,96.64,106V78.93c0-.2-.09-.39-.26-.39a.64.64,0,0,0-.34.14l-21.62,13c-.22.14-.28.24-.28.34s0,.18.19.33l15.45,15.44c.2.2.34.36.34.53s-.23.26-.5.26h-14a3.37,3.37,0,0,1-2.53-.75l-9.37-9.35a.4.4,0,0,0-.29-.14.47.47,0,0,0-.28.09l-15.66,9.4a4.28,4.28,0,0,1-2.53.74H30.61A2.38,2.38,0,0,1,28.07,106V87.57c0-2.28.5-3.59,2.53-4.8l12-7.22a.63.63,0,0,1,.32-.1c.19,0,.29.18.29.6v24.71c0,.26.06.38.24.38a.82.82,0,0,0,.36-.15L84.46,76.55a4.33,4.33,0,0,1,2.67-.74H109a2.38,2.38,0,0,1,2.53,2.51v27.09Z"/></g></g></g></svg>