<svg xmlns="http://www.w3.org/2000/svg" width="64" height="64" viewBox="0 0 64 64"><path fill="#72caaf" d="M22.75,28.19,28,28l7-6.75L42,20l9,1,7,5,2,3-3,3-6-5H48l5,21,8,5-1,4L48,51l-2-9-2,1s-5,11-5,12-2,6-2,6H34a2,2,0,0,1-2-2V58l7-18-1-8-1-4-5.19,4L23,33l-2-2Z"></path><path fill="#bbdef9" d="M3,56V6A1,1,0,0,1,4,5H40a1,1,0,0,1,1,1V8.35A6,6,0,0,0,39.65,19c-.48.1-1,.21-1.44.35a11,11,0,0,0-4.76,2.8l-4.58,4.58c-.19.19-.44,1.29-.71,1.29H24c-1.65,0-3,.35-3,2v1c0,1.65.35,2,2,2h4.69A8.94,8.94,0,0,0,34,30.36l1.67-1.67,3,11.07L32.77,57H4A1,1,0,0,1,3,56Z"></path><path fill="#def0ff" d="M38 37l-2.27-8.32L34 30.36A8.94 8.94 0 0 1 27.69 33H23c-1.65 0-2-.35-2-2v-.61l-18 18V56a1 1 0 0 0 1 1H18zM24 28h4.17c.26 0 .52-1.11.71-1.29l4.58-4.58a11 11 0 0 1 4.76-2.8c.47-.14 2.3-.23 2.78-.33 0-1 0-2-4-4.63L23.37 28zM40 5H36L3 38v6L41 6A1 1 0 0 0 40 5zM3 32L3 35 33 5 30 5 3 32z"></path><path fill="#fff" d="M21.5 11L22.74 13.26 25 14.5 22.74 15.74 21.5 18 20.26 15.74 18 14.5 20.26 13.26 21.5 11zM10.42 23L11.27 24.56 12.84 25.42 11.27 26.27 10.42 27.84 9.56 26.27 8 25.42 9.56 24.56 10.42 23zM18.65 36L19.23 37.06 20.3 37.65 19.23 38.23 18.65 39.3 18.07 38.23 17 37.65 18.07 37.06 18.65 36z"></path><path fill="#faefde" d="M41 7A5 5 0 1 0 41 17A5 5 0 1 0 41 7Z"></path><path fill="#8d6c9f" d="M18 50a1 1 0 0 0-1 1v2a1 1 0 0 0 2 0V51A1 1 0 0 0 18 50zM13 50a1 1 0 0 0-1 1v2a1 1 0 0 0 2 0V51A1 1 0 0 0 13 50zM8 50a1 1 0 0 0-1 1v2a1 1 0 0 0 2 0V51A1 1 0 0 0 8 50zM23 50a1 1 0 0 0-1 1v2a1 1 0 0 0 2 0V51A1 1 0 0 0 23 50zM28 50a1 1 0 0 0-1 1v2a1 1 0 0 0 2 0V51A1 1 0 0 0 28 50z"></path><path fill="#8d6c9f" d="M60.34,51,54,47.54a1,1,0,0,1-.49-.63L52,40.78,49.42,28a3,3,0,0,1,2,.88l2.83,2.83a3.92,3.92,0,0,0,5.41,0,3.83,3.83,0,0,0,0-5.41l-2-2a18.92,18.92,0,0,0-10-5.26l-.85-.16A21.13,21.13,0,0,0,42,18.54v-.63a6,6,0,0,0-.16-11.84A3,3,0,0,0,39,4H5A3,3,0,0,0,2,7V55a3,3,0,0,0,3,3H31.21a3.71,3.71,0,0,0,3.72,4h.17a3.76,3.76,0,0,0,3.51-2.43l6-16,1.18,5a9,9,0,0,0,4.84,6l6.33,3.06A3.74,3.74,0,0,0,60.34,51ZM45,12a4,4,0,1,1-4-4A4,4,0,0,1,45,12ZM32.55,53.88,31.77,56H5a1,1,0,0,1-1-1V7A1,1,0,0,1,5,6H39a1,1,0,0,1,.55.19A6,6,0,0,0,40,17.91v.83a21,21,0,0,0-2.78.59,11,11,0,0,0-4.76,2.8l-4.58,4.58a1,1,0,0,1-.71.29H23.5a3.5,3.5,0,0,0,0,7h4.19A8.94,8.94,0,0,0,34,31.36l1.67-1.67,2,10.07L33.81,50.45A1,1,0,0,0,33,50a1,1,0,0,0-1,1v2A1,1,0,0,0,32.55,53.88Zm27.61,1a1.74,1.74,0,0,1-2.37.92l-6.33-3.06a7,7,0,0,1-3.76-4.69L46,40.77A1,1,0,0,0,45,40h-.55a1,1,0,0,0-.94.65L36.73,58.87A1.75,1.75,0,0,1,35.1,60h-.17a1.74,1.74,0,0,1-1.63-2.34l6.42-17.47a1,1,0,0,0,0-.54L37.31,27.47A1,1,0,0,0,35.63,27l-3,3A7,7,0,0,1,27.69,32H23.5a1.5,1.5,0,0,1,0-3h3.67a3,3,0,0,0,2.12-.88l4.58-4.58a9,9,0,0,1,3.89-2.29,19.24,19.24,0,0,1,8.67-.43l.85.16a16.92,16.92,0,0,1,9,4.71l2,2a1.83,1.83,0,0,1,0,2.59,1.87,1.87,0,0,1-2.59,0l-2.83-2.83A5,5,0,0,0,49.34,26H48.2a1,1,0,0,0-1,1.2l2.8,14v.05l1.58,6.16a3,3,0,0,0,1.47,1.89l6.29,3.42A1.74,1.74,0,0,1,60.16,54.9Z"></path></svg>