<svg xmlns="http://www.w3.org/2000/svg" xmlns:xlink="http://www.w3.org/1999/xlink" viewBox="0 0 32 23.04"><defs><style>.cls-1{fill:none;}.cls-2{clip-path:url(#clip-path);}</style><clipPath id="clip-path" transform="translate(0 -4.48)"><rect class="cls-1" width="32" height="32"/></clipPath></defs><g id="Capa_2" data-name="Capa 2"><g id="Capa_1-2" data-name="Capa 1"><g class="cls-2"><path d="M21.33,4.48a.56.56,0,0,1,.54.58v2.3a.56.56,0,0,1-.54.58H17.6V9.09h3.2a.52.52,0,0,1,.45.26l2,3.19h3.45a.56.56,0,0,1,.53.58v4h1.07V14.27a.55.55,0,0,1,.53-.57h1.6a.55.55,0,0,1,.38.16L31.84,15a.58.58,0,0,1,.16.4v9.22a.62.62,0,0,1-.16.41L30.78,26.2a.52.52,0,0,1-.38.17H28.8a.56.56,0,0,1-.53-.58v-4H27.2v5.18a.56.56,0,0,1-.53.58H11.2a.54.54,0,0,1-.45-.26l-2-3.2H5.87a.55.55,0,0,1-.54-.57V20H4.27v3.46a.55.55,0,0,1-.54.57H1.6a.55.55,0,0,1-.53-.57v-5l-1-1.58A.62.62,0,0,1,0,16.58V14.85a.57.57,0,0,1,.09-.32L1.16,12.8a.52.52,0,0,1,.44-.26H3.73a.56.56,0,0,1,.54.58v3.46H5.33V13.12a.56.56,0,0,1,.54-.58H8.78l2-3.19a.5.5,0,0,1,.44-.26h3.2V7.94H10.67a.56.56,0,0,1-.54-.58V5.06a.56.56,0,0,1,.54-.58Zm4.8,8.91H25.07V26.26h1.06Zm-5.62-3.1h-9l-2,3.08a.55.55,0,0,1-.44.25H6.4v8.87H9.07a.51.51,0,0,1,.44.25l2,3.08H24V13.62H22.93a.53.53,0,0,1-.44-.25Zm9.67,4.59h-.85V25h.85l.75-.79V15.67ZM18.74,13.37a.53.53,0,0,1,.48-.12.51.51,0,0,1,.41.6l-.93,4h2.54a.55.55,0,0,1,.39.16.49.49,0,0,1,0,.72l-6.4,5.61a.55.55,0,0,1-.48.12.5.5,0,0,1-.4-.61l.92-4H12.7a.54.54,0,0,1-.39-.17.5.5,0,0,1,0-.72Zm-15.54,0H1.89l-.82,1.35v1.41l1,1.61a.59.59,0,0,1,.09.32v4.69H3.2Zm15.08,2-4.14,3.53h1.94a.5.5,0,0,1,.41.59l-.7,2.92,4.14-3.52H18.1l-.12,0a.5.5,0,0,1-.4-.59Zm-9.75,2v4H7.47v-4Zm-3.2,0H4.27v1.48H5.33Zm3.2-2.79v1.3H7.47v-1.3Zm19.69,3.3H27.15v2.05h1.07ZM20.8,5.39H11.2V7h9.6ZM16.46,6.94H15.4V8.41h1.06Z" transform="translate(0 -4.48)"/></g></g></g></svg>