<svg xmlns="http://www.w3.org/2000/svg" viewBox="0 0 200 200"><defs><style>.cls-1{fill:none;}.cls-2{fill:#010101;}</style></defs><g id="Capa_2" data-name="Capa 2"><g id="Capa_2-2" data-name="Capa 2"><rect class="cls-1" width="200" height="200"/><g id="Layer_1" data-name="Layer 1"><g id="Nissan_Badge" data-name="Nissan Badge"><g id="g20"><path id="path4" class="cls-2" d="M110.75,104.34a4.94,4.94,0,0,1-.7,0H96.75v3.09h13.53c.11,0,.9,0,1.06,0a4.4,4.4,0,0,0,4-4.56,4.35,4.35,0,0,0-3.82-4.51,10.33,10.33,0,0,0-1.08,0h-8.84a4.05,4.05,0,0,1-1-.08,1.29,1.29,0,0,1-1-1.31,1.33,1.33,0,0,1,1-1.29,3.76,3.76,0,0,1,.93-.08h12.75v-3h-13a8.84,8.84,0,0,0-1.29.08,4.42,4.42,0,0,0,0,8.74c.47,0,1.11,0,1.39,0h8.61a5.73,5.73,0,0,1,.62,0,1.49,1.49,0,0,1,.08,2.94Z"/><path id="path6" class="cls-2" d="M85.54,104.34a4.58,4.58,0,0,1-.67,0H71.55v3.09H85.08c.1,0,.9,0,1.06,0a4.41,4.41,0,0,0,4-4.56,4.35,4.35,0,0,0-3.82-4.51,10.44,10.44,0,0,0-1.08,0H76.42a4,4,0,0,1-1-.08,1.29,1.29,0,0,1-1-1.31,1.33,1.33,0,0,1,1-1.29,3.66,3.66,0,0,1,.92-.08H89.15v-3h-13a8.84,8.84,0,0,0-1.29.08,4.42,4.42,0,0,0-.05,8.74c.46,0,1.11,0,1.39,0h8.61a5.73,5.73,0,0,1,.62,0,1.49,1.49,0,0,1,.07,2.94Z"/><rect id="rect8" class="cls-2" x="61.27" y="92.41" width="3.35" height="15.13"/><polygon id="polygon10" class="cls-2" points="53.87 107.54 53.87 92.41 50.52 92.41 50.52 103.7 39.36 92.41 35.06 92.41 35.06 107.54 38.41 107.54 38.41 96.2 49.65 107.54 53.87 107.54"/><polygon id="polygon12" class="cls-2" points="161.62 92.41 161.62 103.7 150.46 92.41 146.15 92.41 146.15 107.54 149.5 107.54 149.5 96.2 160.71 107.54 164.94 107.54 164.94 92.41 161.62 92.41"/><path id="path14" class="cls-2" d="M128.71,92.41l-9.43,15.13h4.07l1.67-2.71h11l1.67,2.71h4.05l-9.43-15.13ZM134.3,102h-7.55l3.79-6.08Z"/><path id="path16" class="cls-2" d="M53.69,83.83a49,49,0,0,1,92.67,0l0,.15h14.77V82.21L155,81.48c-3.78-.43-4.58-2.11-5.61-4.22l-.26-.52a54.38,54.38,0,0,0-98.29.05l-.26.52c-1,2.11-1.83,3.79-5.61,4.23l-6.14.72V84H53.61Z"/><path id="path18" class="cls-2" d="M146.41,116l0,.15A48.86,48.86,0,0,1,100,149.08h0a48.88,48.88,0,0,1-46.34-33l0-.16H38.9v1.78l6.13.72c3.79.44,4.59,2.12,5.62,4.23l.26.52a54.43,54.43,0,0,0,49.14,31.13h0a54.45,54.45,0,0,0,49.14-31.11l.26-.51c1-2.12,1.83-3.79,5.62-4.23l6.13-.72V116Z"/></g></g></g></g></g></svg>