<svg xmlns="http://www.w3.org/2000/svg" width="64" height="64" viewBox="0 0 64 64"><path fill="#5DBC9D" d="M34.3,26h-5.8c-0.3,0-0.6-0.3-0.6-0.6v-5.5c0-1.6,1.3-2.9,2.9-2.9h4.1v-5.5c0-0.3-0.3-0.6-0.6-0.6h-5.8 c-0.3,0-0.6,0.3-0.6,0.6v1.9c0,0.3-0.3,0.6-0.6,0.6h-5.8c-0.3,0-0.6-0.3-0.6-0.6V6.9C21,5.3,22.3,4,23.9,4h16.2 C41.7,4,43,5.3,43,6.9v12.2c0,1.6-1.3,2.9-2.9,2.9h-5.2v3.4C34.9,25.7,34.6,26,34.3,26z"></path><path fill="#B5C4E0" d="M53.5,36.6c-0.6-1.2-2.6-1.1-4.8-0.4c-3,0.9-8.4,2.1-11.1,3.1c-0.7,0.2-1.1,1.1-1.3,1.9	c-0.1,0.4-0.2,1.1-0.2,1.5v10.2c0,0.6,0.2,1.2,0.2,1.7c0.1,0.8,0.6,1.6,1.3,1.9c2.7,1,8.2,2.4,11.1,3.1c1.1,0.3,2,0.6,2.9,0.6	c0.9-0.1,1.6-0.4,1.9-1c1.6-3.3,1.7-7.1,1.7-11.2C55.2,43.8,55.1,39.9,53.5,36.6z M50.2,53.7L46,52.9V42.8l4.2-0.7	C50.8,45.6,50.7,49.5,50.2,53.7z"></path><path fill="#5DBC9D" d="M34.3,30h-5.8c-0.3,0-0.6,0.3-0.6,0.6v4.8c0,0.3,0.3,0.6,0.6,0.6h5.8c0.3,0,0.6-0.3,0.6-0.6v-4.8	C34.9,30.3,34.6,30,34.3,30z"></path><path fill="#8D6C9F" d="M34.3,37h-5.8c-0.9,0-1.5-0.7-1.5-1.6v-4.8c0-0.9,0.7-1.6,1.5-1.6h5.8c0.9,0,1.7,0.7,1.7,1.6v4.8	C36,36.3,35.2,37,34.3,37z M28.9,35H34v-4h-5.1V35z"></path><path fill="#E2E9F7" d="M37.7,43.3H26.4c-0.4,0-0.9,0.3-1.1,0.7s-0.6,0.7-1.1,0.7H11.7c-0.2,0-0.5,0.1-0.7,0.3l-0.8,0.8	C10.1,45.8,10,46,10,46.3v1.9c0,0.2,0.1,0.5,0.3,0.7l0.8,0.8c0.2,0.2,0.3,0.4,0.3,0.7v0.9c0,0.7,0.6,1.3,1.3,1.3H38	C38.5,52.4,37.7,43.3,37.7,43.3z"></path><path fill="#8D6C9F" d="M23.7,49H10.7c-0.6,0-1-0.4-1-1s0.4-1,1-1h12.9c0.6,0,1,0.4,1,1S24.2,49,23.7,49z"></path><path fill="#8D6C9F" d="M31,49h-3.7c-0.6,0-1-0.4-1-1s0.4-1,1-1H31c0.6,0,1,0.4,1,1S31.6,49,31,49z"></path><path fill="#ACB7D0" d="M37,54.8h-0.9V40.6H37c2.2,0,4,1.8,4,4v6.1C41,53,39.2,54.8,37,54.8z"></path><path fill="#72CAAF" d="M42.7,20.4h0.4V6.3h-0.4c-2,0-3.7,1.7-3.7,3.7v6.8C39,18.7,40.7,20.4,42.7,20.4z"></path><path fill="#C2CDE7" d="M54.9,58.5L54.9,58.5V37.4l0,0c-2.3,0-4.1,1.9-4.1,4.1v12.9C50.8,56.6,52.6,58.5,54.9,58.5z"></path><path fill="#8D6C9F" d="M42,44h-2c-0.6,0-1-0.4-1-1s0.4-1,1-1h1.9c0.6,0,1,0.4,1,1S42.6,44,42,44z"></path><path fill="#8D6C9F" d="M42,49h-2c-0.6,0-1-0.4-1-1s0.4-1,1-1h1.9c0.6,0,1,0.4,1,1S42.6,49,42,49z"></path><path fill="#8D6C9F" d="M42,54h-2c-0.6,0-1-0.4-1-1s0.4-1,1-1h1.9c0.6,0,1,0.4,1,1S42.6,54,42,54z"></path><path fill="#8D6C9F" d="M36.1,49c-0.6,0-1-0.4-1-1v-5.6c0-0.6,0.4-1,1-1s0.9,0.4,0.9,1V48C37,48.5,36.6,49,36.1,49z"></path><path fill="#8D6C9F" d="M34.3,27h-5.8c-0.9,0-1.5-0.7-1.5-1.6v-5.5c0-2.1,1.7-3.9,3.8-3.9H34v-4.1h-5.1v1.5c0,0.9-0.7,1.6-1.6,1.6 h-5.8c-0.9,0-1.6-0.7-1.6-1.6V6.9C20,4.7,21.7,3,23.9,3h16.2C42.3,3,44,4.7,44,6.9v12.2c0,2.1-1.7,3.9-3.9,3.9H36v2.4 C36,26.3,35.2,27,34.3,27z M28.9,25H34v-4h6.1c1,0,1.9-0.9,1.9-1.9V6.9c0-1-0.8-1.9-1.9-1.9H23.9c-1,0-1.9,0.8-1.9,1.9V13h5v-1.5 c0-0.9,0.7-1.6,1.5-1.6h5.8c0.9,0,1.6,0.7,1.6,1.6V18h-5.1c-1,0-1.9,0.9-1.9,1.9L28.9,25L28.9,25z"></path><g><path fill="#8D6C9F" d="M51.4,61c-0.7,0-1.4-0.2-2.1-0.4c-0.3-0.1-0.5-0.2-0.8-0.2c-1.9-0.4-8.1-2-11.2-3.1 c-1.2-0.4-1.8-1.7-1.9-2.6c0-0.2-0.1-0.8-0.2-1.2c0-0.1-0.2-0.4-0.2-0.4c0.4,0-20.5,0-22.4,0c-2.1,0-2.3-1.3-2.3-1.9v-0.9l-0.7-0.7 C9.2,49.1,9,48.6,9,48.1v-1.9c0-1,2.1-2.3,2.7-2.3h12.5c0.1-0.1,0.2-0.2,0.3-0.5c0.5-1,1.2-1.5,2-1.5h8.7c0.1-0.4,0.1-0.8,0.2-1.1 c0.3-1.3,1-2.2,1.9-2.6c1.6-0.6,4.1-1.2,6.5-1.8c1.7-0.4,3.4-0.9,4.6-1.2c1.2-0.4,2.2-0.5,3.1-0.5c1.8,0,2.5,0.8,2.9,1.5 c1.7,3.4,1.8,7.1,1.8,11.6s-0.1,8.3-1.8,11.6c-0.4,0.9-1.4,1.5-2.7,1.6C51.6,61,51.5,61,51.4,61z M35.2,51c1.1,0,1.9,1.3,2,2.2 c0,0.4,0.1,0.9,0.1,1.1c0.1,0.5,0.4,1,0.6,1.1c3,1.1,9.2,2.6,11,3c0.3,0.1,0.6,0.2,0.9,0.2c0.6,0.2,1.1,0.3,1.6,0.3l0.1,0 c0.5,0,0.9-0.2,1.1-0.4c1.5-3,1.6-6.5,1.6-10.7s-0.1-7.8-1.6-10.7c-0.2-0.3-0.7-0.3-1.1-0.3c-0.6,0-1.5,0.2-2.5,0.5 c-1.3,0.4-2.9,0.8-4.7,1.3c-2.4,0.6-4.8,1.2-6.3,1.8c-0.2,0.1-0.5,0.5-0.6,1.1c-0.1,0.3-0.2,1-0.2,1.4l0,1.2H26.5 c-0.1,0.1-0.2,0.2-0.3,0.4C26,44.8,25.4,46,24.3,46H11.9c-0.2,0.1-0.6,0.4-0.9,0.6v1.5l0.7,0.7c0.4,0.4,0.6,0.8,0.6,1.4V51 c0.1,0,0.2,0,0.3,0L29,51C32.3,51,34.9,51,35.2,51z"></path></g><path fill="#8D6C9F" d="M50.2,54.7c-0.1,0-0.1,0-0.2,0l-4.2-0.7c-0.5-0.1-0.8-0.5-0.8-1V42.8c0-0.5,0.4-0.9,0.8-1l4.2-0.7	c0.5-0.1,1.1,0.3,1.2,0.8c0.6,3.4,0.6,7.3,0,11.9c0,0.3-0.2,0.5-0.4,0.7C50.6,54.6,50.4,54.7,50.2,54.7z M47,52.1l2.3,0.4	c0.4-3.5,0.4-6.6,0-9.3L47,43.6V52.1z"></path></svg>