<svg xmlns="http://www.w3.org/2000/svg" data-name="Layer 1" viewBox="0 0 64 64"><path fill="#faefde" d="M17.24,4.94H46a3,3,0,0,1,3,3v48a3,3,0,0,1-3,3H8a3,3,0,0,1-3-3V17.18a3,3,0,0,1,.88-2.12l9.24-9.24A3,3,0,0,1,17.24,4.94Z"></path><path fill="#fff7f0" d="M5 59L4.85 49.54 48.34 6.06 49 29 19 59 5 59zM4.85 39.15L39.06 4.94 44.81 5.19 5 45 4.85 39.15zM4.85 33.15L33 5 36 5 4.85 36.15 4.85 33.15z"></path><path fill="#fff" d="M39.5 13L40.74 15.26 43 16.5 40.74 17.74 39.5 20 38.26 17.74 36 16.5 38.26 15.26 39.5 13zM24.42 11L25.27 12.56 26.84 13.42 25.27 14.27 24.42 15.84 23.56 14.27 22 13.42 23.56 12.56 24.42 11zM10.65 42L11.23 43.06 12.3 43.65 11.23 44.23 10.65 45.3 10.06 44.23 9 43.65 10.06 43.06 10.65 42z"></path><path fill="#bbdef9" d="M17 5L17 17 5 17 17 5z"></path><path fill="#c2cde7" d="M47.76,46.43,58.89,52a4,4,0,0,1,2.22,3.58V58a1,1,0,0,1-1,1H28a1,1,0,0,1-1-1V55.55A4,4,0,0,1,29.22,52l11.13-5.54Z"></path><path fill="#d6dff2" d="M52.63,48.39l-4.57-2.27h-8l-4.68,2.33c.19,3.4,4,6.12,8.62,6.12S52.48,51.82,52.63,48.39Z"></path><path fill="#faefde" d="M53.24,38.33a.88.88,0,0,0-.7.16,8.66,8.66,0,0,0-.63-2.88c-.61-1.65,1.75-.67,1.75-.67a8.68,8.68,0,0,0-9-7.24H44A8.67,8.67,0,0,0,39.4,29h0c-2.18,0-3.7,1.48-3.95,3.95a26.92,26.92,0,0,0,.14,4.42,8.69,8.69,0,0,0-.12,1.1.88.88,0,0,0-.7-.16c-.7.19-1,1.48-.59,2.88s1.11,2.21,1.78,2.21c1.19,4,4.34,8,8.05,8s6.86-4,8.05-8c.67,0,1.43-.92,1.78-2.21S53.94,38.52,53.24,38.33Z"></path><path fill="#cda1a7" d="M38.68,34.95l1.05-1.6a.66.66,0,0,1,.84-.23l1,.5a13.16,13.16,0,0,0,5.77,1.33H49a14,14,0,0,0,3.25-.11c.81-.27.48-2.58.48-2.58s-1.27-3-4.08-3.79-6-1.26-9.17.57-3.73.55-3.9,2.7a19.41,19.41,0,0,0,.17,4.71C36,37.5,38.68,34.95,38.68,34.95Z"></path><path fill="#ed7899" d="M42 51.75H46.13V58.75H42z"></path><path fill="#8d6c9f" d="M59.34,51.07l-7.85-3.9a15.57,15.57,0,0,0,1.35-2.93,4.15,4.15,0,0,0,2-2.77c.54-2,0-3.76-1.3-4.11l-.07,0a9.93,9.93,0,0,0-.4-1.56l.25.09a1,1,0,0,0,1.36-1.14A9.85,9.85,0,0,0,50,28V7a3,3,0,0,0-3-3H17.66a5,5,0,0,0-3.54,1.46L5.46,14.12A5,5,0,0,0,4,17.66V57a3,3,0,0,0,3,3H27a1,1,0,0,0,.4-.09A2,2,0,0,0,28,60H60.11a2,2,0,0,0,2-2V55.55A5,5,0,0,0,59.34,51.07Zm-7.1-17.41a1.59,1.59,0,0,0-1,.42A1.63,1.63,0,0,0,51,36a7.7,7.7,0,0,1,.57,2.58,1,1,0,0,0,.57.83,1,1,0,0,0,.82,0A3.06,3.06,0,0,1,52.86,41a2.82,2.82,0,0,1-.81,1.47h0a1,1,0,0,0-1,.72C50,46.66,47.21,50.4,44,50.4s-6-3.74-7.09-7.26a.93.93,0,0,0-.9-.71h0A2.44,2.44,0,0,1,35.14,41a3.08,3.08,0,0,1-.07-1.54,1,1,0,0,0,1.4-.87,7.86,7.86,0,0,1,.11-1,4.05,4.05,0,0,0,0-1.18,13.64,13.64,0,0,1-.08-3.31c.19-1.94,1.27-3,3-3a1,1,0,0,0,.6-.2,7.7,7.7,0,0,1,4-1.12h.66A7.6,7.6,0,0,1,52.23,33.66ZM41.41,51.84,40.18,58H28V55.55a3,3,0,0,1,1.66-2.69l8-4A10,10,0,0,0,41.41,51.84ZM43.22,53h1.56l1,5H42.22ZM15.54,6.88A3,3,0,0,1,16,6.5V15a1,1,0,0,1-1,1H6.5a3,3,0,0,1,.38-.46ZM7,58a1,1,0,0,1-1-1V18h9a3,3,0,0,0,3-3V6H47a1,1,0,0,1,1,1V27.19a11.46,11.46,0,0,0-3.34-.48H44A9.94,9.94,0,0,0,39.08,28c-2.54.14-4.35,2-4.63,4.84a15.67,15.67,0,0,0,.09,3.76c0,.23.07.52.06.58l0,.13-.08,0c-1.3.35-1.84,2.07-1.3,4.11a4.15,4.15,0,0,0,2,2.77,15.57,15.57,0,0,0,1.38,3l-7.76,3.86A5,5,0,0,0,26,55.55V58Zm53.11,0H47.82l-1.23-6.16a10.08,10.08,0,0,0,3.75-3l8.11,4a3,3,0,0,1,1.66,2.69Z"></path><path fill="#8d6c9f" d="M41 32.22a1.66 1.66 0 0 0-2.11.58l-1.05 1.6a1 1 0 1 0 1.67 1.1l.89-1.35.76.37a14.24 14.24 0 0 0 6.2 1.43H49a1 1 0 0 0 0-2H47.37A12.23 12.23 0 0 1 42 32.72zM33 24h4a1 1 0 0 0 0-2H33a1 1 0 0 0 0 2zM15 24H29a1 1 0 0 0 0-2H15a1 1 0 0 0 0 2zM15 28H31a1 1 0 0 0 0-2H15a1 1 0 0 0 0 2zM25 36H15a1 1 0 0 0 0 2H25a1 1 0 0 0 0-2zM15 34H29a1 1 0 0 0 0-2H15a1 1 0 0 0 0 2zM9 50a1 1 0 0 0-1 1v2a1 1 0 0 0 2 0V51A1 1 0 0 0 9 50zM14 50a1 1 0 0 0-1 1v2a1 1 0 0 0 2 0V51A1 1 0 0 0 14 50zM19 50a1 1 0 0 0-1 1v2a1 1 0 0 0 2 0V51A1 1 0 0 0 19 50zM24 50a1 1 0 0 0-1 1v2a1 1 0 0 0 2 0V51A1 1 0 0 0 24 50z"></path></svg>