<svg xmlns="http://www.w3.org/2000/svg" data-name="Layer 1" viewBox="0 0 64 64"><path fill="#cda1a7" d="M1 3H63V13H1z"></path><path fill="#c4939c" d="M5,8H59a4,4,0,0,1,4,4v0a1,1,0,0,1-1,1H2a1,1,0,0,1-1-1v0A4,4,0,0,1,5,8Z"></path><path fill="#a0aecb" d="M5 21H59V61H5z"></path><path fill="#93a3c1" d="M5 49H59V61H5z"></path><path fill="#8b8e98" d="M45 55h6v3a3 3 0 0 1-3 3h0a3 3 0 0 1-3-3zM13 55h6v3a3 3 0 0 1-3 3h0a3 3 0 0 1-3-3z"></path><path fill="#f9e3ae" d="M51,55V46l-3-6-2.2-8.05A4,4,0,0,0,41.94,29H22.06a4,4,0,0,0-3.86,2.95L16,40l-3,6v9Z"></path><path fill="#bbdef9" d="M15,40l2.94-8.62A4,4,0,0,1,21.6,29H42.4a4,4,0,0,1,3.66,2.38l2.22,9L46,43,17.33,42Z"></path><path fill="#def0ff" d="M46.17 31.83L35.37 42.63 46 43 48.27 40.36 46.17 31.83zM30.83 42.47L44 29.33h0a4.14 4.14 0 0 0-.69-.22l-.13 0A3.86 3.86 0 0 0 42.4 29H37.74L24.49 42.25zM17.33 42L19.91 42.09 33 29 29 29 16.61 41.38 17.33 42z"></path><path fill="#f6d397" d="M13 49H51V55H13z"></path><path fill="#bbdef9" d="M23 51L17 51 17 47 23 48 23 51zM47 51L41 51 41 48 47 47 47 51z"></path><path fill="#f9e3ae" d="M5 13H59V21H5z"></path><path fill="#8d6c9f" d="M7 10A1 1 0 0 0 8 9V7A1 1 0 0 0 6 7V9A1 1 0 0 0 7 10zM12 10a1 1 0 0 0 1-1V7a1 1 0 0 0-2 0V9A1 1 0 0 0 12 10zM17 10a1 1 0 0 0 1-1V7a1 1 0 0 0-2 0V9A1 1 0 0 0 17 10zM22 10a1 1 0 0 0 1-1V7a1 1 0 0 0-2 0V9A1 1 0 0 0 22 10zM27 10a1 1 0 0 0 1-1V7a1 1 0 0 0-2 0V9A1 1 0 0 0 27 10zM32 10a1 1 0 0 0 1-1V7a1 1 0 0 0-2 0V9A1 1 0 0 0 32 10zM37 10a1 1 0 0 0 1-1V7a1 1 0 0 0-2 0V9A1 1 0 0 0 37 10zM42 10a1 1 0 0 0 1-1V7a1 1 0 0 0-2 0V9A1 1 0 0 0 42 10zM47 10a1 1 0 0 0 1-1V7a1 1 0 0 0-2 0V9A1 1 0 0 0 47 10zM52 10a1 1 0 0 0 1-1V7a1 1 0 0 0-2 0V9A1 1 0 0 0 52 10zM57 10a1 1 0 0 0 1-1V7a1 1 0 0 0-2 0V9A1 1 0 0 0 57 10zM26.92 50H37.17a1 1 0 0 0 0-2H26.92a1 1 0 0 0 0 2zM33.17 32H30.92a1 1 0 0 0 0 2h2.25a1 1 0 0 0 0-2zM18 52h4a2 2 0 0 0 2-2V48.85a2 2 0 0 0-1.67-2l-4-.67a2 2 0 0 0-2.33 2V50A2 2 0 0 0 18 52zm0-3.82l4 .67V50H18zM42 52h4a2 2 0 0 0 2-2V48.18a2 2 0 0 0-2.33-2l-4 .67a2 2 0 0 0-1.67 2V50A2 2 0 0 0 42 52zm4-3.82V50H42V48.85z"></path><path fill="#8d6c9f" d="M61,14a3,3,0,0,0,3-3V5a3,3,0,0,0-3-3H3A3,3,0,0,0,0,5v6a3,3,0,0,0,3,3H4V60H1a1,1,0,0,0,0,2H63a1,1,0,0,0,0-2H60V14ZM2,11V5A1,1,0,0,1,3,4H61a1,1,0,0,1,1,1v6a1,1,0,0,1-1,1H3A1,1,0,0,1,2,11ZM41.86,42a4,4,0,0,0-7.72,0H21.32a5,5,0,0,1-2.22-.52l-2.37-1.17a21,21,0,0,0,.76-2.94l.59-3.26A5,5,0,0,1,23,30H41a5,5,0,0,1,4.92,4.11l.59,3.26a21,21,0,0,0,.78,3L45,41.49a5,5,0,0,1-2.2.51Zm-2.14,0H36.28a2,2,0,0,1,3.44,0ZM15.62,43c.14-.27.25-.55.38-.83l2.22,1.1a7,7,0,0,0,3.1.73H42.78a7,7,0,0,0,3.08-.71L48,42.22c.12.26.23.52.36.78L49,44.34a9,9,0,0,1,1,4V54H14V48.36a9,9,0,0,1,1-4ZM20,56H44v3a3,3,0,0,0,.18,1H19.82A3,3,0,0,0,20,59Zm-5,4a1,1,0,0,1-1-1V56h4v3a1,1,0,0,1-1,1Zm32,0a1,1,0,0,1-1-1V56h4v3a1,1,0,0,1-1,1Zm4.82,0A3,3,0,0,0,52,59V48.36a11.06,11.06,0,0,0-1.16-4.92l-.67-1.33a19,19,0,0,1-1.7-5.1l-.59-3.26A7,7,0,0,0,41,28H23a7,7,0,0,0-6.89,5.75L15.53,37a19,19,0,0,1-1.7,5.1l-.67,1.33A11.06,11.06,0,0,0,12,48.36V59a3,3,0,0,0,.18,1H6V22H58V60ZM58,20H6V14H58Z"></path><path fill="#8d6c9f" d="M30,18h4a1,1,0,0,0,0-2H30a1,1,0,0,0,0,2Z"></path></svg>