<svg xmlns="http://www.w3.org/2000/svg" data-name="Layer 1" viewBox="0 0 64 64"><path fill="#f9e3ae" d="M50.45,10.83,47.2,7.57l-1.31-.09-1.15.87a.57.57,0,0,1-.69,0L42.49,7.15a.59.59,0,0,0-.69,0l-1.57,1.2a.59.59,0,0,1-.68,0L37.69,7a.6.6,0,0,0-.34-.11H30.84a1,1,0,0,1-.94-.65L28.47,2.39a2,2,0,0,0-2.32-1.25L14.55,3.82A2,2,0,0,0,13,5.77V16A2,2,0,0,0,14.55,18l11.6,2.68a2,2,0,0,0,2.32-1.25l1.43-3.85a1,1,0,0,1,.94-.65H47.39a1,1,0,0,0,.71-.29l2.35-2.36A1,1,0,0,0,50.45,10.83Zm-28,.55-1.11,3a1,1,0,0,1-1.16.62l-2.35-.54a1,1,0,0,1-.78-1V8.59a1,1,0,0,1,.78-1l2.35-.54a1,1,0,0,1,1.16.62l1.11,3A1,1,0,0,1,22.4,11.38Z"></path><path fill="#f9e3ae" d="M50.45,10.83,47.2,7.57l-1.31-.09-1.15.87a.57.57,0,0,1-.69,0L42.49,7.15a.59.59,0,0,0-.69,0l-1.57,1.2a.59.59,0,0,1-.68,0L37.69,7a.6.6,0,0,0-.34-.11H30.84a1,1,0,0,1-.94-.65L28.47,2.39a2,2,0,0,0-2.32-1.25L14.55,3.82A2,2,0,0,0,13,5.77V11h4V8.59a1,1,0,0,1,.78-1l2.35-.54a1,1,0,0,1,1.16.62l1.11,3a.93.93,0,0,1,.07.33H50.59A1.16,1.16,0,0,0,50.45,10.83Z"></path><path fill="#f283a5" d="M59,50.91v-7a12,12,0,0,0-2.4-7.2L54,33.26a8,8,0,0,1-1.4-3l-1.19-5.15a8,8,0,0,0-7.8-6.2H20.36a8,8,0,0,0-7.8,6.2l-1.19,5.15a8,8,0,0,1-1.4,3L7.4,36.71A12,12,0,0,0,5,43.91v7a4,4,0,0,0,4,4H55A4,4,0,0,0,59,50.91Z"></path><path fill="#bbdef9" d="M54.88,34.41a16.22,16.22,0,0,1-2.26-4.15l-1.19-5.15a8,8,0,0,0-7.8-6.2H20.36a8,8,0,0,0-7.8,6.2l-1.19,5.15a22.26,22.26,0,0,1-2.34,5l4.69,2H32.51l18-.35Z"></path><path fill="#8b8e98" d="M52,54.91h2a3,3,0,0,1,3,3v5a0,0,0,0,1,0,0H49a0,0,0,0,1,0,0v-5A3,3,0,0,1,52,54.91Z" transform="rotate(180 53 58.905)"></path><path fill="#ed7899" d="M5,45.91H59a0,0,0,0,1,0,0v4a5,5,0,0,1-5,5H10a5,5,0,0,1-5-5v-4A0,0,0,0,1,5,45.91Z"></path><path fill="#8b8e98" d="M10,54.91h2a3,3,0,0,1,3,3v5a0,0,0,0,1,0,0H7a0,0,0,0,1,0,0v-5A3,3,0,0,1,10,54.91Z" transform="rotate(180 11 58.905)"></path><path fill="#ffefb8" d="M14.49 42.49L5.37 41 5 46.91H16a1 1 0 0 0 1-1v-.46A3 3 0 0 0 14.49 42.49zM58.63 41l-9.13 1.52a3 3 0 0 0-2.51 3v.46a1 1 0 0 0 1 1H59z"></path><path fill="#c2cde7" d="M59 30.91H53l4 6h2a2 2 0 0 0 2-2v-2A2 2 0 0 0 59 30.91zM3 32.91v2a2 2 0 0 0 2 2H7l4-6H5A2 2 0 0 0 3 32.91z"></path><path fill="#f6d397" d="M50.45,12.24,48.1,14.6a1,1,0,0,1-.71.29H30.84a1,1,0,0,0-.94.65l-1.43,3.85a2,2,0,0,1-2.32,1.25L14.55,18A2,2,0,0,1,13,16V11h4v2.46a1,1,0,0,0,.78,1l2.35.54a1,1,0,0,0,1.16-.62l1.11-3a1,1,0,0,0,.07-.38H50.59A1,1,0,0,1,50.45,12.24Z"></path><path fill="#def0ff" d="M54.37 34.24A9.46 9.46 0 0 1 52.79 31l-2.13-8a7.34 7.34 0 0 0-.79-1.83L34.47 36.53H50.82a5.32 5.32 0 0 0 2.09-.44l1.62-1.62zM41 18.7L23.21 36.53h6.56L46.34 20a7.37 7.37 0 0 0-4.08-1.26zM14.47 36.53L18.47 36.53 36.07 18.93 32.07 18.93 14.47 36.53z"></path><path fill="#8d6c9f" d="M22 48a1 1 0 0 0 1-1V45a1 1 0 0 0-2 0v2A1 1 0 0 0 22 48zM27 48a1 1 0 0 0 1-1V45a1 1 0 0 0-2 0v2A1 1 0 0 0 27 48zM32 48a1 1 0 0 0 1-1V45a1 1 0 0 0-2 0v2A1 1 0 0 0 32 48zM37 48a1 1 0 0 0 1-1V45a1 1 0 0 0-2 0v2A1 1 0 0 0 37 48zM42 48a1 1 0 0 0 1-1V45a1 1 0 0 0-2 0v2A1 1 0 0 0 42 48zM47.17 50H16.92a1 1 0 0 0 0 2H47.17a1 1 0 0 0 0-2zM55.17 50H50.92a1 1 0 0 0 0 2h4.25a1 1 0 0 0 0-2zM13.17 50H8.92a1 1 0 0 0 0 2h4.25a1 1 0 1 0 0-2zM29.92 26h4.25a1 1 0 0 0 0-2H29.92a1 1 0 0 0 0 2z"></path><path fill="#8d6c9f" d="M63,62H57.44A4,4,0,0,0,58,60V55a5,5,0,0,0,2-4V44a13,13,0,0,0-.38-3.1h0A13.14,13.14,0,0,0,58.53,38H59a3,3,0,0,0,3-3V33a3,3,0,0,0-3-3H53.56l-1.15-5a9,9,0,0,0-8.77-7H30.06L31,16H47a2.69,2.69,0,0,0,1.8-.69L51.16,13a2,2,0,0,0,0-2.83L47.91,6.87a1,1,0,0,0-.64-.29L46,6.48a1.09,1.09,0,0,0-.68.2l-.89.67-1.3-1a1.58,1.58,0,0,0-1.91,0l-1.31,1-1.6-1.17A2.85,2.85,0,0,0,37,6H31L29.41,2A3,3,0,0,0,25.92.17L14.33,2.84A3,3,0,0,0,12,5.77V16a3,3,0,0,0,2.33,2.92l1.43.33A8.88,8.88,0,0,0,11.59,25l-1.15,5H5a3,3,0,0,0-3,3v2a3,3,0,0,0,3,3h.47a13.14,13.14,0,0,0-1.09,2.89h0A13,13,0,0,0,4,44v7a5,5,0,0,0,2,4v5a4,4,0,0,0,.56,2H1a1,1,0,0,0,0,2H63a1,1,0,0,0,0-2Zm-8-8H9a3,3,0,0,1-3-3V48H16a2,2,0,0,0,2-2v-.46a4,4,0,0,0-3.34-3.95l-8-1.33A11,11,0,0,1,8.2,37.4l.89-1.18,2.13,1.05a7,7,0,0,0,3.1.73H49.78a7,7,0,0,0,3.08-.71l2.09-1,.85,1.14a11,11,0,0,1,1.53,2.86l-8,1.33A4,4,0,0,0,46,45.54V46a2,2,0,0,0,2,2H58v3A3,3,0,0,1,55,54ZM16,56H48v4a4,4,0,0,0,.56,2H15.44A4,4,0,0,0,16,60ZM6.15,42.21l8.18,1.36a2,2,0,0,1,1.67,2V46H6V44A10.9,10.9,0,0,1,6.15,42.21Zm33-6.21a4,4,0,0,1,7.72,0ZM58,44v2H48v-.46a2,2,0,0,1,1.67-2l8.18-1.36A10.9,10.9,0,0,1,58,44Zm2-11v2a1,1,0,0,1-1,1H57.25l-2.44-3.25a7.23,7.23,0,0,1-.48-.75H59A1,1,0,0,1,60,33ZM14.78,17A1,1,0,0,1,14,16V5.77a1,1,0,0,1,.78-1L26.37,2.12a.91.91,0,0,1,.23,0,1,1,0,0,1,.93.65L29,6.59A2.34,2.34,0,0,0,31,8h6l2,1.16a1.55,1.55,0,0,0,1.88,0l1.31-1,1.3,1a1.59,1.59,0,0,0,1.89,0l.86-.64.56,0,3,3L47,14H31a2.13,2.13,0,0,0-2,1.19l-1,2.81-.39,1a1,1,0,0,1-1.16.63l-7-1.61Zm-1.24,8.44a7,7,0,0,1,5.76-5.35l6.62,1.53a2.61,2.61,0,0,0,.67.08A3,3,0,0,0,29.29,20H43.64a7,7,0,0,1,6.82,5.43l1.19,5.15A9,9,0,0,0,53.21,34l.51.69L52,35.49a5,5,0,0,1-2.2.51h-.87a6,6,0,0,0-11.82,0H14.32a5,5,0,0,1-2.22-.52l-1.8-.89.48-.64a9,9,0,0,0,1.56-3.37ZM4,35V33a1,1,0,0,1,1-1H9.67a7.23,7.23,0,0,1-.48.75L6.75,36H5A1,1,0,0,1,4,35Zm6,27a2,2,0,0,1-2-2V56h6v4a2,2,0,0,1-2,2Zm42,0a2,2,0,0,1-2-2V56h6v4a2,2,0,0,1-2,2Z"></path><path fill="#8d6c9f" d="M22.22,7.35A2,2,0,0,0,19.9,6.1l-2.35.54A2,2,0,0,0,16,8.59v4.86a2,2,0,0,0,1.55,1.95l2.35.54a2,2,0,0,0,.45.05,2,2,0,0,0,1.88-1.3l1.12-3a2,2,0,0,0,0-1.41ZM20.35,14,18,13.46V8.59l2.35-.54,1.12,3Z"></path></svg>