<svg xmlns="http://www.w3.org/2000/svg" viewBox="0 0 64 64"><path fill="#ace3ff" d="M5 19H59V55H5z"></path><path fill="#e3f2ff" d="M39.76 55L59 35.76 59 19.08 56.43 19.08 20.51 55zM8.9 55L16.6 55 52.52 19.08 44.82 19.08zM40.4 19.08L5.07 54.41 5 54.43 5 53.19 39.12 19.08z"></path><path fill="#f9dd8f" d="M13 25H51V29H13z"></path><path fill="#72caaf" d="M35 35H51V47H35z"></path><path fill="#c2cde7" d="M7.195,9h49.611C58.017,9,59,9.983,59,11.195V19H5v-7.805C5,9.983,5.983,9,7.195,9z"></path><path fill="#8d6c9f" d="M55,18h-4c-0.552,0-1,0.448-1,1s0.448,1,1,1h4c0.552,0,1-0.448,1-1S55.552,18,55,18z"></path><path fill="#8d6c9f" d="M57,8H7c-1.657,0-3,1.343-3,3v42c0,1.657,1.343,3,3,3h50c1.657,0,3-1.343,3-3V11 C60,9.343,58.657,8,57,8z M58,53c0,0.552-0.448,1-1,1H7c-0.552,0-1-0.448-1-1V20h41c0.552,0,1-0.448,1-1s-0.448-1-1-1H6v-7 c0-0.552,0.448-1,1-1h50c0.552,0,1,0.448,1,1V53z"></path><path fill="#8d6c9f" d="M20 12c-.552 0-1 .448-1 1v2c0 .552.448 1 1 1s1-.448 1-1v-2C21 12.448 20.552 12 20 12zM15 12c-.552 0-1 .448-1 1v2c0 .552.448 1 1 1s1-.448 1-1v-2C16 12.448 15.552 12 15 12zM10 12c-.552 0-1 .448-1 1v2c0 .552.448 1 1 1s1-.448 1-1v-2C11 12.448 10.552 12 10 12zM35 12c-.552 0-1 .448-1 1v2c0 .552.448 1 1 1s1-.448 1-1v-2C36 12.448 35.552 12 35 12zM40 12c-.552 0-1 .448-1 1v2c0 .552.448 1 1 1s1-.448 1-1v-2C41 12.448 40.552 12 40 12zM45 12c-.552 0-1 .448-1 1v2c0 .552.448 1 1 1s1-.448 1-1v-2C46 12.448 45.552 12 45 12zM50 16c.552 0 1-.448 1-1v-2c0-.552-.448-1-1-1s-1 .448-1 1v2C49 15.552 49.448 16 50 16zM55 12c-.552 0-1 .448-1 1v2c0 .552.448 1 1 1s1-.448 1-1v-2C56 12.448 55.552 12 55 12zM25 12c-.552 0-1 .448-1 1v2c0 .552.448 1 1 1s1-.448 1-1v-2C26 12.448 25.552 12 25 12zM30 12c-.552 0-1 .448-1 1v2c0 .552.448 1 1 1s1-.448 1-1v-2C31 12.448 30.552 12 30 12zM51 24H13c-.552 0-1 .448-1 1v4c0 .552.448 1 1 1h38c.552 0 1-.448 1-1v-4C52 24.448 51.552 24 51 24zM50 28H14v-2h36V28zM51 34H35c-.552 0-1 .448-1 1v12c0 .552.448 1 1 1h16c.552 0 1-.448 1-1V35C52 34.448 51.552 34 51 34zM50 46H36V36h14V46z"></path><path fill="#f9dd8f" d="M28 39H14c-.552 0-1-.448-1-1v-2c0-.552.448-1 1-1h14c.552 0 1 .448 1 1v2C29 38.552 28.552 39 28 39zM28 47H14c-.552 0-1-.448-1-1v-2c0-.552.448-1 1-1h14c.552 0 1 .448 1 1v2C29 46.552 28.552 47 28 47z"></path><path fill="#8d6c9f" d="M28 40H14c-1.103 0-2-.897-2-2v-2c0-1.103.897-2 2-2h14c1.103 0 2 .897 2 2v2C30 39.103 29.103 40 28 40zM14 36v2h14.001L28 36H14zM28 48H14c-1.103 0-2-.897-2-2v-2c0-1.103.897-2 2-2h14c1.103 0 2 .897 2 2v2C30 47.103 29.103 48 28 48zM14 44v2h14.001L28 44H14z"></path></svg>