<svg xmlns="http://www.w3.org/2000/svg" width="130" height="32" viewBox="0 0 130 32"><defs><linearGradient id="44ld8snvza" x1="99.341%" x2="23.466%" y1="50%" y2="50%"><stop offset="0%" stop-color="#BA3AF4"></stop><stop offset="100%" stop-color="#72ADF1"></stop></linearGradient></defs><path fill="url(#44ld8snvza)" fill-rule="evenodd" d="M33.501 34.684c1.546 0 2.8 1.19 2.8 2.658S35.047 40 33.501 40H23.493c-1.546 0-2.8-1.19-2.8-2.658s1.254-2.658 2.8-2.658zM38.685 8c.21 0 .424.022.639.066 1.674.34 2.748 1.944 2.399 3.58l-3.856 18.095c-.284 1.334-1.446 2.32-2.837 2.404-.064.004-.13.006-.195.006-1.315 0-2.495-.815-2.928-2.044l-2.837-8.082-2.837 8.082c-.453 1.289-1.727 2.123-3.121 2.038-1.392-.085-2.553-1.07-2.837-2.404l-3.857-18.095c-.35-1.636.725-3.24 2.4-3.58 1.674-.343 3.313.709 3.662 2.346l1.557 7.304 2.1-5.984c.43-1.223 1.606-2.045 2.929-2.045 1.322 0 2.508.822 2.937 2.045l2.101 5.984 1.558-7.304c.291-1.368 1.483-2.33 2.844-2.407zm44.093 0c1.718 0 3.391.335 4.972.995 1.584.661 2.311 2.436 1.625 3.964-.685 1.526-2.522 2.229-4.11 1.566-.793-.33-1.63-.498-2.487-.498-3.46 0-6.273 2.713-6.273 6.048s2.813 6.049 6.273 6.049c.856 0 1.693-.169 2.487-.5 1.585-.662 3.424.04 4.11 1.565.686 1.528-.04 3.303-1.625 3.965-1.583.661-3.257.997-4.972.997-6.906 0-12.525-5.417-12.525-12.076C70.253 13.417 75.872 8 82.778 8zm17.765 0c1.243.002 2.359.763 2.826 1.924l4.36 10.832c.125.224.222.467.29.722l2.587 6.427c.635 1.578-.12 3.376-1.684 4.017-.376.154-.766.227-1.149.227-1.208 0-2.352-.727-2.835-1.925l-1.96-4.87h-4.93l-1.906 4.849c-.475 1.21-1.626 1.948-2.844 1.948-.375 0-.756-.07-1.125-.218-.884-.353-1.514-1.075-1.785-1.92-.211-.659-.205-1.391.067-2.085l2.671-6.796c.004-.008.008-.014.01-.022l.007-.022L97.708 9.91C98.18 8.754 99.296 8 100.535 8zm-92.637.062c2.361 0 4.544 1.02 5.988 2.8 1.047 1.289.843 3.178-.456 4.218-1.298 1.039-3.2.836-4.247-.453-.287-.354-.768-.565-1.285-.565-.827 0-1.524.55-1.524 1.201 0 .493.413.956 1.003 1.129l.073.022 2.746.88c3.233 1.032 5.407 3.91 5.407 7.157 0 4.163-3.562 7.55-7.941 7.55-3.347 0-6.352-2.011-7.478-5.005-.584-1.552.21-3.28 1.772-3.86 1.562-.58 3.303.209 3.886 1.76.245.65.994 1.105 1.82 1.105 1.03 0 1.901-.71 1.901-1.55 0-.632-.49-1.214-1.219-1.447l-2.717-.87C2.467 21.19.341 18.432.341 15.264c0-3.972 3.394-7.202 7.565-7.202zm37.782-.06c1.777 0 3.217 1.343 3.217 3v18c0 1.656-1.44 2.999-3.217 2.999-1.778 0-3.219-1.343-3.219-3v-18c0-1.656 1.441-3 3.219-3zm15.1 0c2.334 0 4.529.897 6.18 2.527 1.65 1.631 2.56 3.798 2.56 6.104 0 4.76-3.921 8.631-8.742 8.631h-3.204v3.737c0 1.657-1.36 3-3.038 3-1.678 0-3.038-1.343-3.038-3v-18c0-1.656 1.36-3 3.038-3zm60.583 0c2.305 0 4.47.897 6.101 2.527 1.63 1.631 2.528 3.798 2.528 6.104 0 2.722-1.27 5.15-3.245 6.733l1.905 4.423c.656 1.522-.046 3.287-1.568 3.942-.386.166-.79.246-1.185.246-1.162 0-2.268-.68-2.756-1.813l-2.111-4.9h-2.834v3.737c0 1.657-1.343 3-3 3s-3-1.343-3-3v-18c0-1.656 1.343-3 3-3zm-60.585 6h-3.204v5.262h3.204c1.47 0 2.665-1.18 2.665-2.631 0-1.452-1.195-2.632-2.665-2.632zm60.584 0h-3.164v5.262h3.164c1.45 0 2.63-1.18 2.63-2.631 0-1.452-1.18-2.632-2.63-2.632z" transform="translate(0 -8)"></path></svg>