<svg xmlns="http://www.w3.org/2000/svg" viewBox="0 0 200 200"><defs><style>.cls-1{fill:none;}.cls-2{fill:#e5262a;}</style></defs><g id="Capa_2" data-name="Capa 2"><g id="Capa_2-2" data-name="Capa 2"><rect class="cls-1" width="200" height="200"/><g id="T"><path id="path35" class="cls-2" d="M98.9,161.11l16.35-92c15.59,0,20.5,1.71,21.21,8.69,0,0,10.46-3.9,15.73-11.82a115.6,115.6,0,0,0-41.25-10L98.87,70.75h0L86.83,56.05A115.49,115.49,0,0,0,45.58,66c5.27,7.92,15.73,11.82,15.73,11.82.72-7,5.63-8.69,21.11-8.7l16.48,92"/><path id="path37" class="cls-2" d="M98.89,51.81a134.76,134.76,0,0,1,55.17,11.07,45.1,45.1,0,0,0,3.27-6.76A159.91,159.91,0,0,0,98.89,44.73,160,160,0,0,0,40.45,56.12a56.14,56.14,0,0,0,3.28,6.76A134.72,134.72,0,0,1,98.89,51.81h0"/></g></g></g></svg>