<svg xmlns="http://www.w3.org/2000/svg" viewBox="0 0 64 64"><path fill="#faefde" d="M52.772,46.323l-1.559-18.008c-0.157-1.909-1.752-3.379-3.668-3.379h0 c-1.994,0-3.61,1.617-3.609,3.611l0-0.611l-0.357-1.784c-0.364-1.82-1.932-3.133-3.773-3.202c-2.148,0.07-3.87,1.822-3.87,3.987 L35,3c-8-6-8,4-8,4c0-2.209-1.791-4-4-4h-0.009c-2.206,0-3.995,1.786-4,3.991l-0.055,20.544l-5.9,4.69 c-1.061,0.866-1.606,2.216-1.442,3.576l0.312,2.598c0.433,3.61,1.843,7.033,4.076,9.901l3.493,4.487l31.903-0.576 C51.935,50.935,52.935,49.935,52.772,46.323z"></path><path fill="#faefde" d="M39.656,22.935c0.051,0,0.099,0.011,0.149,0.013c0.044-0.001,0.085-0.013,0.13-0.013H39.656z"></path><path fill="#85cbf8" d="M42,12c0,1.38,0.93,2.54,2.2,2.89c0.46,0.13,0.8,0.51,0.8,0.98V18c0,0.55-0.45,1-1,1H14 c-0.55,0-1-0.45-1-1v-2.13c0-0.47,0.34-0.85,0.8-0.98C15.07,14.54,16,13.38,16,12s-0.93-2.54-2.2-2.89C13.34,8.98,13,8.6,13,8.13V6 c0-0.55,0.45-1,1-1h30c0.55,0,1,0.45,1,1v2.13c0,0.47-0.34,0.85-0.8,0.98C42.93,9.46,42,10.62,42,12z"></path><path fill="#faefde" d="M19 4H27V27H19z"></path><path fill="#6e91ce" d="M55,57v6H17v-6c0-2.209,1.791-4,4-4h30C53.209,53,55,54.791,55,57z"></path><path fill="#80a6dd" d="M55,60.5L55,60.5c0,1.381-1.119,2.5-2.5,2.5h-33c-1.381,0-2.5-1.119-2.5-2.5v0 c0-1.381,1.119-2.5,2.5-2.5h33C53.881,58,55,59.119,55,60.5z"></path><path fill="#ffefb8" d="M19,5v14h-5c-0.55,0-1-0.45-1-1v-2.13c0-0.47,0.34-0.85,0.8-0.98C15.07,14.54,16,13.38,16,12 s-0.93-2.54-2.2-2.89C13.34,8.98,13,8.6,13,8.13V6c0-0.55,0.45-1,1-1H19z"></path><path fill="#efd8be" d="M48.287 25.014c-.178-.037-.362-.05-.548-.06l.196.982 0 .611C47.935 25.997 48.067 25.481 48.287 25.014zM19.982 46.3c-2.233-2.869-3.642-6.292-4.076-9.901L15.594 33.8c-.163-1.36.381-2.71 1.442-3.576l1.9-2.69-5.9 4.69c-1.061.866-1.606 2.216-1.442 3.576l.312 2.598c.433 3.61 1.843 7.033 4.076 9.901l3.493 4.487 5.839-.105L19.982 46.3zM39.805 22.949c-.068.002-.13.02-.197.026l.327 1.961c0-.696.193-1.34.506-1.909C40.234 22.985 40.022 22.957 39.805 22.949z"></path><g><path fill="#fff7f0" d="M46.913,24.695L44,26.665l-1.864-2.613l-2.674-0.36L35,26v0.794c0,1.249,0.954,2.29,2.198,2.399 l5.715,0.502c5.115,0.508,9.012,4.811,9.012,9.951v-4C51.925,30.506,52.028,25.203,46.913,24.695z"></path></g><g><path fill="#8d6c9f" d="M52.497,52.203c0.04-0.078,0.076-0.157,0.118-0.237c0.58-1.107,1.302-2.484,1.154-5.729 L52.21,28.232c-0.199-2.409-2.248-4.297-4.665-4.297c-1.194,0-2.32,0.451-3.181,1.273c-0.688-2.092-2.367-3.273-4.708-3.273 c-1.231,0-2.154,0.375-2.844,0.933L36.68,20H44c1.1,0,2-0.9,2-2v-2.13c0-0.91-0.62-1.69-1.53-1.94C43.6,13.69,43,12.9,43,12 c0-0.9,0.6-1.69,1.47-1.93C45.38,9.82,46,9.04,46,8.13V6c0-1.1-0.9-2-2-2h-8.1c-0.46-2.28-2.48-4-4.91-4 c-2.14,0-3.97,1.36-4.68,3.26C25.43,2.48,24.27,2,22.99,2C21.36,2,19.91,2.79,19,4h-5c-1.1,0-2,0.9-2,2v2.13 c0,0.91,0.62,1.69,1.53,1.94C14.4,10.31,15,11.1,15,12c0,0.9-0.6,1.69-1.47,1.93C12.62,14.18,12,14.96,12,15.87V18 c0,1.1,0.9,2,2,2h4v7c-0.029,0.019-5.596,4.45-5.596,4.45c-1.334,1.088-2.009,2.759-1.804,4.47l0.312,2.598 c0.455,3.789,1.936,7.384,4.28,10.396l2.988,3.839C16.825,53.648,16,55.257,16,57v5c0,1.103,0.822,1.925,1.925,1.925L54,64 c1.103,0,2-0.897,2-2v-5C56,54.796,54.481,52.866,52.497,52.203z M36.05,6H44l-0.06,2.14C42.21,8.62,41,10.2,41,12 s1.21,3.38,3,3.87V18h-7.41h-2H28V7c0-0.05,0-0.11-0.01-0.16V6h6.05H36.05z M31,2c1.29,0,2.4,0.83,2.81,2h-5.64 C28.58,2.83,29.69,2,31,2z M14,18l0.06-2.14C15.79,15.38,17,13.8,17,12s-1.21-3.38-3-3.87V6h4.1C18.03,6.32,18,6.66,18,7v11H14z M16.771,47.686c-2.121-2.726-3.461-5.979-3.872-9.406l-0.312-2.598c-0.123-1.026,0.281-2.029,1.081-2.683l4.257-3.474L18,30v2v3 c0,0.553,0.447,1,1,1s1-0.447,1-1v-5L19.99,6.99c0-0.35,0.07-0.68,0.18-0.99c0.41-1.17,1.52-2,2.83-2c1.3,0,2.41,0.84,2.82,2 c0.1,0.27,0.17,0.7,0.18,1v20c0,0.55,0.45,1,1,1s1-0.45,1-1v-7h6.68L35,27.04c0.003,0.06,0.029,0.111,0.042,0.168 c0.015,0.069,0.022,0.139,0.05,0.202c0.015,0.032,0.04,0.056,0.058,0.086c0.047,0.08,0.093,0.159,0.159,0.223 c0.026,0.025,0.061,0.038,0.09,0.06c0.07,0.054,0.138,0.11,0.221,0.144C35.738,27.972,35.866,28,36,28h0.04 c0.058-0.003,0.107-0.029,0.162-0.041c0.072-0.015,0.145-0.023,0.21-0.053c0.051-0.023,0.09-0.061,0.135-0.091 c0.06-0.041,0.124-0.076,0.174-0.128c0.044-0.046,0.071-0.103,0.105-0.156c0.035-0.054,0.076-0.102,0.1-0.162 c0.026-0.066,0.031-0.139,0.042-0.211C36.977,27.105,37,27.056,37,27c0-0.313,0.074-3.064,2.656-3.064 c1.655,0,2.617,0.789,2.941,2.412l0.338,1.688v0.508c0,0.002,0,0.003,0,0.005c0,0.552,0.448,0.999,1,0.999c0.553,0,1-0.448,1-1 v-0.001c0-0.697,0.271-1.353,0.764-1.846s1.148-0.765,1.846-0.765c1.385,0,2.558,1.081,2.672,2.465l1.557,17.967 c0.12,2.664-0.414,3.684-0.931,4.67c-0.137,0.261-0.537,0.925-0.549,0.963H21c-0.271,0-0.607-0.037-0.866,0.005L16.771,47.686z M54,62H18v-5c0-1.654,1.346-3,3-3h30c1.654,0,3,1.346,3,3V62z"></path><path fill="#8d6c9f" d="M21 55.925c-.553 0-1 .447-1 1v2c0 .553.447 1 1 1s1-.447 1-1v-2C22 56.372 21.553 55.925 21 55.925zM26 55.925c-.553 0-1 .447-1 1v2c0 .553.447 1 1 1s1-.447 1-1v-2C27 56.372 26.553 55.925 26 55.925zM31 55.925c-.553 0-1 .447-1 1v2c0 .553.447 1 1 1s1-.447 1-1v-2C32 56.372 31.553 55.925 31 55.925zM36 55.925c-.553 0-1 .447-1 1v2c0 .553.447 1 1 1s1-.447 1-1v-2C37 56.372 36.553 55.925 36 55.925zM41 55.925c-.553 0-1 .447-1 1v2c0 .553.447 1 1 1s1-.447 1-1v-2C42 56.372 41.553 55.925 41 55.925zM46 55.925c-.553 0-1 .447-1 1v2c0 .553.447 1 1 1s1-.447 1-1v-2C47 56.372 46.553 55.925 46 55.925zM51 55.925c-.553 0-1 .447-1 1v2c0 .553.447 1 1 1s1-.447 1-1v-2C52 56.372 51.553 55.925 51 55.925z"></path></g></svg>