<svg xmlns="http://www.w3.org/2000/svg" viewBox="0 0 64 64"><path fill="#f9dd8f" d="M8,42l17-8l7,2l7-2l17,8c3.067,1.2,5,5.167,5,8.46V58c0,1.105-0.895,2-2,2H5c-1.105,0-2-0.895-2-2 v-7.54C3,47.167,4.933,43.2,8,42z"></path><path fill="#efc88e" d="M32,46c5.16,0,11-3,14-9l-7-3l-7,2l-6-2l-8,3C21,43,26.84,46,32,46z"></path><path fill="#8d6c9f" d="M59,61H5c-1.654,0-3-1.346-3-3v-7.672c0-4.229,2.469-8.13,6.291-9.941l0.019-0.009l16.546-7.409 L32,33.99l7.145-1.021l16.546,7.409C59.531,42.198,62,46.1,62,50.328V58C62,59.654,60.654,61,59,61z M9.138,42.199 C6.017,43.682,4,46.872,4,50.328V58c0,0.551,0.448,1,1,1h54c0.552,0,1-0.449,1-1v-7.672c0-3.46-2.021-6.652-5.146-8.133 l-15.998-7.164L32,36.01l-6.855-0.979L9.138,42.199z"></path><path fill="#faefde" d="M19.647 22.118C17.882 20.353 17 21.051 17 23s.882 4.412 4.412 4.412M44.353 22.118C46.118 20.353 47 21.051 47 23s-.882 4.412-4.412 4.412"></path><path fill="#faefde" d="M18.765,22.118C18.765,32.545,24.059,40,32,40s13-7.572,13-18c0-2.67-1-6-0.636-7.336 C44.553,13.97,44,14,47,15C43,5,37.839,4,32,4c-3.391,0-5.912,0.584-8,2C19,6,18.765,14.657,18.765,22.118z"></path><path fill="#cda1a7" d="M26,12c0,1.765,10.353,3,13,3c3.888,0,4,0,5,0c0,0,2-1,3,0C44,6,37.058,4,34,4h-4c-1.612,0-4,1-5,2 c-2.805-0.896-6,2.492-6,7v6C22,18,26,12.882,26,12z"></path><path fill="#8d6c9f" d="M27.92,13.88c2.864,1.39,6.006,2.115,9.19,2.12h2.55c0.552,0,1-0.448,1-1s-0.448-1-1-1h-2.55 c-2.883-0.004-5.727-0.661-8.32-1.92l-1.56-0.76c-0.905-0.442-1.998-0.142-2.55,0.7l-1.6,2.43 c-0.296,0.466-0.158,1.084,0.308,1.38c0.455,0.289,1.058,0.165,1.362-0.28l1.6-2.43L27.92,13.88z"></path><path fill="#8d6c9f" d="M46.28 19.12c-.141-.036-.285-.056-.43-.06-.172-1.179-.48-2.333-.92-3.44v-.11c.474.057.938.178 1.38.36.51.212 1.095-.03 1.307-.54.079-.19.097-.4.053-.6C46 7.41 40.56 3 33 3h-1c-2.57.011-5.092.701-7.31 2C21 5.14 18.42 7.76 18 11.9c-.185 1.865-.141 3.746.13 5.6.054.331.084.665.09 1 0 .187-.03.373-.09.56-.148.004-.296.024-.44.06-1.65.44-2.34 2.85-1.6 5.61.54 2 1.66 3.5 2.88 4 .623 1.858 1.48 3.628 2.55 5.27l-.003.002c.304.616 1.183 1.678 1.183 1.678C25.16 38.79 28.4 41 32 41c3.584 0 6.811-2.192 9.267-5.271C41.635 35.271 42.48 34 42.48 34c1.059-1.643 1.906-3.414 2.52-5.27 1.23-.46 2.35-2 2.88-4C48.62 21.98 47.88 19.57 46.28 19.12zM45.95 24.25c-.5 1.85-1.44 2.62-1.73 2.62-.459-.018-.872.279-1 .72C41.59 33.26 37.18 39 32 39s-9.59-5.74-11.28-11.4c-.123-.423-.509-.716-.95-.72h-.02c-.29 0-1.24-.78-1.73-2.62-.49-1.84-.05-3.09.18-3.15.099.017.191.058.27.12.468.293 1.085.152 1.378-.316.091-.146.143-.312.152-.484.024-.516.081-1.031.17-1.54.052-.548.025-1.1-.08-1.64-.239-1.707-.269-3.436-.09-5.15C20.31 8.91 22.19 7 25 7c.216 0 .427-.07.6-.2C27.523 5.613 29.74 4.99 32 5h1c6.07 0 10.45 3.1 12.25 8.58-.673-.131-1.37.045-1.9.48-.576.627-.693 1.55-.29 2.3.533 1.294.838 2.672.9 4.07.028.552.498.976 1.049.948.174-.009.344-.063.49-.158.08-.06.172-.101.27-.12C46.01 21.18 46.45 22.4 45.95 24.25zM7 58c-.553 0-1-.448-1-1v-2c0-.552.447-1 1-1s1 .448 1 1v2C8 57.552 7.553 58 7 58zM52 58c-.553 0-1-.448-1-1v-2c0-.552.447-1 1-1s1 .448 1 1v2C53 57.552 52.553 58 52 58zM57 58c-.553 0-1-.448-1-1v-2c0-.552.447-1 1-1s1 .448 1 1v2C58 57.552 57.553 58 57 58zM12 58c-.553 0-1-.448-1-1v-2c0-.552.447-1 1-1s1 .448 1 1v2C13 57.552 12.553 58 12 58zM32 61c-.256 0-.512-.098-.707-.293l-11-11c-.391-.391-.391-1.023 0-1.414s1.023-.391 1.414 0l11 11c.391.391.391 1.023 0 1.414C32.512 60.902 32.256 61 32 61z"></path><path fill="#8d6c9f" d="M32,61c-0.256,0-0.512-0.098-0.707-0.293c-0.391-0.391-0.391-1.023,0-1.414l11-11 c0.391-0.391,1.023-0.391,1.414,0s0.391,1.023,0,1.414l-11,11C32.512,60.902,32.256,61,32,61z"></path><path fill="#8d6c9f" d="M32,61c-0.553,0-1-0.448-1-1V44c0-0.552,0.447-1,1-1s1,0.448,1,1v16C33,60.552,32.553,61,32,61z"></path><g><path fill="#7bbeeb" d="M32,48.5c6.341,0,11.5,5.159,11.5,11.5h5c0-9.098-7.402-16.5-16.5-16.5S15.5,50.902,15.5,60h5 C20.5,53.659,25.659,48.5,32,48.5z"></path></g><g><path fill="#8d6c9f" d="M49,61H15v-1c0-9.374,7.626-17,17-17s17,7.626,17,17V61z M17.033,59h29.934 C46.45,51.194,39.935,45,32,45S17.55,51.194,17.033,59z"></path></g><g><path fill="#8d6c9f" d="M32,56c-2.209,0-4,1.791-4,4h8C36,57.791,34.209,56,32,56z"></path></g><g><path fill="#8d6c9f" d="M44,61c-0.553,0-1-0.448-1-1c0-6.065-4.935-11-11-11s-11,4.935-11,11c0,0.552-0.447,1-1,1 s-1-0.448-1-1c0-7.168,5.832-13,13-13s13,5.832,13,13C45,60.552,44.553,61,44,61z"></path></g></svg>