<svg xmlns="http://www.w3.org/2000/svg" viewBox="0 0 200 200"><defs><style>.cls-1{fill:none;}.cls-2{fill:#1d284a;}</style></defs><g id="Capa_2" data-name="Capa 2"><g id="Capa_2-2" data-name="Capa 2"><rect class="cls-1" width="200" height="200"/><path class="cls-2" d="M100,149.87c-27.26,0-49.67-22.61-49.67-49.87a49.65,49.65,0,0,1,2.83-16.35l29.07,56.53c.41.81.81,1.41,1.82,1.41s1.41-.6,1.82-1.41L99.39,110.1c.21-.41.41-.61.61-.61.4,0,.4.4.61.61l13.72,30.08c.41.81.81,1.41,1.82,1.41s1.42-.6,1.82-1.41L147,83.65A47.81,47.81,0,0,1,149.87,100C149.67,127.26,127.26,149.87,100,149.87Zm0-62.79c-.4,0-.4-.41-.61-.61L83.85,53a47.5,47.5,0,0,1,32.3,0L100.61,86.47C100.4,86.67,100.4,87.08,100,87.08ZM83.65,123.42c-.41,0-.41-.4-.61-.61L57.6,74A51.14,51.14,0,0,1,76,56.39l18,38.76c.41.81.81,1,1.42,1h9.28c.61,0,1-.2,1.42-1l17.76-38.76A51.17,51.17,0,0,1,142.2,74L117,122.81c-.2.41-.4.61-.61.61-.4,0-.4-.4-.6-.61l-9.69-21.4c-.41-.8-.81-1-1.42-1H95.36c-.61,0-1,.21-1.42,1l-9.69,21.4C84.05,123,84.05,123.42,83.65,123.42ZM100,156.53A56.53,56.53,0,1,0,43.47,100,56.44,56.44,0,0,0,100,156.53Z"/></g></g></svg>